<?xml version="1.0" encoding="UTF-8"?>
<svg id="Layer_1" data-name="Layer 1" xmlns="http://www.w3.org/2000/svg" viewBox="0 0 171.57 284.44">
  <path d="M78.28,15.79c1.75-.05,2.72-.45,3.92,1.15,1.46,1.95,5.35,28.48,6.07,33.37,1.12,7.56,1.68,15.34,2.42,22.94l17.75-45.9c1.01-2.73,3.22-2.81,5.89-2.55l-14.64,56.34,43.94-14.64c.31,2.31-1.89,3.76-3.45,4.99-9.25,7.27-23.69,11.4-32.6,19.79,9.49.45,19.25-.58,28.72.02,2.6.17,13.98,1.51,15.56,2.26,1.3.62,1.11,1.84.8,2.8-.81,2.53-39.64,6.1-45.09,5.08l40.01,48.45-1.16,3.38-50.12-41.69,5.62,69.3c-3.15,7.79-5.66-3.42-6.47-7.04-1.66-7.45-1.93-16.32-3.68-23.94-2.05.01-1.2,4.84-1.1,6.18.77,10.74,4.55,21.26,4.49,32.14,2.32-.46,9.57.32,10.15,2.83.8,3.45-7.93,4.46-7.89,7.86l.16,47.18c.91,2.78,5.31,1.76,7.72,1.84,1.92-9.73,2.49-19.41,3.39-29.3.92.16,3.06-.24,3.36,0,1.17.96,6.04,25.84,6.81,29.56,6.96,4.38,7.09,20.65-2.21,22.92-10.37,2.54-30.24,2.24-41.26,1.66-4.65-.25-17.42-1.14-21.06-2.6-5.48-2.2-6.53-17.44-4.1-19.83.75-.74,6.51.22,6.6-2.39-9.87-.35-5.25-16.87-6.73-22.89-.35-1.43-4.4-1.4-4.48-4.69-.05-1.87,1.7-4.01,1.96-5.94,1.33-9.94,2.01-19.79,4.17-29.63.54-2.45,1.34-10.91,5.08-7.87,1.77,1.44,4.87,39.57,6.79,45.08.37.32,4.06-.88,4.32-1.31.79-1.29.06-15.27.12-18.46.03-1.84,1.24-4.63,1.06-5.51-.53-2.7-7.25-.23-6.71-5.71.41-4.17,4.73-2.19,7.23-2.98,2.29-.73,2.63-9.72,3.31-12.47,3.58-14.37,7.55-28.79,8.67-43.71l-9.57,30.42c-1.02,3.49-3.92,5.13-5.01.69l6.7-52.52c-15.35,6.93-28.03,19.73-43.18,27.24-1.5.74-6.33,3.21-7.52,2.05-2.67-2.63,8.56-9.03,9.61-11.23l37.71-28.19c-14.79-2.55-31.78-2.41-46.18-6.25-1.18-.32-4.42-.08-3.39-2.2,1.52-3.1,20.94-1.43,25.39-1.66,8.72-.44,17.73-1.54,26.43-2.31l-35.49-29.29-2.81-5.63c2.89-2.7,36.87,20.79,41.71,24.24.6,1.11,2.24-1.02,2.24-1.14V15.79ZM81.66,32.69v44.51c0,.56-1,6.97-2.8,6.19-2.02-.88-6.92-7.04-9.9-8.14l-16.59-9.88c-.6,2.49,1.44,2.49,2.59,3.6,5.06,4.87,17.73,12.7,21.14,17.17,1.04,1.36,1.3,2.3,1.06,4.01-12.85,2.47-25.92,1.73-38.89,2.27-1.37.06-4.19-.85-3.93,1.12l41.7,4.52-.75,3.44c-4.72,3.62-30.48,19.61-31.93,23.06-.76,1.8.53,2.17,2.25,1.11,3.38-2.09,29.36-21.92,31.55-19.72l-4.49,41.69,7.31-22.53,3.96-17.43c1.44-2.81,4.5,3.3,4.18,4.79l9.34,55.46c1.93.28,1.2-2.68,1.11-3.92-1.44-18.59-4.99-37.13-5.63-55.81,7.08-1.53,5.72,1.25,8.42,3.37,8.64,6.78,17.7,13.01,25.97,20.28-5.18-10.73-16.79-18.66-23.16-28.67-.88-1.39-1.43-2.2-1.08-3.98,3.95.52,40.64-1.75,40.58-3.95-14.54-2.16-29.26-1.72-43.96-1.7-.44-2.01.59-2.22,1.87-3.19,4.19-3.18,12.65-6.46,17.62-9.42,1.99-1.18,6.78-2.77,6.42-5.41-4.86-.55-28.56,11.9-30.42,10.13l8.45-34.92c-5.26,6.73-7.08,23.92-11.76,29.72-.86,1.06-3.24.92-3.46.7-.58-.57-.34-13.73-1.29-16.19l-5.47-32.28ZM105.31,49.59l1.13-6.75h-1.1c-.09,2.3-1.18,4.45-1.13,6.75h1.1ZM49.53,63.14c-1.11.78.61,1.55,1.15,2.21,1.12-.74-.52-1.49-1.15-2.21ZM131.24,73.27c-1.38-.26-5.77,1.65-4.49,2.23,1.38.26,5.77-1.65,4.49-2.23ZM41.08,127.37c-1.65-.37-2.35.47-3.35,1.69,1.12.48,4.45-1.17,3.35-1.69ZM90.66,148.76v-5.62h-1.1v5.62h1.1ZM94.04,198.37l-22.52-2.27-3.39,51.84,27.06-1.13-1.15-48.45ZM67,224.27c-5.3,1.05-9.34,1.05-14.64,0,.17,3.93.41,19.12,3.36,20.86,11.73,6.89,11.39-14.24,11.28-20.86ZM95.18,250.19c-6.62,1.61-22.24-.42-27.46,1.29-3.13,1.02-1.53,7.23-1.85,9.99,3.62.03,28.23-4.61,29.19-5.75.61-.73-.11-4.13.12-5.53ZM119.97,251.32h-19.72c-1.08,0-3.2,5.87-4.81,6.74-3.33,1.79-31.25,7.38-32.95,5.66l1.13-12.4c-.63-.63-9.88.92-10.76,2.18-1.49,2.14-.4,11.2,1.78,13,4.42,3.65,38.4,4.39,45.6,3.96,3.03-.18,17.13-1.65,18.63-2.78,2.43-1.84.5-12.85,1.1-16.36Z"/>
  <path d="M79.4,222.02c-2.27-5.77,4.34-25.27,8.98-12.93,3.14,8.35.95,14.84-8.98,12.93Z"/>
</svg>