<?xml version="1.0" encoding="UTF-8"?>
<svg id="Layer_1" data-name="Layer 1" xmlns="http://www.w3.org/2000/svg" viewBox="0 0 312.23 288.74">
  <path d="M106.79,23.38c.77.68,2.15,3.6,2.55,3.71,1.93.44,1.53-1.29,3.06-2.14,6.03-3.33,13.09-3.74,14.85,4.07,2.17-.42,1.95-2.17,4.39-3.14,2.12-.84,9.94-.9,11.18.61.39.48-.24,2.36.36,3.23.81,1.19,3.87-.51,2.99,2.56,3-.25,7.74-2.39,10.6-1.84,1.28.24,6.82,3.09,7.68,4.11,1.66,1.97,1.71,6.59,1.97,6.84.2.18,3.01-.07,4.07.18,5.63,1.33,11.27,5.55,10.94,11.89-.2,3.75-2.45,4.1-3.14,6.05-1.07,3.05-.47,5.61.72,8.45.11.25.96.31,1.27,1.02.96,2.18,2.99,10.1,5.31,10.23,1.66.09,4.32-1.16,6.41-1.08,16.51.65,14.5,13.89,15.51,26.59,4.39-1.11,19.97,1.91,19.43,8.05-.42,4.8-13.23,4.54-16.82,3.69-.17,2.28,1.66,3.65,2.32,5.83,4.08,13.55-7.69,12.86-13.71,4.58-.8-1.1-.65-2.11-1-2.82-.93-1.84-2.17,1.84-2.99,2.79-1.65,1.9-3.67,4.08-6,5.11-.76.33-2.06-.08-2.63.28-.37.23-3.75,6.28-4.68,7.39-1.84,2.19-4.35,3.43-5.86,5.88,9.72-3.13,19.73-2.06,25.72,6.89,2.05,3.07,4.16,6.62,2.98,10.39,6.48-.23,14.24,2.52,16.83,8.95.87,2.15.82,6.86,1.09,7.37.31.6,4.36,2.76,5.32,3.19,13.26,6.03,27.21,10.4,40.63,16.14,3.77,1.61,7.41,4.4,11.95,5.67,5.86,1.65,4.85.05,9.5-.68,9.45-1.47,19.58,7.49,14.7,17.28-.42.84-1.32.87-1.68,1.64-1.76,3.84-1.86,8.33-6.55,9.74-6.77,2.03-12.6-1.69-18.3,3.74-2.55-1.24-1.04-2.96-1.07-5.15-2.79.34-5.35,3.17-8.16,3.3-2.15.1-9.6-1.6-12.21-2.18-17.62-3.86-35.98-9.36-52.71-15.81-1.5-.58-9.29-4.66-9.78-4.24-.38,6.52-4.77,11.25-7.89,16.59-15.52,8.27-31.27,16.02-46.7,24.43-2.41,1.32-8.06,2.44-8.56,5.11-.84,4.5.28,8.96-6.02,9.99-1.11-.78.19-6.57-1.63-5.87-4.87,1.89-6.48,8.32-9.81,11.08-3.94,3.26-26.68-2.99-32.52-3.84-1.99.68-1.4,7.44-4.69,7.79-3.91.41-1.67-6.4-2.23-8.73-.15-.64-2.86-1-3.87-2.79-.85-1.5-1.13-4.83-.62-6.37.26-.77,1.4-.89,1.61-1.28.57-1.02.76-2.28,1.52-3.21,1.34-1.63,4.61-1.63,4.58-3.75-4.6.43-9.15,2.73-13.55,3.73-2.17.49-9.75,2.02-11.48,1.92-2.62-.15-5.72-2.47-8.06-2.9-2.97-.55-6.91.45-9.5-.29-.45-.13-6.86-5.3-7.27-5.78-.85-.98-1.4-2.6-1.68-3.86-1.24.58-2.95,6.13-4.9,3.27-1.55-2.27,1.43-7.04.73-8.83-.45-1.17-4.26-2.77-4.83-4.69-2.19-7.45,5.35-13.48,11.14-16.65,1.16-.64,3.46-.56,4.24-1.31,1.03-1,.64-4.14,1.12-5.73.51-1.68,1.86-3.14,2.28-4.25.74-1.93-3.89-.53-4.78-.56-1.95-.07-9.08-.33-8.82-3.22.37-4.17,9.64-4.14,12.59-5.05,4.81-1.48,2.95-3.39,4.68-7.07,1.21-2.57,3.33-6.02,5.5-7.72-2.75-22.42-6-42.68,16.48-55.14,1.45-.8,4.05-1.28,5.66-2.8,1.2-1.13.97-2.72,1.67-3.56.15-.18,3.81-2.42,4.03-2.49,3.74-1.12,5.94,2.31,6.7,1.81.98-4.44,5.69-6.6,9.79-4.87,1.86.78,2.02,3.86,3.93,3.58-.59-5.87,8.58-6.01,12.59-5.09,1.62.38,2.72,2.19,3.39,2.29,1.69.25,2.37-3.82,4.9-3.08-.09-1.51-2.41.1-3.33-1.05-1.69-2.14-1.48-8.46-1.89-11.33-1.34-.18-2.47,1.97-3.24,2.96-1.6,2.04-3.54,6.44-5.86,7.19-8.08,2.61-1.91-10.67.62-13.41-4.48.31-18.04,4.52-15.36-3.95,1.76-5.57,12.88-1.39,17.32-3.24-2.83-2.89-9.43-4.03-8.48-9.13,3.8-.29,7.08,1.89,10.43,3.26.99-3.97-2.61-4.19-5.68-5.7-7.39-3.65-17.36-4.62-25.65-7-13.99-4.01-39.06-16.51-40.45-33.3-.26-3.2,1.11-6.24.67-9.46,2.07-.74,5.16,1.61,6.72,1.21,1.28-.33,3.66-4.07,6.07-5.06,2.1-.86,4.34-.81,6.5-1.41,1.6.02,2.9,4.96,4.5,4.6,4.91-5.89,14.71-5.81,17.34,1.97.89.18.81-1.16,1.59-1.98,2.37-2.48,5.87-4.23,9.34-4.37,2.67-.1,5.37,2.16,6.9,1.83.44-.09.79-1.51,1.9-2.16,3.81-2.21,9.85-2.68,13.31.38ZM104.26,25.91c-1.78-1.78-12.38.26-12.16,2.66.05.56,1.73,3.6,2.24,3.71.74.16,2.12-1.52,3.36-1.82,1.98-.49,5.36-.55,7.37-.14.24-.27-.42-4.04-.8-4.41ZM123.98,31.63c.71-6.03-8.19-6.16-9.78-2.27-.58,1.41.99.83,1.64.95,2.7.48,5.44.87,8.14,1.32ZM52.86,33.59c.49-8.84-5.26-6.82-10.44-3.26-.75,1.08,9.24,3.71,10.44,3.26ZM71.13,34.89c.33-10.04-13.02-10.29-13.67-1.33,4.51.9,9.03,1.68,13.67,1.33ZM90.7,35.54c-1.55-5.76-1.77-8.91-8.77-7.78-3.6.58-6.53,5.68-4.92,9.09,1.3.05.26-2.12,1.7-2.57,1.26-.39,11.24,1.93,12,1.26ZM142.25,36.2c1.36-8.59-2.92-6.39-8.45-8.47-.05,2.05-3.32,2.72-3.94,4.24-.51,1.25.78.93,1.43,1.14,1.39.44,10.56,3.5,10.95,3.09ZM102.13,92.97c-4.01.81-10.38-.59-14.68,0v1.95c6.27.71,12.14-1.32,18.27-1.95,1.51,1.46-8.62,11.46-7.17,13.04.59.64,1.84-.84,2.24-1.34,1.35-1.69,6.67-10.66,8.45-10.37.56.09,1.34,1.16,1.53,1.78l2.12,10.59c1.06-4.9-2.72-13.91,5.23-12.4-2.73-1.34-6.42-7.1-2.15-8.36,4.66-1.38,2.37,2.92,4.75,4.45.98-3.35,7.39-5.32,8.8-8.5.87-1.96-.05-7.76,3.86-6.45,3.65,1.21-2.26,11.97-4.25,13.9-1.36,1.33-6.44,3.65-6.47,4.03-.25,2.93,1.73,2.54,2.43,3.04,1.39.99.7,10.5,1.51,12.91,2.33-.32,4.37-.99,6.81-.61,4.7.72,4.99,6.2,8.02-2.51,3.4-9.77,1.06-14.55-.4-24.04-.14-.9.55-1.96.42-3.02-2.59-19.93-16.07-29.47-34.41-34.77-5.57-1.61-19.13-4.88-24.6-5.28-13.61-1-26.24,2.44-39.81-3.4-2.69-1.16-4.89-3.15-7.7-4.04.21,8.88,4.32,14.82,10.75,20.57,13.37,11.97,23.55,12.63,39.96,16.16,6.17,1.32,12.15,3.43,18.39,4.44,1.17-3.8,3.65-9.68,7.33-11.71,3.07-1.7,15.86-4.23,16.55,1.21-3.38-.76-12.59.15-15.33,1.96-2.82,1.86-5.58,9.57-6.03,12.9-.71,5.25,2.15,14.5-4.41,15.82ZM172.28,62.95c1.25-1.26-4.8-9.43-6.18-10.46-3.8-2.81-27.99-14.08-32.82-15.47-7.31-2.1-16.21-2.61-23.64-4.73,1.05,2.82,3.82,4.23,3.26,7.82,1.48.12,1.99-1.39,3.53-2.01,9.04-3.59,17.92-.56,16.04,10.49,12.8-3,18.14,4.96,12.4,16.3,9.31.17,14.76,13.67,4.57,16.98,3.06,2.67,6.04,2.7,6.54,7.48.41,3.95-.59,6.39-3.25,9.21-.76.8-2.84.85-1.97,2.22.05.07.87-.15,1.51.81,4.59,6.82,2.45,12.86-4.97,15.66-5.39,2.04-8.09-.22-12.72,2.94l-15.15,3.44c1.99-.74,4.49,2.75,5.46,2.58.43-.08,2.75-2.62,3.97-3.25,2.79-1.42,5.55-1.46,8.16.39,1.28.9.97,2.46,2.29,2.28,1.65-.23,3.61-3.66,7.27-3.92,2.92-.21,5.56,2.07,7.04,1.97.49-.03,5.11-6.26,8.22-4.61-1.4-4.14-.41-8.29,3.91-9.8.15-.2-2.23-3.44-2.46-4.42-1-4.3,3.75-6.34,3.78-7.6s-1.71-3.13-1.78-4.71c-.09-1.86,2.14-4.87,1.71-6.34-.23-.81-1.68-.86-2.12-1.86-1.38-3.12.67-8.74,4.13-9.65-5.49-3.68-3.45-11.86,3.27-11.74ZM109.63,40.11c-.11-5.96-6.31-7.81-11.28-6.38-1.57.45-5.49,3.18-2.06,4.39s9.47.86,13.34,1.99ZM161.83,43.38c1.9-6.84-4.67-10.25-10.62-8.99-.51.11-4.88,2.24-5.04,2.47-.74,1.06,1.28,1.94,1.95,2.28,1.64.82,12.98,4.97,13.7,4.24ZM116.81,43.37c3.07-.52,8.75,4.29,10.86,4.5,2.48.25,1.69-6.74-2.19-7.62-2.48-.56-8.06.16-8.67,3.12ZM176.84,55.77c1.75-5.81-3.96-11.64-9.78-9.78.63,1.79,2.74,1.83,3.96,2.89,1.1.95,4.51,8.12,5.83,6.89ZM142.77,52.65c-.89-.66-9.31-1.13-9.65-.78-.17,1-.03,1.23.49,1.98,1.22,1.76,5.05,4.46,6.5,6.03.73.79.76,3.83,2.19,2.02,1.35-1.7,2.42-7.8.47-9.25ZM172.69,64.31c-2.17,1.59-4.72,3.99-1.68,6.11,5.5,3.84,6.42-4.55,1.68-6.11ZM145.52,80.57c9.62-2.58,6.14-12.54-2.61-12.39.98,4.09,2.81,8.1,2.61,12.39ZM174.88,76.66c-7.08.79-8.37,7.2-.03,6.49l.03-6.49ZM138.99,168.67s-.17-.57.39-.67c3.46-.59,5.18,1.3,6.46,1.31,2.03.02,4.55-3.76,9.06-1.22,2.69,1.51,1.78,3.79,2.71,5.77,1.07,2.27,3.58,1.54,2.88,6.18-.68,4.55-4.17,3.86-6.45,5.31s-4.19,4.18-7.06,5.01c-1.12,1.32-.11,2.88-.43,4.41-1.72,8.29-6.27,7.84-11.5,13.36-1.07.75-4.51.54-3.24-.95.06-.07,1.03-.11,1.56-.7s.77-1.37,1.37-1.92c1.03-.95,4.77-3.18,5.23-3.92.55-.87.37-3.64-.99-3.91.07,2.28-1.99,3.73-4.16,3.31-1-.19-.4-2.74-1.71-2.66.04,1.84-2.72,4.8-2.66,6.18.01.31,1.36.37,1.39.68.18,1.72-1.74,2.21-2.24,2.98-1.69,2.6-5.66,11.19-8.59,11.68s-.67-2.61-2.59-1.95c-2.14.74-3.83,6.84-4.99,8.71-4.41,7.13-13.76,13.58-20.79,18.04.77,1.59,3.92-.08,5.51-.03,2.02.06,6.77.64,8.72,1.12,2.05.5,9.12,3.81,8.61,6.39-.6,2.98-7.76-2.37-9.61-2.78-6.48-1.44-17.09-1.39-22.7,2.46-.87.59-8.89,7.94-9.15,8.51-.81,1.79.65,3.65,2.26,4.26,6.27,1.32,12.86,1.3,19.13,2.41,3.58.63,11.46,3.82,14.39,3.08.44-.11.45-.98.67-1.07.87-.36,1.69.02,2.46-.64,1.54-1.31.28-3.35,1.5-4.83,1.95-2.35,7.92-5.09,10.51-7.14,6.09-4.83,12.26-15.65,19.42-19.08,1.17-.56,2.68-.28,3.71-.86,2.39-1.34,10.92-6.33,12.39-7.84,3.33-3.41,4.37-10.65,8.71-12.82,1.07-.54,2.51-.46,3.53-1.03,5.57-3.12,11.69-7.14,9.97-14.69-.12-.55-1.21-.5-1.5-1.24-1.12-2.85-.78-9.22-4-11.65-3.49-2.64-11.57-1-15.05,1.34-3.58,2.41-4.52,6.17-6.56,8.45-.72.81-2.12.77-2.59,1.32-4.31,5-7.04,11.01-11.06,15.7-.42.49-2.39,2.6-2.95,1.94-.56-4.24,3.18-6.51,5.34-9.99.69-1.11.97-3.04,1.53-3.69.76-.9,2.43-.83,3.54-1.68,1.92-1.47,5.54-8.33,8.48-11.07,5.29-4.94,20.42-11.14,24.96-3.38,3.4,5.82.47,17.71,1.84,24.92.39,2.08,3.71,3.05,2.6,6.21l1.67-5.83.29-7.86,4.42,2.39c3.71,3.17,9.51,5.41,14.17,7.41-.12-1.58,3.46-9.16,2.93-9.78-.15-.18-2.79-.71-4.22-1.99s-3.15-4.03-3.64-5.82c-2.44-.57-3.99,2.45-6.2,2.58-5.16.31-1.19-6.76-1.79-9.37-.21-.9-1.22-1.53-1.48-2.37-.91-2.85,1.05-5.23,3.97-5.25,1.13.09-.76,3.45-.04,4.58.4.63,4.08,2.2,5.26,3.26,3.19,2.87,5.36,8.75,9.24,10.99,2.34,1.36,4.83,1.13,7.12,2.02,4.27,1.65,8.36,4.12,12.52,5.76,13.8,5.43,31.3,9.62,44.24,15.8,6.06,2.9,10.42,8.26,18.44,5.74,1.67-5.41,8.3-12.26,3.97-17.71-.51-.65-4.81-3.57-5.49-3.69-2.68-.47-3.07,1-4.84,1.68-1.02.39-2.69.06-3.19.38-.84.54-.03,4.29-2.39,4.51-.82.08-2.05-.24-2.28-1.04-.53-1.87,2.2-2.47,1.95-4.22-2.72-.54-5.38-1.17-8-2.12-2.28-.83-8.47-4.2-10.11-4.31-5.03-.35-3.7,7.65-7.58,6.35-1.93-.65.14-3.71,1-4.72,1.12-1.31,5.14-2.76,3.38-3.69-3.85-2.03-5.59-1.14-8.06,2.27-.96,1.32-.84,4.47-2.93,3.59-1.5-.63-1.04-3-.36-4.11.84-1.37,4.95-2.81,5.9-4.36-13.21-3.45-25.58-9.68-38.11-15.07-2.16-1.32-.4-3.59-.44-5.43-.15-6.28-6.8-11.19-12.69-11.51-3.88-.22-6.51,2.07-10.09,2.63l3.26-3.25c-2.28.43-2.24-1.59-3.96-2.9-6.29-4.78-17.18-9.56-24.75-11.79-5.31-1.56-13.93-.54-19.89-.99-10.62-.8-20.99-4.14-31.65-3.91-.35-3.31,4.17-3.14,6.82-3.29,9.13-.53,14.64,1.03,22.92,1.94,5.57.61,11.31.38,16.85,1.35,27.26-10.84,26-42.66,15.89-65.42-.44-.99-.52-2.03-.5-3.09-1.09-.17-.71,1.59-.67,2.3.11,1.78.77,3.38.73,5.2-.03,1.54-.71,2.98-.74,4.54-.28,19.63,2.55,33.74-18.91,42.43-5.62,2.27-5.51,1.44-10.7,1.63-.27.01-1.71,1.55-4.71,1.88-13.94,1.55-31.9-.49-44.63,1.7-2.18.37-12.94,3.45-14.53,4.4-.83.49-1.35.67-1.12,1.81,4.86.43,7.23,4.58,5.88,9.14,1.68.18,3.2-.71,4.86-.67,1.82.04,4.24,1.52,5.75,1.2,2.91-.63,6.61-5.79,10.25-4.11,2.87,1.33,3.64,5.96,3.94,6.19,1.25.96,1.56-1.41,2.22-1.98,5.28-4.55,12.15-6.12,13.44,2.64,5.01-5.16,10.33-7.06,14.75-.03,3.01-1.71,2.95-4.11,7.19-4.51,4.39-.42,5.79,2.93,7.19,3.19,1.06.19,2.23-2.18,3.89-2.37,1.82-.22,6.37,1.07,7.77,2.41,1.02.97,1.77,3.69,2.66,3.89.67.15,2.12-1.08,3.25-1.25,8.43-1.24,15,11.12,7.09,12.35-3.8.59-10.42-2.26-14.49-3.05-9.63-1.85-20.56-2.5-30.43-3.5-9.25-.93-16.32,1.14-25.42,1.14-1.11,0-2.34-.85-3.46-.86-11.3-.12-25.53,1.51-34.78-6.45-3.72-3.2-1.81-6.37-1.38-9.81.21-1.66-.13-3.31.2-5.01.36-1.86,5.5-10.5,5.06-10.92-10.88,3.32-18.12,12.58-16.27,24.43.17,1.07,3.1,7.34,3.59,7.46.52.12,1.81-.63,3.04-.46,1.44.21,8.17,3,8.82,4.01.36.56.07,1.64.17,1.74.3.31,6.75-1.25,8.51-1.02,2.78.37,4.98,3.64,6.15,3.64,1.29,0,4.03-3.18,7.84-3.3s1.67,1.27,2.34,1.9c.29.27,1.85-.02,2.7.25.74.23,1.39,1.13,2.16,1.15,1.19.03,2.15-1.86,3.4-2.47,1.96-.97,6.01-1.2,8.06-.52,1.59.53,1.88,2.32,2.3,2.35.71.05,2.08-.75,3.76-.63,1.95.14,4.22,1.67,5.43,1.77,1.06.09,3.95-2.14,8.04-1.81-1.95.83-8.26,3.37-4.95,5.93,4.01,3.1,14.37-5.18,4.95-5.93ZM221.21,111.91c-1.49-1.47-15.25-2.21-18.28-2.27-4.25-2.59.88-19.89-6.05-23.98-1.61-.95-9.01-3.56-10.25-2.47-.06,1.56,1.45,2.17,1.82,3.72,1.49,6.28,2.19,12.4,2.75,18.78.18,2.06,1.06,4.61,1.04,6.65-.03,4.22-2.28,9.1-3.01,13.26,4.86-.19,3.78-10.35,7.48-10.42,3.6-.08,4.79,7.06,6.85,9.47.97,1.13,2.53,1.3,3.61,2.25.95-3.83-5.46-10.44-3.51-13.6.44-.71,13.65.25,16.57-.09.92-.11,1.9-.38.96-1.3ZM151.19,86.65c-.6-.64-4.65-2.56-5.01-2.15.74,4.17,1.16,8.18,1.31,12.4,1.67,1.68,7.82-5.84,3.71-10.24ZM174.88,88.41c-5.1-1.12-6.32,4.53-1.62,5.86,1.5.42.82-.84.93-1.64.2-1.42.22-2.83.68-4.22ZM122,98.87c-.19-.18-4.33-.31-5.19-.68-1.08,4.47.29,9.48-2.6,13.38,2.77,1.15,6.02,2.03,9.12,2.93-1.06-2.39-.36-14.67-1.33-15.63ZM174.23,99.5c-.82-.82-9.52,2.12-4.82,7.11.78.83,3.77,3.43,4.15,1.05.19-1.16.95-7.87.66-8.16ZM148.6,102.29c-.41-.41-2.12-1.14-2.43-.84-.21,4.43-2.06,8.49-3.92,12.4,4.76-.54,9.63-1.3,8.33-7.35-.12-.58-1.66-3.87-1.99-4.2ZM127.25,117.11c.68.62,8.46-1.99,8.47-2.93-3.13-3.37-8.36-2.06-8.47,2.93ZM171.62,113.86c-2.11-.65-6.31-1.32-5.78,2.11.03.22,1.06,3.63,1.21,3.76,1.62,1.4,5.11-4.37,4.56-5.87ZM121.38,117.12c-.24-.21-5.8-1.89-6.11-1.83-1.07.21-3.63,3.84-3.02,4.43,2.67-.59,5.46-.83,8.14-1.32.84-.15,2.13-.25.99-1.28ZM105.06,121.03c.09-5.71-9.88-4.97-9.78-.29.06,3.05,7.54-.28,9.78.29ZM90.05,123.64c-2.63-6.63-10.24-7.73-7.81,1.31l7.81-1.31ZM77.65,126.24c.79-1.14-5.74-7.94-7.53-2.63-.78,2.32-.54,4.66,2.16,5.14,1.93.35,3.31-2.35,5.37-2.51ZM113.55,123.65c-2.09.52-4.57.42-6.56.97-3.36.92.65,3.2,2.68,2.7.98-.24,2.9-2.88,3.88-3.67ZM162.48,123.65c-2.63-.56-5.33,1.18-5.87,3.91.45.42,7.16-2.82,5.87-3.91ZM149.9,125.8c-3.6-2.86-8.79,2.07-9.6,5.67l11.75-1.3c.59-.62-1.54-3.88-2.15-4.36ZM95.93,126.26c-2.53.43-4.92-.78-7.41-.62-1.58.1-5.32,1.17-6.29,2.56,2.93-1.61,7.77,1.98,8.82,1.98.86,0,4.32-2.87,4.88-3.92ZM137.69,132.12c-1.61-9.68-9.83-7.83-11.09.65,3.64-.87,7.36-.67,11.09-.65ZM188.91,126.25v.65c.42-.22.42-.44,0-.65ZM121.38,132.78c.09-3.13.7-5.24-2.97-5.83-.97-.16-4.06-.3-4.72.09-.24.14-2.67,4.3-2.75,4.75-.25,1.32.18.87.98.99,2.9.43,6.37-.87,9.47,0ZM106.37,132.77c.64-10.3-15.35-.22-13.05,1.96l13.05-1.96ZM68.52,130.83c-5.43-2.99-8.66.09-6.49,5.84,3.42.45,5.29-3.01,6.49-5.84ZM87.92,132.32c-3.86-4.2-7.98,4.57-8.3,7.63l9.49-3.89c.41-.53-.9-3.43-1.19-3.74ZM59.38,132.78c-.79-.74-7.51,4.94-6.52,5.87l7.18-2.62-.66-3.25ZM54.31,147.65c.25.44,2.63,1.48,3.38,1.45,5.32-.2,5.48-11.34-.3-9.52-2.98.94-4.43,5.7-3.09,8.07ZM50.57,141.26v.65c.42-.22.42-.44,0-.65ZM77,180.09c.5,1.76,0,8.61,0,11.09,0,1.09-4.91,5.26-5.23,7.17-.25,1.47.33.76.99.98.7.24,3.54,1.22,3.8,1.18.92-.15,6.52-4.6,8.24-5.45,4.74-2.36,10.47-2.68,14.61-5.62s4.11-6.88,7.62-10.32c-2.3-1.24-4.07.04-6.19.05-8.58.04-17.2-1.05-25.13-4.31-.93-.38-4.85-.43-1.68-1.69,1.85-.74,3.66-.89,2.73-3.86-1.01-3.24-12.04-7.79-10.19-.63-2.78-3.86-8.14.91-11.07-.3-2.76-1.15-4.93-8.77-4.45-11.6.24-1.39,1.86-3.36,1.75-3.99-.28-1.61-5.68-5.7-2.52-9.87-1.03-1.6-2.87,3-3.13,4.05-1.48,6.08-.03,9.87.5,15.52.48,5.14.29,10.4,1.97,15.33,2.99-1.06,6.19-2.59,9.45-2.6.67,0,8.09,1.01,6.2,2.6-7.9.3-16.47,2.22-21.13,9.21-2.31,3.46-2.71,10.49-6.06,12.19-2.01,1.02-4.68.92-6.74,1.77,1.63,1.26,8.27-1.2,9.15-.33.19.19-.14,2.54,0,3.26,2.44-.01,2.41-3.3,5.04-2.18,1.41.6,3.01,6.34,5.08,7.39-1.58-5.86-1.09-12.17,5.22-5.87-1.68-5.7,3.64-3.4,7.54-4.19,7.05-1.44,9.88-7.2,10.43-13.77.14-1.64-.87-3.2-.21-4.67.81-1.81,3-2.07,3.45-.52ZM82.87,154.97c-.38-3.28,7.74-10.66-.82-8.99-7.45,1.46-5.86,7.84.82,8.99ZM174.88,145.83l-3.26,1.95,2.6.66.66-2.61ZM195.52,150.66c-4.96-3.91-13.51-4.04-19.33-2.21,2.06,2.81,7.1,2.9,10.43,4.24,2.02.81,8.38,4.25,9.59,5.74,1.64,2.02.79,4.16,4.47,4.99,2.13-3.37-2.47-10.63-5.16-12.75ZM111.59,158.22c.46-.44-1.63-6.17-3.02-6.43s-6.25,3.6-6.76,4.81,2.96,1.47,3.66,1.54c2.03.21,4.08.04,6.12.08ZM126.6,156.92c.06-9.85-10.29-1.1-8.48.65l8.48-.65ZM137.53,153.13c-1.12.1-4.04,1.42-3.75,2.8.12.6,12.17,4.94,6.79-1.56-.83-1-1.77-1.35-3.05-1.24ZM57.19,153.73c-3.02,1.04-1.81,9.68,2.18,10.76,2,.54,4.37-1.54,3.8-3.8-.13-.52-2.54-6.15-2.79-6.4-.78-.8-2.21-.9-3.19-.56ZM155.76,155.17c-3.64-3.33-7.43-.44-8.28,3.7l9.79,1.31c.22-1.67-.24-3.85-1.51-5.01ZM95.93,154.31c-8.89-.53-10.06,4.35,0,3.27v-3.27ZM168.19,156.44c-3.16-3.36-7.6-.53-7.66,3.75l8.48,1.31c-.01-1.45.22-3.95-.82-5.06ZM173.58,163.44c2.16-.46,9.13,3.2,9.76.92-.49-7.06-8.67-7.63-9.76-.92ZM80.44,173.72c2.63,2.86,9.5,1.54,8.05-3.11-1.72-5.51-12.04-1.24-8.05,3.11ZM99,168.78c-4.21.66-6.89,7.38.57,7.68s5.17-8.58-.57-7.68ZM118.76,173.88c.22-.22.08-3.24-.31-3.92-2.03-3.49-9.96.28-9.47,4.57,1.14.87,9.43-.3,9.79-.65ZM153.95,173.17c1.99-2.8-5.15-6.26-6.4-1.43-.94,3.66,5.37,2.88,6.4,1.43ZM128.46,170.72c-2.17-1.1-5.28-1.36-5.77,1.57-1.02,6.1,7.78,4.25,5.77-1.57ZM152.69,180.41c.22-.23.04-2.65-.32-3.27-1.72-2.96-16.69-1.09-20.15-.56-6.58,1-11.24,1.29-12.16,9.04.81.85,4.94-4.21,5.93-4.83,2.57-1.6,5.74-2,8.72-1.66,1.16.13,2.11,1.17,3.18,1.11,2.8-.14,5.16-1.6,9.26-1.15,1.19.13,5.17,1.7,5.54,1.31ZM157.91,176.5c-1.01-.22-1.35.35-1.97.95-4.88,4.67,5.23,8.83,1.97-.95ZM104.03,191.78c3.89-3.97,8.09-7.85,12.12-11.71-2.89-4.75-6.15,1.99-8.05,4.03-2.12,2.27-7.77,8.47-9.99,9.91-4.11,2.67-11.76,3.86-17.39,7.4-7.32,4.59-9.93,6.44-18.26,9.79-2.47.99-4.93,2.2-7.62,2.49l6.38,3.75c2.26,3.58,8.89,4.29,7.97,9.3-5.45-.81-8.4-6.41-13.25-8.61-10.33-4.67-20.88-1.63-30.46,3.4l3.83,1.38c.81,2.77-1.16,5.24-4,5-3.2-.27-.86-3.93-2.76-3.12-3.71,1.58-4.2,7.35-.29,9.41,4.27,2.25,14.92,3.79,19.85,4.16,4.25.32,7.47,1.43,11.96,2.52,1.06.26,1.97,1.34,3.1,1.51.72.11,13.59-1.52,14.45-1.8,3.64-1.18,8.49-6.54,11.75-8.62,1.94-1.24,16.16-8.78,17-8.34.32.17-.41,1.39,1.59,1.03,7.01-1.27,11.65-7.31,16.5-11.62,1.93-1.72,4.75-2.55,6.36-4.74.71-.96,5.53-12.39,5.05-12.89-.28-.29-3.94-.07-3.27-3.27-.64-.57-6.07,5-5.89,1.62s6.78-7.94,10.15-8.17c1.74-.12,5.71,1.4,6.01-.94.44-3.47-8.59-.87-10.72.18-2.73,1.34-11.37,9.33-14.26,11.85-1.08.94-2.2,4.42-3.9,2.02-2.46-3.47,7.53-7.79,8.51-9.81.66-1.35.24-3.12.32-4.57-.89-1.05-3.7,3.98-4.23,4.57-2.2,2.46-4.44,4.1-6.9,6.17-1.04.87-2.65,4.04-4.84,3.62-3.3-.64,2.23-5.91,3.2-6.91ZM118.11,181.72c.32-2.71-.96-2.71-.64,0h.64ZM151.39,181.72c-4.03.38-8.6-1.48-11.74,1.95,1.67.02,2.74-1.02,4.4-.19s1.58,3.81,3.09,3.46c.35-.08,4.94-4.6,4.25-5.21ZM117.45,183.67c.47-.92-.41-1.74-.64-1.3-.47.92.41,1.74.64,1.3ZM136.38,191.5c2.68-1.36,5.82,3.88,6.2,3.91,1.3.07,1.35-7.56.69-8.51-.48-.69-2.51-.91-2.91-.55-.21.19.06,1.71-.69,2.25-1.05.74-3.5-.45-3.29,2.9ZM134.42,188.25c-.15-.14-1.42.07-1.95,0v2.61s1.95-1.64,1.95-1.64c-.07-.35.11-.87,0-.97ZM195.77,194.77c4.71-.57,4.22-4.86.32-6.51.7,2.4.03,4.17-.32,6.51ZM67.87,202.61c-.72-.85-5.92.18-7.18,0l1.31,4.57c1.3-.6,7.38-2.78,5.87-4.56ZM56.44,203.92c-.64.45.35.9.67,1.28.65-.43-.3-.86-.67-1.28ZM217.95,206.51c1.08-1.44-3.11-3.03-4.28-1.33-2.72,3.95,3.59,2.25,4.28,1.33ZM39.48,205.21v.65c.42-.22.42-.44,0-.65ZM38.83,206.52v.65c.42-.22.42-.44,0-.65ZM44.95,206.6c-1.92-1.12-6.15,5.48-5.79,5.79h8.48c.5-.48-2.4-5.63-2.68-5.79ZM57.42,210.42c.84-1.19-3.34-3.87-3.91-3.25l.67,3.9,3.23-.65ZM237.52,213.71c-.28-.39-7.65-2.23-9.23-2.85-1.85-.73-6.1-3.56-7.45-3.69-1-.1-8.35,3.17-9.75,3.91-.6.32-1.56.32-1.63,1.3,8.56.08,15.73,4.38,23.32,7.65,10.62,4.58,23.38,11.88,35.77,10.66,2.28-.23,7.95-1.82,3.91-3.98-1.38-.74-8.17-3.67-9.28-3.73-2.17-.1-7.89,5.83-9.34,4.41-.91-.9,2.3-5.56,1.23-7.1-3.16-.1-8.73-4.11-11.38-3.96-1.55.09-2.35,2.95-5.74,1.84-2.28-.75.09-3.73-.43-4.45ZM182.71,213.04c-1-.32-4.04,1.56-3.25,2.61h3.25s0-2.61,0-2.61ZM178.68,216.42c-.62-.37-5.72.59-6.12,1.15-1.34,1.86,1.15,11.16-1.58,12.82-2.49.98-2.83-2.34-4.34-2.91-1.84-.69-1.55,1.12-2.86,2.18-2.47,2.01-11.28,5.85-12.18,7.08-.59.8-1.22,5.31-.85,5.68,1.56,1.55,4.28-2.01,5.03-2.44,6.6-3.86,13.86-6.72,20.29-10.54,2.92-1.73,5.92-1.88,7.61-5.96.89-2.15-1.8-3.02-3.61-4.85-.61-.61-1.26-2.11-1.39-2.19ZM104.41,227.4c-2.96-.59-3.62,1.41-3.91,3.91.72.75,4.67-3.25,3.91-3.91ZM95.91,233.27c.17-.14,2.14-3.72,1.96-3.91-4.09-.11-3.77,5.46-1.96,3.91ZM280.59,232.61c.15-1.2.04-1.91-.99-2.6h-.97s0,2.6,0,2.6h1.95ZM93.2,237.72l-.55-5.75c-5.87,2.26-8.08,7.64-10.43,13.05,4.88-.69,7.3-4.7,10.98-7.29ZM100.49,231.97c-1.81-.43-.92.63-1.94,1.63l.31.31,1.64-1.94ZM24.8,237.84h-1.95s0,3.91,0,3.91c1.68-.65,2.2-2.19,1.95-3.91ZM148.78,238.49h-1.3c-.21.96.29,1.36.98,1.95l.32-1.95ZM34.55,240.48c-.25-.26-6.05-.95-7.14-1.33-1.04,3.46,2.62,7.98,5.55,9.13,1.24.48.81-.4.95-.98.26-1.05,1.1-6.34.64-6.82ZM146.78,239.89c-.14-.18-1.94-.84-2.44-.63-2.49,3.58-8.08,6.03-9.26,10.33.44.42,10.24-3.53,11.09-4.23.66-.54.77-5.24.6-5.46ZM80.91,239.8c-2.39-.55-2.33,3.24-.98,3.25.88,0,1.2-2.35.98-3.25ZM47.63,250.89c-.47-3.72,1.84-8.27-2.97-9.09-6.09-1.03-4.1,2.61-7.15,6.46-.64.81-4.17,2.48-.79,2.48s7.19-1.26,10.92.14ZM77,242.41c-3.85,1.43-7.69,2.7-11.72,3.61-2.48.56-6.98.48-8.73,1.06-.6.2-4.71,6.1-4.34,6.42,3.25-.04,25.03-5.52,25.28-6.81.12-.63-1-3.08-.49-4.27ZM54.16,243.72l-3.91-.66,1.3,1.62c-1.85,1.37-1.3,3.52-1.3,5.55,1.43-.46,4.7-5.61,3.91-6.52ZM127.25,262.63l-.32-3.26c-1.31,1.14-1.78,3.82.32,3.26Z"/>
  <path d="M178.07,197.98c-2.97.61-3.78-3.88-4.5-4.51-1.43-1.25-1.46,2.88-2.29,3.89-1.2,1.46-3.41,1.43-4.84.31s-.92-4.92-3.96-1.94c-.96.94-1.33,3.22-3.24,2.95-1.47-7.06,7.34-11.91,13.32-11.07,3.55.5,8.96,7.02,5.52,10.36ZM174.23,190.21l-1.95-.66c-.32,1.71.37,1.36,1.95,1.3v-.64Z"/>
  <path d="M213.22,180.9c-1.57,1.8-6.23,1.09-5.07-2.45-2.19,2.25-10.66,1.39-9.71-2.16s10.87-4.82-1.72-5.67c-.55-.04-2.24.34-1.62-.97,3.2-6.72,22.91,5.73,18.11,11.25Z"/>
  <path d="M129.86,236.53c-.76.8-7-3.18-8.23-3.83-.87-.46-3.94-1.27-4.08-1.48-.39-.61.14-2.28-.08-2.52-.39-.42-3.26,1.02-2.61-1.3,5.21,1.14,15.47,2.23,15,9.13Z"/>
  <path d="M103.31,255.67c5.42-3.97,8.36,6.23,1.93,7.52-4.15.83-4.34-5.75-1.93-7.52Z"/>
  <path d="M121.14,221.57c1.13-.32,10.14,2.01,11.51,2.71,2.73,1.38,3.51,4.87.46,4.13-3.9-.94-8.21-3.92-12.37-4.61-1.2-.7-.56-1.96.41-2.23Z"/>
  <path d="M293.56,216.39c2.11,3.36-5.5,8.33-7.42,4.49-2.54-5.09,6.25-6.36,7.42-4.49Z"/>
  <path d="M138.99,220.86c-1.25.28-1.82.79-3.21.34-.35-.11-6.27-3.06-6.55-3.3-.72-.59-1.01-1.93-.67-2.26.92-.9,11.78,1.29,10.43,5.21Z"/>
  <path d="M56.12,234.57c-1.89-.37-2.77,1.73-4.27,1.98-7.04,1.19-5.98-8.43-.76-7.11,1.07.27,4.13,4.02,5.03,5.13Z"/>
  <path d="M89.4,205.86c.02-.7-.17-1.35.29-1.99,1.07-1.46,11.79.63,11.42,2.89-.71,4.3-9.32-1.19-11.71-.9Z"/>
  <path d="M80.92,209.78c.55-.55,6.43,2.17,7.36,2.74s1.49.92,1.11,2.14c-.89,2.85-10.02-1.69-8.47-4.88Z"/>
  <path d="M81.57,218.91c-1.67,1.7-7.22-4.45-6.52-6.52,2.68-1,8.14,4.87,6.52,6.52Z"/>
  <path d="M60.69,234.58c-.5,1.65-2.48,1.33-3.91,1.29v-.64s3.91-.65,3.91-.65Z"/>
  <path d="M67.53,169.33c.36.42,1.31.85.67,1.28-.31-.38-1.31-.82-.67-1.28Z"/>
  <path d="M69.5,170.63c.42.22.42.44,0,.65v-.65Z"/>
</svg>