<?xml version="1.0" encoding="UTF-8"?>
<svg id="Layer_1" data-name="Layer 1" xmlns="http://www.w3.org/2000/svg" viewBox="0 0 180.54 344.29">
  <path d="M73.04,158.68c.06-.09-.06-.54.47-.47.08.53-.45.44-.47.47Z"/>
  <path d="M72.57,159.61s.23-.6.47-.94c-.15.24-.15.7-.47.94Z"/>
  <path d="M89.87,89.71c.12-.67,1-1.7,1.25-2.49.65-2.05.58-3.55,2.26-5.22,2.57-2.55,5.31-1.38,8.33-2.9,5.95-2.99,8.98-11.11,7.77-17.42-1.38-7.24-6.93-6.17-10.03-11.94-.98-.04-.48,4.5-3.53,4.01-4.02-.64-3.81-7.08-3.26-10.1-2.73.91-4.92,2.44-7.96,1.65-8.03-2.08-3.37-8.56,2.82-8.67l-5.07-2.41c.58-5.86,3.64-2.97,7.41-2.26-.34-2.59.42-5.88,2.18-7.85,2.01-2.25,5.44,2.72,5.78,4.57,1.26-.7,1.37-2.9,2.65-3.65s4.17-.75,5.3.15c1.38,1.11-1.31,4.22-.91,5.55s4.36.47,4.9,3.56c.63,3.59-3.78,7.15-7.27,6.56,1.85,2.51,7.67,3.15,6.45,7.14-.71,2.33-3.05,2.08-4.82,2.2-.51.04-1.56-.26-1.16.69.57,1.38,3.61,2.52,4.89,3.53,7.46,5.85,4.26,20.18-2.8,25.24-3.04,2.18-4.82,1.68-7.83,2.45-3.84.99-5.7,10.43-5.95,13.91,1.86.36,3.12-.96,4.9-.97,4.91-.04,3.38,2.4,4.2,5.2.92,3.18,3.18,8.43,4.44,11.93,2.4,6.64,5.23,13.12,7.59,19.77,2.4-.55,5.19,2.86,6.39,3.12.83.18,2.27-.3,3.83-.02,1.94.36,8.72,2.75,9.98,4.04,2.21,2.25,3.27,6.18,3.9,9.19.18.84-.06,2.47.18,2.86.29.47,6.54,1.22,8.69,5.57,1.39,2.81,3.84,11.47,3.8,14.38-.02,1.43-2.73,9.48-3.58,10.84-.94,1.51-3.26,3.56-5.02,3.86-5.37.91-10.23-3.37-15.15-.19-4.03,2.6-1.6,6.04.37,9.41,3.66,6.27,9,11.34,14.9,15.5,2.98,2.1,6.59,3.77,9.63,5.8,3.49,2.33-4.32,6.15-6.51,6.3-4.34.29-15.19-2.24-18.64-5l-2.57-2.8.95,14.71c1.16,16.8-3.29,34.14-1.21,50.77.72,5.78,2.78,10.56,6.56,14.95,4.09,4.74,7.26,6.59,13.29,3,2.14-1.28,5.98-5.63,7.25-7.72.68-1.13,1.5-4.22,2.26-4.98s2.43-.49,2.95.35c.57.91-2.66,13.78-3.31,15.9-1.85,6.03-4.07,11.71-8.41,16.38-12.05,12.97-30.57,6.09-40.21-6.11-.39-.49-.8-2.66-1.65-1.85-.14.13-.77,2.6-1.33,3.59-9.33,16.38-26.81,16.44-41.84,7.55-7.54-4.46-14.45-14.78-17.17-23.04-.67-2.02-3.2-12.66-.65-13.29s3.77,5.15,4.68,6.92c.63,1.21,2.27,3.84,3.21,4.74,1.43,1.37,7.23,3.61,8.83,2.73,3.67-2.01,7.23-12.97,7.74-17.07.69-5.59-.24-12.78,1-18.1.32-1.37.84,1.1.11-2.53-.8-4.01-2.15-8.52-2.45-12.52-.67-9,.49-18.74-.01-27.82-2.24.84-3.31,3.13-5.28,4.3-5.81,3.46-12.99,3.09-19.15.73-2.49-.95-7.57-3.02-4.05-5.7,9.31-7.12,17.75-9.4,24.96-19.93.49-.72,3.56-5.94,3.56-6.3,0-.92-1.28-1.2-1.83-1.92-1.28-1.7-2.74-5.42-4.72-6.03-2.71-.84-4.49.77-6.93,1.07-5.77.71-12.08-2.61-15.53-7.14-3-3.94-2.62-9.21-1.19-13.79.72-2.29,2.87-4.65,3.32-6.54.31-1.3.01-3.56.91-5.13.44-.78,3.11-1.74,3.42-2.66.35-1.04-.13-2.51.1-3.64,1.52-7.37,5.06-11.13,12.81-11.5,3.92-.19,6.15,2,7.76-3,.43-1.33.32-3.43,1.05-4.34.55-.69,5.7-2.87,6.64-2.87.85,0,3.43.96,3.97,1.8-1.41.13-2.82-1.02-4.22-.72-.22.05-3.56,1.54-3.67,1.71-.73,1.14,3.97,7.37,5.08,8.14.61.42.76.27,1.16-.26.35-.45,2.76-7.78,2.94-8.75,1.53-8.02,1.85-11.25,4.5-19.25.85-2.56.63-6.1,2.87-7.99-.81,2.87-.88,5.81-1.58,8.7s-2.19,6.12-2.75,8.94c-.7,3.53-.55,7.33-1.26,10.89-.92,4.6-6.45,15.33-5.77,18.8.86,4.42,7.24,9.5,11.18,11.28,4.48,2.03,15.48,4.34,20.16,2.96,1.46-.43,9.69-4.16,10.41-5.02.56-.68,1.61-4.32,1.68-5.35.88-13.02-5.32-24.11-9.6-35.81-1.39-3.79-2.55-7.75-3.53-11.67l-1.36,33.37c1.24,1.88,3.07.04,4.43-.15s6.27-.21,7.02.89c.6.88-.77,4.25-1.08,5.52-.27,1.09.22,3.47-1.35,3.76-2.49.46-6.52-5.26-8.62-6.66-1.62-1.07-3.52-.97-4.45-1.63-2.8-2-3.72-11-4.62-14.08-2.44-8.33-5.54-16.4-7.76-24.9-.1-.4-.85-.33-.85-.54.05-1.76.71-5.8,3.21-4.94-.1.9-1.16.28-1.42,1.63-.6,3.09,5.9,19.34,7.26,23.63,1.1,3.47,1.73,7.25,2.93,10.65.27.75-.24,1.25,1.05,1.02-.96-4.66-1.25-9.44-2-14.13-.92-5.77-2.12-14.16-3.82-19.56-.49-1.58-1.67-3.85-3.53-3.25,1.5-2.13,2.73.36,4.21.94.27-2.2-.38-5.18,0-7.25ZM104.37,25.88c-3.38-.09-4.68,4.26-5.14,7.01.67-.86,3.24-1.52,3.62-1.99.17-.2,1.71-4.84,1.52-5.02ZM95.49,34.76v-6.78c0-1.18-1.44-2.52-2.57-.24-1.64,3.3,1.29,8.32,2.57,7.02ZM88.47,34.76c-.13-.8-2.81-2.81-3.27-2.33-1.07,1.13,2.17,2.89,3.27,2.33ZM97.82,38.5c2.82.85,6.92.98,8.61-1.91,1.15-1.97,1.07-3.33-1.47-3.59s-5.54,3.73-7.14,5.5ZM91.27,34.76c.15-.68-.2-.98-.7-1.39-.2.47.48,1.84.7,1.39ZM87.42,38.6c-1.37.25-5.21,2.18-3.62,3.88,2.2,2.35,9.52-1.37,9.82-2.81.37-1.78-2.06-.71-2.62-.74-1.3-.08-2.11-.6-3.58-.33ZM106.63,45.59l-8.8-4.75c-.04,2.6,4.42,7.41,6.76,7.51,1.71.07,3-1.2,2.04-2.76ZM95.95,41.77c-3.16-.2-2.36,6.38-1.65,8.44,1.66,4.83,3.54-1.24,3.46-3.55-.05-1.49-2.01-3.14-1.81-4.89ZM97.35,136.7l1.43-39.03c-1.72-3.23-4.98.05-7.51-.71.42,1.62-.46,3.97-.33,5.31.1,1.06,1.26,3.44,1.51,4.96,1.53,9.06,2.87,17.75,4.01,26.85.07.57.2,2.55.87,2.63ZM59.95,139.03c2.08,0,7.1,4.46,8.26,4.64.79.12,1.35-1.08,1.48-1.7.71-3.49-5.55-7.37-5.06-11.34-.64-.14-.51.48-.69.93-.7,1.71-1,4.71-1.89,6.07-.76,1.16-1.85.49-2.08,1.41ZM119.8,137.17c-1.83.69-5.37-4.3-6.05-2.05-.4,1.34,1.83,4.5,1.38,6.26l4.67-4.2ZM134.3,150.73c-.18-3.39-1.02-8.27-3.55-10.72-1.79-1.73-6.62-2.35-9.03-3.27-1.01,1.62-2.71,4.86-4,6.07-.69.65-2.09.93-2.16,1.2-.61,2.21.96,5.73.49,8.13,6.14.32,12.18-.73,18.24-1.41ZM67.9,150.26c-.88-1.29.13-3.04-.06-3.89-.1-.46-6.51-5.1-7.47-5.65-4.01-2.26-5.91-2.61-10.34-1.09s-6.2,5.32-6.91,9.92l24.79.7ZM108.58,140.44c-2.05,0-4.11-.22-6.08.47.5,2.59,3.36,3.35,4.44,5.6l1.63-6.07ZM69.2,152.23c-.8-.47-12.8,0-15.1-.11-3.39-.17-7.18-.73-10.52-1.39-.21.77.82.22.95.76.67,2.95.06,7.08-1.41,9.76,9.1-3.63,18.86-4.3,28.51-5.39.24-.22-2.24-3.53-2.43-3.64ZM116.08,154.02c-.22,1.34-.79,4.28-1.47,5.31s-2.16,1.06-2.56,1.67c-.7,1.08,2.6,6.55,3.55,7.71.54.66,5.16,4.94,5.61,5.15.48.22,6.14.7,7.22.73,4.36.14,8.25.37,11.2-3.34,3.12-3.91,6.55-12.1,2.12-16.06-.84-.75-6.75-3.45-7.71-3.52-1.78-.12-6.87,1.55-9.34,1.84-1.14.14-8.3.17-8.63.49ZM42.64,154.94c-2.57.34-3.58,1.87-4.21,4.2,2.28-.41,4.68-1.52,4.21-4.2ZM73.51,158.21c-.29-.27.28-1.42-1.61-1.43-5.47,1.41-11.14,1.81-16.63,3.06-6.41,1.46-19.87,5.06-12.62,14.04,1.14,1.41,5.34,2.23,7.2,2.05,5.98-.58,15.89-11.56,20.84-15.65.87-.72,1.65-.52,1.89-.67-3.18,3.73-6.47,7.39-10.04,10.77-.92.87-5.83,4.03-4.92,5.13.31.38,5.73.67,5.84,2.81.44-.2,3.61-6.15,4.44-7.25,1.68-2.19,5.47-6.51,7.46-8.42.67-.64,1.33-1.7,2.36-1.63.9.95-12.2,15.78-12.14,19.42.04,2.86,9.86,4.39,12.33,2.05.19-.18,2.09-2.47,2.17-2.62,1.04-1.77,4.38-12.25,4.91-14.62.14-.62.33-1.23.2-1.87-3.89-.21-6.47-2.39-9.48-4.32-.58-.38-2.11-.76-2.2-.84ZM41.24,160.08c-2.76.58-4.26-.1-4.67,3.27.67.65,4.98-1.65,4.67-3.27ZM109.94,162.94c-.94-.81-9.4,4.47-11.64,2.76.43,4.36-1.41,14.08,2.94,16.46,6.9,3.78,8.7-2.57,13.74-6.09,1.47-1.03,2.97-1.89,4.83-1.96-.56-1.74-2.58-1.72-3.72-2.59-2.51-1.9-5.21-5.55-6.14-8.58ZM146.92,165.69c.26-.26-.03-2.35-.93-2.34l-.47,2.33c.38-.05,1.3.09,1.4,0ZM37.68,167.26c.89-1.09,1.66-1.36,1.47-3.43-3.08.79-4.4,1.64-3.98,5.13,1.6.31,1.76-.77,2.51-1.7ZM95.93,165.71l-7.93-.75c-2.72,4.46-3.58,9.76-6.54,14.06,1.16-.1,1.99-1.14,3.13-1.55.63-.23,1.51.05,2.14-.11.43-.11.15-.96.99-.96,2.8.02,6.74,1.55,9.62,1.91l-1.42-12.6ZM146.92,166.63c-1.77-.28-2.04.8-1.87,2.33h1.87s0-2.33,0-2.33ZM38.42,171.28c.25-3.24-2.41-.69-4.19-1.85l-.47,4.21,4.66-2.36ZM146.45,174.11c-.03-.99,1.42-2.9.75-3.77-.27-.35-3.6-1.04-3.93-.84-.12.07-1.17,2.04-1.02,2.26l4.2,2.35ZM38.57,174.7c.16-.25,2.51-1.16.82-2.24-2.07-1.31-7.14,4.74-3.42,5.79,2.73.77,1.9-2.45,2.61-3.55ZM144.58,180.65c-.17-1.19,1.99-4.22,1.84-4.86-.1-.41-4.52-3.67-5.1-3.08-.38,2.09,2.13,3.66,2.6,5.11.3.93-.18,2.62.67,2.83ZM139.09,182.88c1.5,1.57,3.35-.94,3.6-2.48.54-3.36-1.37-3.55-2.32-6.29-2.96.93-1.29,2.05-1.37,3.95-.06,1.38-1.18,3.49.09,4.81ZM37.57,181.52c1.52.88,1.71-1.33,2.27-2.04.86-1.09,3.57-3.3.7-4.43-1.07-.42-.97,3.75-1.85,4.22l-2.12.46c.28.31.91,1.74,1,1.79ZM125.41,183.92c-2.27-1.11-2.91-7.23-3.73-7.72-1.59-.95-4.84.45-3.31,2.73.8,1.19,5.82,2.23,5.18,5.46l1.87-.47ZM127.69,181.99c.26-.4-.36-5.21-.61-5.57-.56-.83-2.99-.32-4-.44.7,1.58,1.15,6.09,3.11,6.45.29.05,1.41-.3,1.5-.44ZM137.57,175.98c-4.67-.61-1.89,3.08-1.83,5.86.02.82-.59,2.01-.52,2.09.17.17,3.14.54,3.74.47.18-.72-.71-.35-.95-.78-1.54-2.77-.35-4.73-.46-7.64ZM131.03,183c-.82-3.87,3.52-7.31-2.81-6.55.19,2.28,1.78,4.24.47,6.54h2.34ZM133.83,176.45c-.1-.09-1.02.06-1.4,0,.25,1.51-1.47,6.09.71,6.55,1.98.42.95-6.3.69-6.55ZM44.05,176.92c-.51-.51-1.44.42-.93.93s1.44-.42.93-.93ZM54.33,184.4c-1.31-3.58,3.36-4.71,3.68-5.92.76-2.85-4.92-1.24-5.48.64s1.51,3.49.4,5.28h1.4ZM52,177.86c-4.17-.55-5.64.43-5.89,4.67-.2,3.29,6.15,2.61,5.82-.11-.2-1.64-1.84-2.73.07-4.56ZM61.22,178.45c-1.63-1.98-1.87.62-2.46,1.26-1.06,1.17-2.2.39-2.83,2.79-.7,2.68.73,2.01,3.07,2.37-.03-1.03-.07-2.08.51-3,.75-1.19,3.7-1,1.7-3.42ZM42.64,178.32c-2.31,1.07-3.7,7.16,0,5.38,1.95-.94-.74-3.52,0-5.38ZM45.92,178.32c-1.8-.23-2.25,2.44-1.39,3.27,1.12,1.08,1.14-2.91,1.39-3.27ZM117.42,178.36c-.52-.45-2.05.11-1.36.89.08.1,1.01.11,1.43.66.49.64.42,1.68.88,2.41.43.69,2.52,4.06,3.06,3.95,2.93-4.32-2.14-4.85-3.51-6.32-.5-.54-.41-1.51-.5-1.59ZM89.87,178.79c-3.16-.41-4.73,1.63-5.04,4.58-.28,2.69,1.6,3.6,2.71,5.71l.1-3.38c.33-2.37,2.48-4.4,2.24-6.9ZM97.59,178.79v.47c.3-.16.3-.31,0-.47ZM95.02,180.18c0-1.2-3.59-1.08-3.74-.92-.1.1.08,1.42-.11,1.99-1.33,4.05-4.62,8.49,2.91,7.83.88-.88-3.2-8.31.93-8.9ZM116.42,180.3c-.22-.24-.73-.35-1.07-.44-5.97,5.2-.48,4.96,2.74,7.41.68.52,1.14,1.96,1.93,1.8.64-.13.84-1.41.72-2.04-.06-.32-.73-.32-.93-.64-.79-1.28-1.59-2.15-2.29-3.23-.54-.84-.62-2.31-1.11-2.86ZM83.79,181.13c-5.02.55-3.93,13.51,1.58,9.29,2.16-1.65-1.6-4.04-1.97-5.9-.26-1.29.38-2.18.39-3.39ZM95.95,186.73c.06-.06.05-1.08.44-1.65.36-.53,1.82-2.21,1.86-2.4.35-1.91-5.29-3.26-3.24,3.36.15.49.19,1.5.94.68ZM65.09,183.47c-1.25-.28-2.75-2.23-4.15-1.35-.24.15-1.03,4.24-.78,4.62,1.19,1.81,1.3-.86,1.76-1.3.63-.6,2.86-.48,3.17-1.96ZM111.38,184.39l-.23-1.4c-.5.43-.85.71-.7,1.4h.93ZM99.65,191.83c1.49-1-.29-4.37-.42-5.37-.15-1.16.5-2.04.23-3-1.18,1.67-2.4,3.11-2.4,5.3,0,1.4.74,4.31,2.59,3.07ZM68.36,184.4c-1.39-1.01-5.4,1.98-5.61,3.03-.23,1.18.02,3.26.91,4.11.57.54,1.4.48,2.06.86.59.33,2.73,2.76,2.15.2-.68-3.04-4.38-5.01.49-8.2ZM47.32,185.34l-3.27-.94c-.64,1.17,3.16,1.76,3.27.94ZM79.58,184.4c-.15-.17-3.94,1.09-3.75,2.08l4.44,7.26c3.27-1.94,1.12-1.48.23-2.53-1.69-1.99-.98-4.48-.92-6.81ZM104.37,196.08c-1.88-3.64,1.09-6.55-1.19-9.79-1.04-1.48-2.83-2.12-2.47.11.29,1.77,1.37,2.48.75,5.15-.35,1.5-1.18,1.2-1.76,2.2l4.67,2.34ZM72.57,185.81c-.83-1.15-5.04.2-5.19,1.63-.26,2.46,1.98,3.78,2.29,5.72.11.67-.51,1.53-.19,2.02.25.38,2.67,1.27,3.08.69-4.48-1.64.32-9.6,0-10.05ZM105.77,185.33h-1.4s.94,2.34.94,2.34h.46s0-2.34,0-2.34ZM112.32,196.08c5.23-1.68,1.58-2.42.57-4.54-1.4-2.92-.47-7.21-5.72-6.21-.68,4.85,6.23,5.71,5.15,10.75ZM117.32,188.27c-.37-.45-4.71-2.73-5-2.46,1.5,1.56,1.67,6.44,3.6,6.95s2.6-3.04,1.41-4.49ZM72.72,194.55c1.13,1.39,4.89,1.34,5.4-.16,1.13-3.29-2.85-5.12-3.21-8.12-.53-.4-4.09,5.95-2.19,8.28ZM105.78,188.14c.31,2.04-1.16,4.66-.24,6.55,1.05,2.14,7.05,3.39,5.02-1.29l-4.78-5.26ZM94.55,191.42c-1.72-.25-3.6-.79-5.36-.45-.26.05-2.91,1.3-3,1.44-.75,1.16,2.06,5.45,2.99,6.49,1.03.26,5.08-6.17,5.37-7.48ZM121.2,191.88c-1.09-.3-.79.28-1.07.59-.74.84-4.91,4.95-4.98,5.31-.14.77,3.69,3.21,4.42,3.44.86.27.62-.16.69-.69.38-2.85.24-5.84.94-8.65ZM96.58,193.58c-.5-.42-.46-1.52-1.56-1.23.33,2.24-4.64,7.64-4.68,8.64-.03.81,4.99,8.69,5.83,8.69.95,0,6.81-6.3,6.72-7.19-2.11-3.47-3.16-6.27-6.32-8.9ZM65.56,195.62v7.72c0,.51.73,1.87.7,2.57,2.72-2.03,8.62-3.22,7.72-7.48l1.17,1.42,2.09-1.42c.21,1.15-1.36,2.03-1.31,2.95.04.71,3.06,7.63,4.11,6.86.81-2.12,7.29-5.56,7.51-7.73.16-1.56-2.54-4.82-2.36-6.76-.5-.47-4.56,3.17-5.59,3.52-4.48,1.54-9.98.65-14.04-1.65ZM136.46,216.84c-2.98-3.4-5.81-6.87-8.15-10.79l-5.7-11.36c-.82,5.76-.51,16.75,4.24,20.77,3.07,2.6,7.85,3.13,11.65,4.01-.69-.84-1.34-1.81-2.05-2.63ZM37.97,223.2c.33.37,3.53,1.02,4.31.84,7.71-1.82,19.02-15.35,21.19-22.79.46-1.59.47-3.92.68-5.62l-6.16,11.37c-4.6,6.35-11.98,9.79-18.11,14.16-.4.29-2.49,1.41-1.91,2.05ZM106.71,198.43c-2.04.32-3.74-.64-5.6-1.18,1.1.46,2.39,3.64,2.81,3.98.73.59,2.18-2.3,2.8-2.8ZM126.11,197.49v.47c.3-.16.3-.31,0-.47ZM120.27,203.57c-1.3-.03-2.9-1.12-3.89-1.95-1.5-1.24-2.03-3.05-3.81-3.23-.95-.1-4.12.33-4.91.75-.49.26-2.22,2.82-2.2,3.26.1,1.83,7.62,7.3,9.03,9.09,1.11.2,3.7-3.96,4.84-4.64-1.11,4.21-6.63,6.57.94,7.95v-11.22ZM129.15,202.63c-.14-1.64-1.7-2.88-2.57-4.2.32,1.04.93,2.28,1.44,3.25.33.63-.14,1.2,1.13.95ZM68.37,214.79c.55.48,8.25-4.36,8.67-5.15.49-.93-1.99-7-2.36-7-2.63,2.11-5.32,4.24-8.61,5.18l2.31,6.97ZM88.71,202.64c-.94,2.3-7.89,6.33-8.11,7.79-.13.86,3.79,6.3,4.89,7.1.68.14,8.45-5.67,8.56-6.32l-5.34-8.58ZM130.41,203.72c-.11-.1-1.07-.66-1.25-.39,3.16,4.62,7.35,11.97,11.91,15.2,2.5,1.77,6.82.03,5.63-1.88-.6-.95-6.27-3.9-7.69-4.94-3.47-2.57-5.67-5.38-8.6-8ZM44.52,225.55h6.78c.19,0,3.13-1.43,3.49-1.65,1.97-1.21,8.9-10.14,8.9-12.14v-7.72c-1.47,1.61-1.81,4.36-2.88,6.24-2.05,3.62-8.9,11.15-12.49,13.24-1.32.76-3,.81-3.81,2.04ZM108.4,209.36c-1.45-1.57-3.18-2.96-4.26-4.85-2.4,2.34-3.85,5.49-6.78,7.26-.26,1.07,6.61,7.44,7.73,8.62h.66c.28-1.65,6.25-5.4,6.55-6.35.43-1.41-1.73-2.13-2.57-2.97-.55-.55-.84-1.2-1.32-1.72ZM73.58,223.62c.82.48,9.09-3.96,9.24-4.45.4-1.38-3.91-5.5-3.71-7.64-.43-.32-7.5,5.74-9.34,5.15.63,1.04,3.2,6.59,3.82,6.95ZM67.43,216.19c.29-.29-.49-3.58-1.4-3.74v3.74s1.4,0,1.4,0ZM102.95,222.72c.31-.43-.14-1.2-.43-1.64-1.41-2.17-5.49-5.39-7.27-7.61l-8.17,6.28c-.1.57,7.19,8.42,7.76,8.53.95.19,5.39-4.11,6.55-5.02.42-.33,1.5-.47,1.55-.54ZM119.71,217.69c-.19-.29-5.14-2.32-5.76-3.28-1.06,1.56-7.44,6.11-7.17,7.56.31,1.65,10.47,8.33,12.71,7.81,1.2-.28.96-10.95.22-12.1ZM66.03,219.23c-.5,1.8.37,5.64,0,7.72,2.23.09,4.19-1.16,6.09-2.11-.87-.84-3.02-6.51-3.34-6.71-.73-.46-2.54.36-2.75,1.11ZM75.87,225.57c-.83,1.17,6.33,8.68,7.27,10.23,1.5-.8,9.28-4.73,9.52-5.87-1.14-1.24-6.95-8.31-7.8-8.54-1.99-.53-6.76,3.72-8.99,4.17ZM117.93,231.63c-5.29-1.08-8.95-5.47-13.32-8.27l-8.18,6.63c1.98,1.76,10.54,9.64,12.38,9.64.78,0,4.54-2.8,5.38-3.55,1.44-1.28,2.77-2.76,3.73-4.44ZM67.56,240.37c2.05,1.66,12.1-1.68,12.47-2.96.39-1.37-5.99-8.58-6.82-10.43l-6.64,2.39c.19,2.51-.96,9.43.99,11ZM84.73,237.24l.45,1.18c2.55,1.44,8.53,8.85,11.02,9.12,1.57.17,8.3-4.74,10.04-5.87.1-.4-2.93-3.01-3.52-3.49-2.63-2.18-5.46-4.24-8.14-6.36-.56-.14-8.18,5.44-9.85,5.42ZM120.27,232.56c-.83-.13-1.03-.02-1.61.49-1.06.92-2.28,3.22-3.51,4.44-1.36,1.35-3.23,2.45-4.68,3.73,2.75,2.51,6.43,4.15,10.04,4.92.57-4.55-.19-9.01-.23-13.57ZM82.81,239.14c-2.32.71-4.42,2-6.72,2.79-.98.33-5.39,1.04-5.38,1.62,3.53,3.75,6.85,8.01,11,11.01,4.21-1.08,7.99-3.34,11.9-5.17-3.87-3.06-8.18-6.01-10.8-10.25ZM98.76,248.93c2.3,2.06,10.07,6.77,12.86,6.59,1.54-.1,7.74-5.33,7.63-6.83-.07-1-4.5-2.12-5.63-2.7-1.21-.62-4.23-3.14-5.2-3.05-1.45.14-7.18,5.86-9.66,5.99ZM67.9,257.82c1.28-.2,10.77-.97,10.74-2.11-2.34-1.8-8.13-11.16-10.14-11.83-.63-.21-1.35-.09-2.01-.1-.43,4.82,1.32,9.22,1.4,14.03ZM120.73,249.4c-1.48-.13-1.54,1.74-2.33,2.57l-4.68,4.91,7.01,1.41c.32-3.09.32-5.8,0-8.88ZM109.05,257.35c-4.7-1.28-8.65-4.3-12.94-6.47-2.96,1.47-5.86,3.13-8.86,4.53-.99.46-3,.42-2.99,1.69,2.36,1.4,9.19,7.59,11.5,7.71,1.03.06,10.61-5.45,12.21-6.45.29-.18,1.31-.72,1.08-1.02ZM82.22,258.45c-1.66-1.07-4.69.68-6.73,1.11-1.43.3-7.28.13-6.99,2.23,2.66,1.59,8.05,8.89,10.51,9.49,1.56.38,13.69-3.79,13.66-4.82-2.32-1.56-4.73-3.04-6.97-4.71-1.09-.82-2.51-2.67-3.48-3.3ZM118.87,260.15l-7.96-1.69-12.14,8c1.78,1.26,5.96,3.78,8.06,3.43,1.54-.26,7.48-4.74,8.99-6.01.76-.64,3.83-2.9,3.05-3.73ZM109.51,271.37c1.56,0,5.89,2,7.03,1.21.77-.53,2.84-8.44,3.24-9.86l-10.28,8.65ZM66.49,264.36v20.34c0,2.95-3.21,10.75-4.76,13.48-3.86,6.79-9.84,2.28-15.34.55,3.86,2.96,5.75,5.69,11,5.4,4.76-.26,7.15-1.83,9.58-5.85,2.03-3.35,6.71-15.99,6.56-19.65-.13-3.12-5.55-9.93-5.99-13.67l-1.05-.6ZM71.83,267.44c-.49-.53-.78-1.22-1.37-1.67-.74,1.25,1.93,7.41,2.63,7.91.4.29,2.82-1.17,3.68-.9-1.51-1.89-3.32-3.56-4.95-5.33ZM103.9,271.85c-3.04-.53-5.41-2.34-8.1-3.63l-13.87,5.49,10.05,5.59c4.21-2.03,8.42-4.34,11.93-7.44ZM115.59,274.65c-3.18.59-5.9-1.51-9.01-1.33l-12.03,7.86c2.6.62,7.89,4.13,10.41,3.67.43-.08,6.7-4.25,7.36-4.83,1.71-1.49,2.84-3.1,3.27-5.38ZM119.8,280.02c-.2-2.17.14-4.58,0-6.78l-2.47,5.71c-.47,1.3-2.62,7.21-2.55,8.01.09.99,2.66,4.9,3.43,5.88,3.61,4.59,15.66,14.07,21.47,14.11,1.79,0,5.58-1.38,6.77-2.62.44-.46,2.79-5.76,2.83-6.53.03-.6,0-.96-.7-.7-1.19.44-3.76,3.44-5.91,4.38-2.38,1.05-4.88,1.56-7.46,1.01-8.7-1.83-14.67-14.47-15.4-22.47ZM88.47,280.26c-.09-.1-1.82-.62-2.48-1.03-1.16-.73-6.13-4.33-6.75-4.5-1.5-.43-3.32.7-4.8.86,1.16,1.38,4.15,7.46,5.47,7.86,1.61.49,6.21-1.46,7.9-2.21.42-.19,1.41-.19.65-.97ZM59.95,305.97c7.69,1.88,15.14-3.38,19-9.75.56-.92,2.58-5.06,2.42-5.8-.33-1.58-4.51-6.34-5.3-8.3-.55,1.12-.59,2.43-1.07,3.6-1.96,4.72-5.85,14.55-9.47,17.65l-5.58,2.59ZM101.56,286.34c-2.63.28-8.5-4.28-10.44-4.11-1.78.16-6.95,3.46-9.2,3.88l4.69,7.71c1.78-1.05,4.19-2.78,6.07-3.51,2.05-.8,3.99-.84,6.11-1.84.78-.37,2.25-1.4,2.78-2.12ZM108.11,286.33c3.75.54,3.51-.56,4.66-3.51-.78-.06-5.42,2.85-4.66,3.51ZM109.51,288.21c-3.21-.45-4.41-.49-7.34.84-3.35,1.52-6.21,3.44-10.3,3.73-.45.84-3.6,1.87-3.34,2.61.84,2.39,1.47,1.09,2.63,1.53,2.69,1.02,3.9,2.61,7.36,2.55,6.48-.12,9.41-5.77,10.99-11.26ZM114.65,289.14c-1.47-1.23-2.45,3.2-3.01,4.22-.88,1.6-2.16,2.82-3.05,4.43,2.4.86,4.18,3.45,6.09,4.66,2.91,1.83,9.87,5,13.23,6.41,5.28,2.23,16.68,6.52,18.08-1.95-4.54,3.26-8.92,2.84-13.71.39-6.24-3.2-13.87-9.81-17.1-16.11-.34-.66-.44-1.98-.53-2.05ZM52.47,306.45c-.18.95.43,1.12,1.13,1.44,2.67,1.2,13.36,4.9,15.94,5.1,7.25.58,12.57-7.31,14.61-13.44,1.34-4.03,1.32-4.69-2.21-7.6-1.66,8.79-10.06,17.07-19.41,16.36-1.83-.14-3.48-1.06-5.18-1.36-1.52-.26-3.27.19-4.87-.5ZM45.92,298.49c.32-.32-2.43-4.45-3.27-4.67-.48,1.06,2.5,5.45,3.27,4.67ZM149.5,295.69v.47c.3-.16.3-.31,0-.47ZM55.07,310.36c2.63,3.18,6.13,7.99,10.03,9.4,7.03,2.54,22.77-3.93,26.36-10.56,3.58-6.62.73-6.33-3.91-10.23-1.14,4.47-4.29,9.99-7.99,12.83-8.64,6.62-15.97,1.13-24.61-1.98-1.63.08,0,.4.12.56ZM105.31,305.04c-.43-.3-1.31-.68-1.79-.4-.46,1.06-1.49,2-.78,3.2,2.42,2.53,3.88,5.61,6.54,7.97,5.71,5.06,16.35,9.08,23.72,5.93l3.64-2.2c-5.36-.02-11.25-.63-16.21-2.73s-11.2-7.22-14.65-11.31c6.34,3.73,11.76,9.34,19.17,10.99,2.53.56,9.57,1.58,11.91,1.14.95-.18,4.79-3.06,3.99-3.71-4.99.09-9.71-1.84-14.19-3.81s-10.35-5.04-14.08-7.89c-.89-.68-2.64-3.01-3.38-3.21-1.31-.35-4.95,4.22-3.88,6.03ZM101.56,301.77l-4.67.46c1.93.56,3.83,2.71,4.67-.46ZM66.96,322.8c6.52,1.9,12.38,3,18.71-.22,4.98-2.53,19.46-15.69,8.41-18.48.24,9.08-9.08,13.51-16.11,16.86l-11.01,1.84ZM51.76,305.98v.47c.3-.16.3-.31,0-.47ZM48.72,306.45c-.64-.07-1.15-.18-.9.67.22.74,2.63,4.36,3.26,5.16,2.22,2.79,5.46,5.28,8.4,7.26l-10.76-13.09ZM142.24,313.46c-.66-.34-1.25.3-.93.46.66.34,1.25-.3.93-.46Z"/>
  <path d="M105.77,305.51c-.2-.11-.35-.27-.47-.47.2.14.32.29.47.47Z"/>
  <path d="M81.46,136.7c-.42,2.08-.56,4.11-1.4,6.07,9.23-2.37,7.86,8.79,0,7.96.38,1.16,2.7,2.41,3.06,3.29.97,2.36-1.45,1.88-2.92,1.01-7.36-4.37-4.1-11.84-.22-17.24.42-.58.49-1.3,1.48-1.08Z"/>
</svg>