<?xml version="1.0" encoding="UTF-8"?>
<svg id="Layer_1" xmlns="http://www.w3.org/2000/svg" version="1.1" viewBox="0 0 261.4 252.12">
  <!-- Generator: Adobe Illustrator 29.1.0, SVG Export Plug-In . SVG Version: 2.1.0 Build 142)  -->
  <defs>
    <style>
      .st0 {
        fill: #a10000;
      }
    </style>
  </defs>
  <path class="st0" d="M94.72,51.25c-.16-.15-.33-.29-.47-.47.14.03.35.45.47.47Z"/>
  <path class="st0" d="M111.09,82.11s-.66.12-.94.47c-1.16.61-1.32.72-2.34,1.4-7.51,1.44-10.37.86-16.83-2.81-.59-.33-1.3-.4-1.4-.47-.08-.05-.37-.35-.47-.47-.06-.07-.29-.64-.47-.94-.08-.13.15-.66-.06-.87s-.67,0-.87-.06c-2.09-3.85-2.23-5.81-.33-9.92,3.21-6.94,8.85-6.65,15.48-4.99,5.88,1.47,11.37,6.15,10.53,12.77-.11.88-1.83,5.1-2.3,5.89ZM91.86,76.44c.35-.22,1.28-5.25,3.55-7.44.8-.78,5.21-2.9,3.54-3.97-2.99-1.92-8.84,3.43-9.34,6.59-.25,1.58-.21,6.39,2.25,4.82ZM105.01,66.68c-5.31,1.06-10.1,6.6-9.82,12.16.96.12,1.67-.09,2.51-.53,1.95-1.03,9.03-9.81,7.31-11.63ZM101.27,81.18c4.96,1.05,8.89-4.2,8.74-8.75-.05-1.47-1.68-2.85-2.18-1.7-.37.84-.31,1.79-1.04,3.11-1.61,2.93-4.83,4.32-5.52,7.34Z"/>
  <path class="st0" d="M96.59,43.3c1.82-1.56,1.9-6.79,4.01-9.32.51-.6,3.18-2.92,3.81-3.3s2.71-.76,2.87-1.01c.58-.92-.76-1.87,1.61-3.29,1.88-1.13,4.88-1.5,6.05.68.39.73,1.13,5.96,2.69,4.55-.6-2.17-2.23-4.67-1.16-7.01.19-.42,5.11-4.39,5.88-4.87,4.07-2.55,8.91-3.23,13.55-1.94,2.07.57,3.57,2.66,6.05,2.14-1.24,3.37-2.67,6.08-1.4,9.82l.59-5.03,1.74-1.51.47,1.87.5-5.12c7.07-2.17,12.63,3.4,11.06,10.36-1.11,4.91-6.22,8.3-6.31,13.32-.02,1.06,1.33,1.27.53,3.81-.6,1.9-2.38,2.45-3.16,3.85-.27.48-2.1,5.4-2.06,5.7.52,3.49,4.33,2.69,6.89,3.9,2.21,1.05,4.04,3.61,4.91,5.85.33.86,1.03,4.92,1.22,5.1.07.07,1.04-.55,1.97-.4,1.05.17,7.49,3.87,8.05,4.62s.55,2.49.8,2.71c.38.33,2.12-.08,3.21,1.23,1.69,2.05-.13,4.67.02,4.88.27.37,1.92.16,1.89,2.15-.04,2.12-1.07,2.22-2.38,2.57-.14-1.25,1.51-.66.88-2.51-.77-2.25-2.37.47-3.14.95s-2.85,1.38-3.71,1.47c-2.03.23-5.59-2.64-4.79,1.72.55,3.04,2.32-.03,2.65-.15,1.71-.64,5.89-.89,8.12-1.48.1.84.77,1.36.91,2.13.78,4.38-2.54,4.68-6.05,4.42l-6.55,56.11c4.62-.28,8.93,1.62,13.09,3.27-.36-2.96.32-5.82.51-8.64.28-4.15.29-8.35.59-12.57.1-1.4.8-4.52,2.08-2.31,1.36,2.36-.63,4.35.99,6.49l1.44,7.67,3.29-38.56c-1.96-.25-2.22-1.96-2.25-3.76-.08-4.79.91-16.38,2.57-20.71,1.57-4.08,3.66-2.58,4.81-4.3-.54-.19-1.48.28-1.82-.77-.69-2.11,1.2-5.24,3.69-4.37.28,1.9-.86,3.63-1.87,5.14.78.27,1.47.22,1.78,1.26.37,1.25.19,5.82.08,7.38-.63,9.16-3.28,15.56-6.02,23.91l-3.32,44.13,4.43-19.64c2.03-6.04,3.33-12.65,5.12-18.26.26-.81,1.92-5.82,2.18-6,.59-.4,2.42,0,2.28,1.08-1.54,6.67-3.85,13.17-5.46,19.82-4.94,20.39-7.42,41.85-4.81,62.76.38-.07,1.27.1,1.39,0,.19-.16,1.07-4.26,1.17-4.88.46-3.09-.23-5.59-.07-8.24,1.24-19.8,6.31-39.83,12.35-58.31.57-1.75,2.06-4.66,2.27-6.19.23-1.72-.6-3.18-.15-5.25.89-4.11,9.15-15.72,12.55-18.28,3.78-2.85,5.95-1.24,4.23,3.27-1.32,3.46-7.1,12.82-9.51,15.76-1.37,1.67-4.27,3.26-5.17,4.63-1.19,1.79-3.32,8.42-4.12,10.85-5.05,15.28-9.57,34.96-10.73,50.99-.04.56-.39,2.56.46,2.56.79-4.23,1.35-8.57,2.48-12.72,1.89-6.94,9.78-29.81,14.17-34.46.56-.6,1.74-1.72,2.05-.25.4,1.94-7.43,17.25-7.5,20.76-2.25.44-1.09-.82-.74-2.39.1-.46.73-1.44-.15-1.32-5.45,13.48-9.35,27.64-11.23,42.08l7.01-.46c-.08.68-2.03.79-2.63.87-.84.12-1.68.06-2.51.06l1.13.9c2.79-.32,6.17-.8,8.93-.9,12.56-.46,25.87.35,38.29-.99.92-.1,5.35-1.11,2.88-1.83-1.02-.3-2.84-.67-3.89-.79-2-.23-5.46-.59-7.38-.62s-2.73,1.6-4.18,1.46c-1.24-.13-.99-1.65-2.34-1.9-5.35-1.02-14.3.59-20.13.49-2.97-.05-6.77-.66-9.79-.96-1.35.13-2.26,3.31-4.45,2.81,2.55-12,4.35-24.39,9.59-35.53l.7.69c-2.28,8.15-6.34,16.76-7.01,25.27-.04.51-.35,1.74.45,1.62,2.23-6.85,5.84-14.24,10.1-20.06,2.75-3.76,5.79-6.42,9.09-9.61.37-.36,6.29-7.68,7-4.21.25,1.22-5.01,7.5-6,8.95-6.04,8.87-11.56,18.11-17.85,26.8,9.67-1.08,19.49-1.87,29.25-1.42,5.85.27,20.66,1.49,25.49,3.97s4.64,7.01-.62,8.79c-4.16,1.41-9.39.35-13.67.45-33.2.76-66.4,2.9-99.55-.15-.9-.08-2.08-.39-2.87-.87.68,1.22,1.52,2.59,2.38,3.69,4.41,5.63,9.09,11.3,14.03,16.41,6.67-.17,11.54-10.29,18.1-8.79,1.2.27,2.08,1.22,2.15,2.47.15,2.72-3.34,1.8-5.07,2.36-.91.3-4.45,2.56-5.65,3.26-.61.36-1.18-.08-.92,1.16,5.42.07,11.29-4.24,16.7-4.06,3.74.13,5.92,6.3,1.29,6.43-1.43.04-2.23-.7-3.99-.31-2.23.5-5.57,2.84-7.92,3.56-.01.79,1.53.91,2.04.89,2.86-.14,5.72-2.17,8.84-1.26,1.84.53,2.44,3.07.79,4.33-.42.32-7.99,2.17-9.26,2.43-11.56,2.4-16.21,1.99-26.59-3.51s-22.5-16.34-28.78-25.92c-.64-.98-2.36-5.52-2.68-5.74-.99-.67-4.43.05-5.81-.24-4.05,7.18-6.02,14.65-4.49,22.94,3.47.29,7.24,1.19,10.52,2.34,4.74,1.65,5.96,3.14,11.14,3.92,6.62.99,4.11,6.28.13,5.89-4.37-.43-9.75-5.11-14.31-5.58l4.79,3.84c2.31.78,4.16,2.59,6.44,3.4,2.07.74,3.38-.06,4.92,1.63,2.56,2.82.38,7.56-3.88,5.74-1.52-.65-1.85-2.37-2.95-3.12-1.41-.97-10.11-5.48-11.71-6.06-1.41-.51-3.14-.73-4.63-.74,1.02,1.51,2.82,2.87,4.34,3.84,1.66,1.05,5.95,2.5,6.54,3.75.98,2.08-.41,4.93-2.69,5.07-4.07.25-3.63-2.88-5.68-4.66s-9.55-3.97-12.58-5.65c-5.66-3.14-6.94-5.15-7.55-11.62-.84-8.87,1.02-21.34,3.33-30.05.38-1.42,1.65-2.45,1.2-4.18-1.66.81-2.86.03-4.42-.02-12.79-.45-34.44.54-45.99-3.11-10.75-3.4-13.14-11.81-5.48-20.25,9.17-10.1,26.73-9.33,39.3-10.26,6.92-.52,13.86-1.31,20.79-1.42.6-.56-4.03-10.16-4.38-11.75-2.25-10.26-1.64-22.04.29-32.32.12-.65.86-1.35.75-1.92-.08-.44-3.91-4.6-4.53-5.75-2.31-4.27,1.3-6.65,3.07-10.34.53-1.11,2.72-6.17,2.86-7.01.2-1.28-1.99-4.7-2.1-6.96-.23-5,4.41-14.62,10.59-13.73l-3.7-1.67c-4.68-3.18,1.61-11.49,4.48-14.17.43-.4,1.41-.39,1.56-.52.26,3.62,3.65,5.27,7.01,4.67l-3.7-1.2-3.31-3.47ZM126.05,29.74c-3.22-2.21-2.72-5.99-3.03-9.35-2.22,3.4-1.47,9.29,1.41,12.15l-.7-3.26c.98,0,1.31,2.68,1.43,2.78,1.06.86,1.78-.63,1.37-1.85l1.39.24-2.33-7.25c-.83-.11-.46,1.06-.41,1.57.18,1.64.95,3.27.88,4.97ZM134.18,29.13l-2.51-6.87c-.29,2.59.84,4.89,2.08,7.03.45.78,2.26.78.43-.16ZM129.98,29.12c-.41-.83-.84-1.6-1.01-2.53l-.57-3.86c-.31,1.53-.31,3.77.1,5.27.26.95,2.33,4.23,2.24,1.97-.04-.94-.6-.55-.75-.86ZM147.56,31.61c-.07-.05.26-.35.16-.92,0-.03-.64-.04-.62-.22.1-.9,2.91-5.72,2.33-6.33-1-.22-1.06.51-1.48,1.09-.99,1.35-5.38,7.04-1.33,4.05-.7,2.46.86,2.21.94,2.34.54.87-.67,2.75,2.8.47.52.56-1.66,2.52-1.86,3.05-.33.86.75.89.92.69.06-.06.05-1.08.44-1.65.36-.52,2.27-2.66,1.9-3.03l-2.34.46c.85-.63,1.27-3.54,0-2.33-.12.11-.73,3.19-1.88,2.34ZM142.89,29.27l-.47-3.74v4.67s1.39-1.18,1.39-1.18l-.92.25ZM130.72,27.87v-1.87h-.46v1.87h.46ZM113.42,26.94c-1.78-.08-4.89,0-5.14,2.33.76.65,6.22-1.43,5.14-2.33ZM144.06,27.87v.47c.3-.16.3-.31,0-.47ZM112.96,31.61c-.11-.88.57-2.19-.93-1.87v3.74c1,.09-.03-1.63.93-1.87.21,1.66,1.42,1.11,2.57,2.35,1.62,1.74-.33,1.47-1.38,2.81-.9,1.15-1.35,3.11-2.19,4.36-1,1.5-2.76,1.51-2.79,4.27-.01,1.13,1.58,5.97-1.09,3.48-.31-.29,0-1.2-.96-.89-1.25,1.5-3.34,2.91-4.46,4.43-.93,1.26-1.89,4.1-3.05,5.36-.73.79-1.9.57-2.08,1.42,3.66-.01,10.36,1.43,13.21,3.73.82.66,1.64,2.53,2.38,3.13,1.82,1.47,6.09,1.9,8.47,2.05,3.09.19,21.66.06,22.96-1.87s-2.23-7.59-2.16-9.62c.06-1.67,2.51-6.24,3.22-8.05.62-3.03-6.17-2.41-7.89-1.76l-10.74,4.22c.49-2.25,4.55-3.9,6.56-4.66,3.7-1.39,9.62-2.99,12.86-.26.58.49.43,1.45,1.15,1.41.61-1.98-1.13-3.4-2.83-3.95-3.33-1.08-11.07.42-14.16,2.15-2.28,1.27-9.45,8.41-10.34,10.7-.49,1.24.2,3.26-1.02,3.66-.43.14-2.24.21-2.46.02-.38-.33-.2-5.99-.06-6.74.09-.5,5.46-7.16,6.25-8.01,3.48-3.78,14.14-11.61,19.17-11.35,1.8.09,6.66,2.75,4.55-.3-.84-1.22-7.44-3.25-9.11-2.98-1.95.32-2.09,1.78-2.38,1.86-1.41.39-.85-.99-1.79-.95-2.67.12-4.97,1.79-7.31,2.81-.19.92,4,.58,2.8,1.86-.25.26-2.46.54-3.03.51-1.78-.12-2.96-1.47-4.54-2.04-2.29-.83-4-.49-6.35-1.61-1.15-.55-.66-1.85-1.98-1.53ZM112.41,34.76c-.14.09-3.08.5-3.35.45-1.27-.2-3.53-3.72-4.04-3.14.46,4.78,8.16,9.49,7.94,1.87-.76-.2-.29.65-.55.81ZM116.23,33.01c.34-.66-.3-1.25-.46-.93-.34.66.3,1.25.46.93ZM119.04,32.55l-1.39-.24c.48.71,1.47,1.16,1.39.24ZM147.09,38.16c.2-.95-.44-1.09-1.07-1.5-4.69-3.01-12.61,1.71-16.22,5.01,5.66-1.67,11.24-7.54,17.29-3.51ZM105.94,41.44c-.06-.07-1.76-.58-1.87-.47-.55.56.93,1.85,1.87,1.4-.03-.29.07-.84,0-.93ZM101.03,41.43v.47c.3-.16.3-.31,0-.47ZM128.86,43.3c.05-.05.32-1.14.24-1.39-2.12.59-.91,2.06-.24,1.39ZM105.95,43.77c-1.86.1-3.3.27-4.45-1.4l2.57,3.03c-.64.56-2.41-.22-3.05-.69-.85-.63-.81-1.67-1.62-1.88.55,3.03,4.03,4.29,6.54,2.56,1.33-.92-1.16-.35,0-1.63ZM127.23,43.31l-2.1,2.1.22.22,2.1-2.1-.22-.22ZM94.25,50.78c-.42-.08-.95.04-1.4,0,.55,1.86,1.99,2.38,3.51,3.26.52-.3-.53-.85,0-.93,1.09-.17,1.34-.08,2.57-.46s3.2-.31,3.27-2.34c-1.21.19-1.89,1.05-3.24,1.19-.87.1-2.3-.18-3.3-.26-.59-.94-.5-1.72-2.11-2.33-.14.42.47,1.54.71,1.86ZM121.61,49.39l-.7.7c0,.49,1.17-.28.7-.7ZM120.44,52.18c.05-.05.32-1.14.24-1.39-2.12.59-.91,2.06-.24,1.39ZM119.04,53.12c-1.3-.19-.87.22-.93,1.16-.1,1.47.06,2.98,0,4.45l.93-5.61ZM97.29,54.06v.47c.3-.16.3-.31,0-.47ZM98,55.46l-4.2.69c.66.91,1.57.78,2.53.68,2.02-.2,1.57-1.31,1.68-1.37.24-.13,1.25.15,1.4,0,.86-.87-1.65-1.78-1.4,0ZM152.41,64.64c-.28-.35-.24-1.02-.65-1.43-1.36-1.35-4.12-2.3-6.06-2.14.66,3.55.45,7.15.47,10.75,1.9.31.62-3.26.64-4.36.01-.63.28-4.98.53-4.99,5.16,1.1,5.98,4.03,6.79,8.65.14.78-.29.8.92.7.12-2.16-.39-4.4-1.47-6.26-.25-.43-.87-.57-1.16-.92ZM111.09,82.11c3.59-1.82,4.2-6.84,3.22-10.47-2.27-8.43-14.86-11.89-22.4-9.41-3.93,1.29-6.51,6.82-6.57,10.76-.03,2.15.35,4.71,2.37,5.39.76,1.4.84.81.94.94.13.17.12.64.47.94.16.14.31.32.47.47.59.55,1.33.41,1.4.47s.11,1.01.94,1.62c4.89,3.61,10.76,4.62,15.89,1.18.61-.12,1.54-.06,2.05-.43.47-.33.22-.89.29-.98.3-.16.63-.31.94-.47ZM151.77,71.82c.09-1.2-.16-2.74-1.4-3.27v3.28s1.4,0,1.4,0ZM162.99,75.1c-1.68-.32-3.22-2.28-4.91-2.38-3.22-.21-7.15.54-10.27.53-2.57-.01-5.2-.5-7.48-.51-6.32-.04-12.64.06-18.96.02l3.55,2.29c12.01.75,24.3.95,36.43.51.57-.02,1.74.35,1.63-.46ZM121.84,74.63c-1.01-.16-1.15.39-1.38,1.19-1.91,6.6-1.72,14.08-3.3,20.78,1.33.22.78-.28,1-1.08,1.78-6.54,2.5-14.2,3.67-20.89ZM129.79,76.5c-1.11.81-2.94-.06-3.47.05-1.21.26-.62,4-.79,5.26-.46,3.38-1.63,6.68-1.81,10.11.62-1.13,3.04-1.32,3.32-1.69,1.42-1.89,1.58-10.99,2.75-13.74ZM161.59,76.97l-30.56-.02c-.5,2.68-.21,5.37-1.23,7.97,1.85.39,3.68-.46,5.38-.51,3.71-.1,7.45.07,11.2.02,1.86-.02,14.46.7,14.77-.76l.45-6.71ZM166.27,76.97c-.68.12-3.02-.2-3.25.03s-.74,5.79-.47,6.03c.25.23,2.48-.42,2.33,1.42,1.59-1.48.95-5.28,1.4-7.48ZM169.93,80.79c-.04-.06-1.26-.59-1.31-.55-.23.18-1.61,5.34-1.94,5.55-.22.14-3.1.18-3.21.07-.33-.35.7-2.04-.7-1.88-.52.06-1.63.5-1.88.93-1.7,2.83,4.58,3.47,6.67,2.04,1.24-.84,3.24-4.87,2.38-6.16ZM101.74,87.73c-5.98.5-9.88-3.59-14.49-6.55-.91,2.16-1.85,4.63-2.88,6.71-.97,1.96-4.13,6.57-3.59,8.38.39,1.33,4,4.35,4.84,5.94,6.47,4.89,14,7.36,22.15,6.51.32-2.42,1.93-4.65,1.44-7.19-.35-1.82-4.85-5.51-6.8-5.83s-7.95,1.15-8.62-.27l5.39-3.96c1.21-.99,1.96-2.33,2.56-3.75ZM153.64,86.32c-4.14-.49-5.22-1.13-4.68,3.74.74-.12,4.06.16,4.21,0,.13-.14-.03-3.01.47-3.74ZM160.19,85.86c-4.07-.06-3.74,1.25-3.27,4.68h1.4s.48-3.74.48-3.74c.39-.52.59,1.97,1.39.93.14-.18-.08-1.4,0-1.87ZM132.6,86.32c-.11-.12-3.16-.11-3.27,0s-.08,2.64-.47,3.27c2.23.79,1.02-1.87,1.64-1.87.24,3.61,1.25,1.11,2.34,1.11.3,0,1.63,1.26,2.1.77.14-.15-.26-2.24.93-2.34-.05,4.03,1.7,1.58,2.58,1.57.41,0,1.24,1.13,2.1.77-.1-.63.16-3.12,0-3.27-.9-.86-2.4.38-2.1,1.88-.56,0-.03-1.67-.23-1.88-.18-.19-4.97-.19-5.15,0-.2.21.33,1.88-.23,1.88-.58-.22-.03-1.67-.23-1.88ZM148.5,86.32h-7.01v3.28c2.64.68.24-1.98,2.34-1.88-.12.7.05,2.61,1.16,2.34s.27-2.97,1.64-3.27c-.39,5.73,1.53,3.17,1.88-.47ZM156.45,86.33h-2.34c-.5,5.65,1.59,4.78,2.34,0ZM132.13,91h-3.27c.17,2.17,1.03,3.29,3.27,2.81v-2.81ZM135.87,91h-3.27c.76.84-.14,2.32.2,2.82.38.55,2.45.61,2.61.45.11-.12.07-2.64.47-3.27ZM147.56,91h-11.22v3.28c.58-.1,1.97.21,2.29-.05.29-.24,0-2.29.98-2.28-.2,1.86-.19,2.72,1.87,2.8.19-.2-.19-2.75.93-2.8-.2,1.86-.19,2.72,1.87,2.8l.93-3.27c.26,1.78-1.34,3.15,1.16,3.29,2.19.12.86-1.87,1.18-3.76ZM158.78,91c-2.44.28-4.58.9-7.01,0,.09,1.79-.78,4.57,1.86,4.2l.23-3.27.71,3.27c.41-.07,1.11.12,1.36-.03.59-.36.06-3.07.97-3.24.07,1.11-.35,3.99,1.41,3.74l.47-4.67ZM150.84,91.46h-2.81c.74,2.49-.43,3.82,2.81,3.28v-3.28ZM170.01,91.94c-.7-1.02-3.52.25-4.48.43-.87.16-1.84-.12-2.67.05-.15.03-2.34,1.73-2.44,1.85-.78.99-1.24,3.27.38,3.21,1.93-.07,1.14-2.23,1.25-3.67,1.22-.38,1.14,1.36,1.71,1.44,1.11.14,7.57-1.35,6.24-3.3ZM126.99,91.94c-3.44-.26-4.03,3.42-7.06,4.86-1.63.77-7.3,1.53-7.4,3.76-.02.49.6,1.47.43,1.67-.98,1.12-1.36-3.25-2.8-1.87-.18.17.06,3.93-.04,4.87-.13,1.2-1.04,2.25-.88,3.52.43.59,7.17,1.59,8.51,2.02,1.66.54,4.86,2.63,6.77,3.05,2.37.52,5.1-.13,6.91.07,1.34.15.92,2.2,2.12,1.22.83-.68,1.11-1.9-.03-2.37-.95-.39-1.66.3-2.45.16-1.98-.36-10.53-2.22-6.18-4.58,2.46.48,5.29-.96,7.52-.96s5.39,2.97,4.87-1.84c-2.87.69-10.87,1.99-13.24.5-.38-.24-.84-1.27-.77-1.64.16-.85,6.67-1.3,7.76-2.46l3.91.33c.22-3.64-5.32-.76-7.77-.53s-10.87.03-6.22-3.42c2.41-1.79,6.18-2.08,6.04-6.34ZM132.13,95.2c-2.81-.52-1.71,1.06-1.87,3.28,2.81.52,1.71-1.06,1.87-3.28ZM129.32,95.67h-1.4v2.81h1.4v-2.81ZM140.55,95.67h-7.48v3.28c1.95.96.98-1.91,2.1-1.41.51.23.04,1.13.28,1.34.14.12,1.76.13,1.82.07.29-.28-.59-2.73.47-2.81-.39,5.06,3.67,4.24,2.81-.47ZM145.64,96.2c-.29-.47-3.86-.26-4.62-.53.01,1.74-.61,4.09,1.87,3.74l.47-2.8v2.81s2.35,0,2.35,0c-.15-.81.27-2.69-.06-3.22ZM151.3,99.88c.69-4.71-1.44-3.76-5.14-3.74.62,2.52-.46,4.4,2.8,3.73-.59-1.08-.62-2.32.23-3.27.75,2.04-.93,3.84,2.1,3.28ZM154.11,96.61c-.07-.06-1.8-.06-1.86,0-.39.37-.17,5.1,1.87,3.51-.12-.66.16-3.35,0-3.51ZM156.91,96.61h-1.87s0,3.74,0,3.74h1.4s.47-3.74.47-3.74ZM159.72,100.82c.11-1.75.1-4.5-2.33-4.21.04,2.22-.78,4.68,2.33,4.21ZM126.52,97.08c-1.6.54-6.83,2.83-3.06,3.29,3.28.4,2.58-.41,3.06-3.29ZM155.98,160.67l7.94-63.6c-.67.6-2.05,1.29-2.54,1.9-.99,1.22-1.4,9.95-1.72,12.31-2.27,16.44-4.93,32.88-6.49,49.39.58-.09,2.68.14,2.81,0ZM146.62,100.35c-2.31.74-5.25.57-7.71.47-.56-.02-1.96-.6-2.1-.47-.11.11-.21,1.88-1.3,2.81-2.07,1.77-3.03.2-5,.46l-.25,1.41c1.18.57.87-1.04,1.16-.94.55.21.87.86,1.86.88,2.39.06,4.8-1.04,4.7-3.69l.23,2.81h2.34s.46-2.81.46-2.81c-.34,4.33.41,2.5,3.08,2.39.15,0,.62,1.64,2.54.88v-4.21ZM149.43,101.29h-2.34c-.7,4.89,2.35,4.49,2.34,0ZM154.57,101.29h-4.68c.02,1.73-.6,4.09,1.87,3.74.35-.35-.8-2.85.94-2.33-.33,1.48-.38,2.76,1.4,2.34l.47-3.74ZM157.38,101.76h-2.34s1.18,3.73,1.18,3.73l1.16-3.73ZM159.25,101.75c-1.79-.37-.62,2.71-.93,3.74,1.79.37.62-2.71.93-3.74ZM129.79,104.1l-2.8.47v.46c1.02.03,2.44.26,2.8-.93ZM140.08,105.49h-1.4s-.47,3.27-.47,3.27h1.87s0-3.27,0-3.27ZM142.42,105.96h-1.4v2.81h1.4v-2.81ZM153.17,106.43l-9.82-.47v3.28c.61-.11,2.57.19,2.79-.02.24-.23-.17-2.72.95-2.78v3.27c3.64.62,1.84-1.25,2.34-1.88,1.03-1.3.75,1.69.97,1.84,3.48.64,1.7-.86,2.77-3.23ZM158.78,106.43c-3.25.15-2.28,1.52-2.33,4.21,2.68.74,2.07-2.15,2.33-4.21ZM155.51,106.9c-.12-.12-1.41.07-1.87,0-.62,7.06,3.07,1.18,1.87,0ZM133.06,109.24l-6.54.93c1.27.12,4.8,1.18,5.77.9.78-.22,1.03-1.58.77-1.83ZM137.28,109.7c-.69.11-3.59-.16-3.75,0-1.15,1.19,1.55,1.75,1.89,2.1.8.84-.17,2.08,1.86,1.64v-3.75ZM152.24,111.11l-14.5-.94v3.74c.58-.1,2.04.2,2.31-.05.07-.07-.03-2.57.96-1.35.11.13-.19,1.06.06,1.32.11.1,2.68.58,2.92.52,1.45-.4.1-2.86,1.22-3.23-.33,3.04.27,3.6,3.28,3.27l.46-2.81v3.27c3.96.56,2.38-.74,3.28-3.74ZM154.57,111.57c-2.05-.39-2.09.37-2.14,2.34-.01.54-.3,1.08.51,1.4,1.84.71,1.67-2.71,1.63-3.74ZM157.85,111.57h-2.34s0,4.21,0,4.21c2.86.65,2.29-2.17,2.34-4.21ZM115.76,112.04c-1.18-.28-1,.54-1.17,1.38-1.11,5.68-1.4,11.83-2.11,17.56-1.09,8.8-2.32,17.6-3.27,26.42,1.18.41,1.26-1.42,1.35-2.15,1.53-12.88,3.32-25.56,5.17-38.33.16-1.08-.39-3.53.03-4.88ZM86.31,140.1c4.13,12.12,10.07,21.5,14.59,32.88,3.82,9.6,5.71,20.18,12.15,28.56,7.76,10.09,18.97,20.26,30.93,25.16,10.4,4.26,17.14,1.54,27.66-.57,1.72-.34,1.83-2.15.88-2.36-1.83-.41-12.82,4.12-12.35-.66.16-1.62,9.75-5.98,11.48-5.89,1.33.07,2.12,1.21,3.51.5-1.26-6.11-9.82-.76-13.54.26s-9.85,2.5-13.3,1.1c-5.16-2.08-20.65-23.67-24.04-29.27-.62-1.03-.87-2.17-1.49-3.19-.37-.29-2.21,1.43-3.15,1.55-5.12.68-8.77-5.79-9.01-10.19,2.47.06,8.01.59,9.98-.9,2.39-1.81-2.55-16.83-3.98-17.73-1.27-.8-7.9,1.1-8.73-1.32l1.37-13.48c-3.97-5.56-4.06-13.25-4.27-20.09-.06-2.03.05-3.87.48-5.85-2.54-.26-20.57-5.89-21.29-4.71-.15.25-.63,5-.68,5.87-.36,6.41.89,14.72,2.8,20.34.14-1.59-.81-7.22,2.03-6.01,1.87.8.69,5.61.27,5.96-.31.26-1.72-.06-2.29.05ZM123.71,114.85l-3.46-.97c-.4.06-.56.96-.62,1.31-2.31,13.97-2.34,28.33-5.27,42.21l3.29-.76,6.06-41.78ZM126.05,115.32h-.93v1.87h.93v-1.87ZM131.19,115.31c-.12-.14-1.51.47-2.09.48-1.7.03-2.98-1.53-2.08,1.83,1.97-1.12,4.37,1.52,5.58-.43-1.58.17-1.25-1.7-1.41-1.88ZM136.34,115.32c-.96-.71-3.83,2.32-3.27,2.8,3.51.33,2.44.04,3.27-2.8ZM139.15,115.31c-.52.09-2.19-.14-2.33,0-.1.11-.39,2.84-.03,3.05,2.7,1.54,2.58-.95,2.37-3.06ZM146.16,119.52c.15-.15.24-4.04,0-4.21-.59.48-1.82.28-2.25.56-.46.29-.21,3.52-.08,3.65.08.08,2.25.09,2.33,0ZM142.89,115.78h-2.81v3.28h2.81v-3.28ZM150.37,116.25h-3.27c-.03,3.34-.82,3.87,2.81,4.21l.47-4.21ZM153.64,116.72h-2.81c.12.73-.16,4.05,0,4.21.07.06,1.77.04,1.84-.03.16-.15.54-3.56.96-4.18ZM157.38,117.19h-3.27c-.04,2.89-.77,4.4,2.81,4.21l.47-4.21ZM112.02,119.99l-5.14-.94c.08,2.41-.12,4.85-.02,7.27.11,2.8.6,10.86,1.39,13.11.23.66.69,1.15,1.21,1.6l2.57-21.04ZM125.11,121.86v-2.8h-.46v2.8h.46ZM128.39,119.06h-2.34c.09.57-.14,2.66,0,2.8.07.06,1.79.06,1.86,0,.1-.1-.1-2.2.48-2.8ZM131.13,119.59c-.16-.26-2.11-.7-2.27-.54v3.27s2.34,0,2.34,0c-.12-.74.25-2.2-.07-2.74ZM134.94,119.52c-.13-.14-2.23.1-2.81,0v3.28c.66-.05,1.41.13,2.03,0,.5-.1-.01-1.39,1.24-.94-.42,1.98.96,1.17,2.34,1.87-.15-.79.27-3.3-.06-3.68-.08-.09-2.2-.61-2.27-.53-.24.27.51,1.98-.47,1.87-.09-.45.13-1.74,0-1.87ZM140.55,120.46h-2.34s0,3.27,0,3.27c.88.29,1.91-.5,2.54-.49.25,0,.19,1.47,1.43.95,1.15-.48,1.48-5-1.16-3.74.44,3.5-1.68,3.24-.47,0ZM146.16,120.93h-2.34c.03,2.02-.72,3.7,1.87,3.74l.47-3.74ZM151.77,125.13c.82-4-2.14-3.44-5.14-3.74.1.63-.15,3.14,0,3.28.19.18,4.36.09,5.14.47ZM154.58,122.33h-1.87s0,3.27,0,3.27h1.4s.47-3.27.47-3.27ZM156.44,122.32h-1.4c-.22.2.24,3.09-.06,3.92-.33.91-1.54.59-1.75.82-.17.19-.18,2.5-.01,2.69.09.11,2.64.63,2.75.52.42-1.35-.37-2.95-.41-4,0-.22.8-.15.88-.51.23-1-.12-2.36,0-3.44ZM125.11,123.26c-.9-1.04-2.9,3.67,0,2.81v-2.81ZM127.92,123.27h-2.34c-.21.21.26,3.1.5,3.25,1.75,1.08,1.39-2,1.84-3.25ZM130.73,123.73h-2.34c.3,1.41.44,4.1,2.34,3.04v-3.04ZM134,124.2h-2.34s0,2.81,0,2.81c2.32.32,2.54-.75,2.34-2.81ZM136.34,124.66c-3.6-1.05-1.32,4.09,0,2.81.14-.14-.08-2.23,0-2.81ZM141.46,127.92c.09-.09.48-2.31.05-2.56l-4.24-.22c-.61,1.9,1.52,4.56,1.41,1.4.59.6,1.82,2.29,2.78,1.38ZM144.76,125.61c-3.25-.81-3.45,2.39-.47,2.8l.47-2.8ZM147.09,126.07c-1.48-1.49-2.96,3.49,0,2.81-.08-.58.14-2.66,0-2.81ZM149.43,126.54c-1.97-.09-1.97,2.89,0,2.8v-2.8ZM152.24,126.54c-.12-.12-1.41.07-1.87,0-.59,6.08,2.95,1.05,1.87,0ZM155.51,131.22l-31.54-3.76-.73,2.58c3.89.16,30.43,5.45,31.8,3.98.1-.1-.12-2.2.47-2.8ZM125.8,140.77c2.12-1.98,4.01-4.7,2.99-7.85-.45-1.39-1.72-.31-2.44-.45-1.07-.2-2.15-1.24-3.57-.8l-1.4,11.22c1.99.26,3.12-.92,4.42-2.13ZM134.47,133.55c-.13-.14-3.59-.63-3.74-.47.5,4.56-2.6,9.46-6.83,11.18-.98.4-2.85.45-2.96.55-.33.31-.84,7.55-1.11,8.95s-1.7,4.94-1.71,5.28c-.03,1.04,3.04,6.18,3.48,7.71.48,0,4.62-7.43,4.9-8.18.47-1.24-1.63-.46-1.87-.69-.49-5.03,2.82-2.01,3.27-2.34.61-.45,4.93-12.48,5.31-14.1.26-1.1,1.52-7.58,1.25-7.87ZM150.78,135.94l-14.91-1.92c.28,6.62-2.75,12.57-4.67,18.7l16.79-.51,2.8-16.27ZM148.96,160.2l3.74-23.84-4.63,22.73.88,1.11ZM174.21,185.92l1.43-19.85c-.58-9.11,1.05-18.44-1.19-27.38-.45,0-.47,8.17-.69,9.06-.12.48-1.12.15-.94.53,1,2.15.46,1.01.45,3.26-.03,6.56-.08,13.09-.4,19.61.49,4.35.69,8.78.88,13.15.02.57-.35,1.74.46,1.63ZM198.53,150.38l.94-3.74c-.94.25-2.06,3.31-.94,3.74ZM182.4,147.11v.47c.3-.16.3-.31,0-.47ZM180.3,195.27c-.29-6.9-1.14-13.79-.96-20.83.15-5.57,1.19-11.02,1.87-16.37.42-3.28.52-6.74.95-10.03l-1.26,3.64c-2.4,11.85-2.92,23.85-4.41,35.81-.28,2.26-1.22,4.95-1.35,7.08-.06.97,0,.6.69.7,1.36.2,3.05-.14,4.46,0ZM90.15,156.34c-.18-.36.24-.97.09-1.31-.58-1.34-1.15-4.03-2.78-4.18-2.54.35-5.41.76-7.95.93-13.3.89-36.82.47-47.61,8.03-2.87,2.01-7.76,7.64-7.23,11.26,1.15,7.73,10.47,9.12,16.62,10.52l41.27,1.33c.81.21,3.32-1.21,2.33-2.15-.15-.14-1.85.14-2.5,0-.36-.08-.29-.89-.51-.88-5.64.25-10.86-.52-16.38-.55-7.64-.03-15.8,1.17-23.42.51s-20.88-8.6-11.41-16.12c7.46-5.93,24.66-8.25,34.39-9.57,7.35-.99,14.9-.96,22.27-1.83l1.29.84c-.57.06-1.09.37-1.67.43-13.54,1.42-27.15,2.56-40.49,5.34-4.44.92-12.59,3.4-15.78,6.67s-1.43,6.49,1.87,8.82c8.55,6.06,24.46,3.33,34.79,3.56,6.29.14,12.44.3,18.65,1.42.54-.12,1.55-3.93,1.24-4.24-4.11.64-8.07-.65-11.93-.93-10.27-.74-23.43.22-33.13-1.48-4.07-.71-9.36-3.37-3.69-6.83s23.76-6.91,30.8-8.01l19.07-2.32.74,1.32-33.66,4.68c-.45,1.32,1.09.84,1.37,1.68,1.13,3.44-6.77,4.45-7.01,1.83-.09-.91,1.17-1.79-.19-1.63-2.19.26-9.86,2.66-11.25,4.19-2.04,2.25.85,3.37,2.86,3.72,8.67,1.5,20.25.37,29.42.98,5.76.38,11.49,1.62,17.26,1.77.7-.16,1.98-3.23,2.07-4,.26-2.39-1.95-.92-3.42-1.01-1.11-.06-2.14-.49-3.26-.53-5.09-.19-16.95.99-20.96-1.02-5.73-2.87,6.91-5.53,8.45-5.84,7.07-1.44,14.38-2.06,21.61-2.01-.52-.95-.94-1.95-1.42-2.93-.13-.27-.75-.33-.82-.46ZM197.83,150.85v.47c.3-.16.3-.31,0-.47ZM166.73,170.49c.98-1.86-.96-6.75-1.46-9.1-1.29-5.98.77-6.27-7.42-5.87,0,2.04.21,4.12-.47,6.08h-9.35c-.12,0-.99-1.79-1.4-2.07l.94-3.07c-3.92-.44-7.92.17-11.93,0-.63-.03-1.95.39-1.63-.7.2-.68,12.73-.73,14.03-.71v-1.4s-18.24.94-18.24.94c-.48,2.13,3.19-.28,2.8,1.87-2.17-.75-3.94-.91-4.2,1.87,5.43-.13,12.2-1.15,17.54-.47.68.09,1.45.36.69.93-3.96.17-7.98-.22-11.94-.02-1.24.06-6.52.55-6.99.96-.27.23-.94,1.65-.7,1.87,4.92-1.06,9.82.19,14.73.47,3.62.2,20.6.06,21.99,2.81,1.08,2.13-1.24,3.46-2.89,4.15-4.89,2.05-12.83,1.57-18.19,1.49-3.22-.05-7.93-1.71-10.5.91,1.1-.08,3.05,1.27,2.34,2.34-.28.41-5.17.66-5.17,4.45,0,2.6,6.78,6.54,1.08,7.6-.61.11-6.99.19-5.26-1.28.26-.23,6.11,1.74,6.52-.76.24-1.49-5.78-2.9-2.7-7.81,1.15-1.83,2.5-2.35,4.59-2.66-.84-1.49-3.09,0-2.25-2.47.49-1.42,3.79-1.66,5.27-1.75,5.39-.34,11.1.92,16.79.43,8.41-.73,15.52-4.52,1.93-6.01-6.01-.66-12.66-.81-18.68-.96-1.65-.04-9.78-.23-10.55.24-.55.34-.6,1.35-1,1.83-1.06,1.27-2.76,3.19-2.71,5.14.03.99.72,2.25.86,3.38.53,4.23.7,9.89,1.56,13.88.17.78,1.86,3.76,2.55,4,13.19,1.9,26.32,3.46,39.66,3.83,1.64.05,3.3,1.06,5.11.05l.27-4.73c-9.1-1.42-18.66-.14-27.62-2.08-6.95-1.5-12.96-6.74-5.27-12.34,5.62-4.1,13.36-3.14,19.96-3.89,2.33-.27,5.14-1.36,7.31-1.33-.46.87-2.14,1.47-3.17,1.74-6.58,1.73-14.67,0-20.68,2.71s-8.48,8.56-.94,11.21c5.72,2.01,10.95,1.33,16.62,1.62,4.26.22,8.57.89,12.84.96v-2.34c-2.67.3-5.54-.28-8.11-.29-1.16,0-2.52.61-3.74.58-4.2-.12-17.91-.78-15.48-7.75,2.14-6.15,22.33-4.39,23.58-7.28.12-.28.17-1.1-.34-1.15-.2-.04-.39-.01-.59-.02ZM165.8,154.6c-2.59-.25-4.78-1.39-7.48-.94v1.4c2.15-.86,3.89-.33,5.98-.13.52.05,1.59.55,1.5-.33ZM170.94,159.27c.26.06.63-.03.93,0,.78-3.85-3.2-3.01-5.61-4.2,1.19,1.73,4.93,1.93,4.67,4.2-.21-.05-2.87-1.58-3.4-1.88-.11-.06-1.96-2.33-1.73-.24s2.44,5.1,3.28,7.02l2.79,7.73c-.16-1.41.23-3.13.04-4.47-.14-1.04-.76.18-.68-2.7.08-2.65.49-1.4.65-2.01.34-1.37-.64-2.23-.94-3.43ZM194.1,181.5c2.78-3.31,4.83-7.51,7.61-10.86l9.9-15.57c-8.79,7.16-14.77,17.05-18.7,27.58.43-.03.86-.77,1.18-1.15ZM93.24,160.74c-1.32-.81-14.78,1.06-17.32,1.47-1.9.3-13.45,2.01-13.45,3.84l3.03,1.17,25.95.47v-1.4c-1,.44-10.34-.41-8.89-2.33,3.69-1,7.27-1.72,11.22-1.41.17-.15-.38-1.69-.54-1.8ZM93.32,163.01c-.26-.25-6.17.82-7.11,1.08-.48.13-1.42.11-1.31.79,2.79-.83,8.39,2.41,8.41-1.86ZM100.34,178.44c.54-.47-4.36-12.78-5.14-13.33-.54-.38-.8.46-1.03.85-2.89,4.85-5.53,12.1-7.25,17.53-3.02,9.55-6.99,25.13-6.21,34.93.32,4,1.08,6.26,4.26,8.84,4.85,3.94,12.61,4.48,16.79,8.93.84.9,2.78,5.29,4.45,1.63,1.13-2.48-2.47-2.53-3.48-3.06-1.76-.93-7.42-4.54-7.49-6.5-.09-2.42,2.59-2.34,4.31-2,.91.18,14.81,6.78,15.45,7.34.69.6.45,2.18,2.06,2.73,3.09,1.06,2.75-2.6,1.06-3.41-.84-.4-1.93-.12-2.82-.45-4.23-1.6-12.32-6.4-15.66-9.13-6.62-5.4-6.48-12.23-4.68-20.13.96-4.24,3.62-9.07,6.33-12.38-6.23.81-5.99-5.55-4.22-9.83,1.38-3.33,2.73-2.07,3.29-2.56ZM168.84,166.52c-.32-.38-.1-.85-.7-.71.28,3.8,1.72,7.48,2.59,11.2.29,1.22-.2,4.39,1.61,4.23-.65-4.42-1.78-8.47-2.99-12.73-.33-1.18.41-.9-.51-1.99ZM168.11,174.19c.09-.14.22-1.34-.2-1.36-3.98,3.3-19.9,1.85-22.25,5.81-1.25,2.1-.38,3.65,1.9,4.01-.86-6.86,7.76-5.87,12.33-6.61,1.11-.18,7.98-1.46,8.22-1.84ZM170.01,182.18c.47-.46-.98-6.46-1.63-6.51-4.77,2.49-10.74,1.72-15.7,2.98-1.78.45-5.06,2.23-2.08,3.53h19.41ZM122.31,177.98c-1.5.37-2.43,1.48-4.08,1.76s-3.52.03-5.26.11c2.06,9.06,11.29,8.99,9.35-1.87ZM100.57,178.91v.47c.3-.16.3-.31,0-.47ZM101.62,181.36c-.34-.42-2.04-.65-2.46-1.51-1.05.01-4.07,10.5,1.67,9.16.93-.22,1.05-1.08,1.6-1.7.3-.34,1.05-.39,1.14-.51.17-.23-1.77-5.22-1.95-5.45ZM192.69,183.12v.47c.3-.16.3-.31,0-.47ZM170.94,184.05c-.82-.1-1.62.04-2.43.14-.5.06-2.29.13-2.24.79,1.26-.4,4.68,1.4,4.67-.93ZM163.46,184.52h-7.95v.47h7.95v-.47ZM193.39,196.67c7.09-.1,14.2.14,21.3.03,8.45-.13,18.82-.07,27.09-.97,3.08-.33,12.15-2.1,5.34-5.32-6.74-3.19-34.01-4.38-42.27-4.02l-12.86,1.39c9.49.65,19.22.71,28.78.49,1.58-.04,3.19-.7,4.68-.54.83.09.61.84,1.03.95,2.47.65,14.49.96,15.5,2.42,1.39,2.02-2.76,2.82-4.05,3.1-8.61,1.86-17.88.79-26.55,1.06-5.42.17-10.89.74-16.35.94-.57.02-1.74-.35-1.63.46ZM105.01,188.26c-.58-.56-3.81,3.08-2.36,3.99l3.29.21-.94-4.2ZM180.76,196.68c-2.04-.15-4.3.21-6.31,0-7.2-.73-14.24-.85-21.5-1.41-8.35-.64-16.73-2.09-25.02-3.27-.29.29.9,2.06,1.2,2.31,2.32,1.92,12.94,1.77,16.34,2.83,9.02.59,18.2.45,27.1.49,2.26.01,5.4.25,7.51-.02.68-.09,1.45-.36.69-.93ZM173.74,195.27c.23-1.95-.69-1.95-.46,0h.46ZM186.84,194.81c-1.95-.23-1.95.69,0,.46v-.46ZM183.57,196.68l-1.87.23c.5.72,1,.81,1.87.7v-.93ZM190.11,196.68c-1.32.03-2.66-.06-3.98,0-.57.02-1.74-.35-1.63.46,1.32-.03,2.66.06,3.98,0,.57-.02,1.74.35,1.63-.46Z"/>
  <path class="st0" d="M95.66,51.25c.07.11-.07.34,0,.47-.37-.15-.59-.13-.94-.47.3.04.63-.03.94,0Z"/>
  <path class="st0" d="M96.12,52.19c-.2-.14-.35-.24-.47-.47.15.06.31.35.47.47Z"/>
  <path class="st0" d="M98.93,52.65c-1.2.04-1.82.22-2.81-.47.87.2,2.56-.47,2.81.47Z"/>
  <path class="st0" d="M220.97,85.86c.11,1.12,0,1.97-.52,2.98-.3.58-2.45,3.39-3.21,2.63-.19-2.92.09-5.98,3.74-5.61Z"/>
  <path class="st0" d="M220.51,192.93l-4.21-.47c-.17-3,5-2.67,4.21.47Z"/>
  <path class="st0" d="M193.62,192.94c.3.16.3.31,0,.47v-.47Z"/>
  <path class="st0" d="M86.82,119.1c3.23-2.25,3.44,8.42,1.07,8.81-2.56.43-2.42-7.88-1.07-8.81Z"/>
  <path class="st0" d="M92.34,127.05c1.2.74-.04,6.39-1.58,6.03-2.08-.49-1.23-7.77,1.58-6.03Z"/>
  <path class="st0" d="M126.02,204.19c.93,1.71,0,6.72-2.71,5.05-1.4-.87.21-6.2,2.71-5.05Z"/>
  <path class="st0" d="M130.07,207.94c2.55-.77,1.97,4.9-.49,4.16-1.33-.4-.68-3.81.49-4.16Z"/>
  <path class="st0" d="M58.58,167.28c3.14-.76,3.53,4.55-1.05,2.3-.64-.83.25-2.1,1.05-2.3Z"/>
  <path class="st0" d="M122.65,37.35c.12.1.65,1.23.6,1.27l-2.8-.46c-.33.36,1.48,3.47-.47,4.47-1.64.84-2.32-3.07-3.27-2.13-.39.38-.6,6.11-2.11,3.74-1.97-3.07,4.19-10.09,8.06-6.89Z"/>
  <path class="st0" d="M138.07,31.22c2.68-.76,2.52,2.54.35,2.75s-1.98-2.29-.35-2.75Z"/>
  <path class="st0" d="M156.92,192c.28,1.3-.65,1.02-1.63.93-6.25-.61-12.43-1.83-18.7-2.35-.73-.06-1.86.49-1.64-.68.62-1.04,1.09-.42,1.76-.4,6.7.12,13.5,2.11,20.22,2.5Z"/>
  <path class="st0" d="M133.53,189.2c.96,1.01-.95.94-1.53.82-1.32-.28-5.12-.76-5.01-2.23,1.21-.07,5.91.74,6.54,1.41Z"/>
  <path class="st0" d="M127.92,149.45c.93,2.31-3.13,6.97-3.32,3.03-.1-1.99,1.34-3.3,3.32-3.03Z"/>
  <path class="st0" d="M144.28,102.69h-.46c-.23-1.95.69-1.95.46,0Z"/>
  <path class="st0" d="M151.77,89.59h-.93c-.25-.26.67-2.43.93-1.87v1.87Z"/>
</svg>