<?xml version="1.0" encoding="UTF-8"?>
<svg id="Layer_1" data-name="Layer 1" xmlns="http://www.w3.org/2000/svg" viewBox="0 0 363.64 193.86">
  <path d="M113.76,111.51c-1.23,4.7-1.61,3.63-2.43,4.83-5.77,8.43-13.32,9.13-22.8,6.68-.9,7.22-6.92,16.61-12.98,20.53-1.23.79-6.42,3.52-7.62,3.83-8.2,2.11-12.76-4.66-13.21-12.02-.37-6.18.7-17.39,3.55-22.83.98-1.86,5.57-6.92,5.6-8.11.03-.85-2.74-6.38-3.16-8.28-1.06-4.88-1.52-14.87.05-19.49,3.89-11.45,15.94-15.75,27.19-14.91-2.93-11,5.79-18.71,14.02-24.07,25.13-16.36,47.24-11.95,70.93,4.13,1.61,1.09,7.79,6.44,8.78,6.6,1.15.19,3.58-.9,5.08-.97,8.77-.41,16.96-.71,24.03,5.16,2.91,2.41,9.72,11.08,10.04,14.65.16,1.82-1.02,2.31-1.14,3.39-.23,2.08,1.87,5.76,1.13,8.29,1.36.02,11.25-2.09,12.76-2.43,4.06-.91,13.34-3.76,18.05-4.85,21.03-4.86,41.55-6.54,62.77-9.4,5.26-.71,13.53-3.45,18.41-3.38,3.41.05,4.12,2.12,1.37,4.27-10.75,8.41-53.85,20.77-68.82,25.11-8.66,2.51-17.51,4.36-26.21,6.73-.14.99,1.3.54,1.99.57,18.67.62,39.2,3.36,57.79,5.79,3.8.5,9.88,1.28,12.58,3.2.49.35,3.39.51.59,2.41-1.47,1-9.68,1.65-11.98,1.77-4.69.25-9.66-.33-14.3.02-9.04.67-19.02,3.15-28.08,3.99-10.2.94-25.75-.45-35.04,3.34-1.55.63-5.28,3.96-5.73,4.07-1.27.31-3.57-2.56-5.89,1.49-.36,1.65,1.96.51,2.29.85,1.05,1.1-1.25,2.09-1.53,2.47-1.04,1.39-.13,2.7-3.62,2.1l.57-2.86c-.6-.61-4.49,1.26-4,2.86l2.86,1.14c-4.41,1.64-9.31,3.08-14.04,3.44-7.64.59-24.85-2.79-30.09,1.98-6.38,5.81-14.88,14.57-17.83,22.83-1.78,4.97-.38,8.89-5.98,11.78-4.61,2.38-7.05-1.21-8.94-.99-.78.09-1.66.77-2.58.94-.78.15-1.8-.6-2.45-.21-.9.55-.75,2.83-2.82,3.51-2.99.98-6.35.78-7.21-2.6-.64-2.54,1-9.71,1.7-12.64,3.82-15.97,11.17-28.08,20.7-41.16,1.4-1.92,4.58-4.43,5.44-6.59,1.2-3.02.95-10.66,1.84-14.76,2-9.22,8.75-23.22,14.47-30.77,1.96-2.59,4.9-4.48,7.08-6.66.47-.47.82-.5.61-1.39-5.73-2.06-10.86-4.24-17.18-3.44,1.29,3.73,3.65,5.14,4.03,9.42,1.13,12.79-7.08,20.98-18.49,24.52-1.27.39-5.34.85-5.54,1.04-.47.43-.47,7.85-4.91,11.41-.47.38-3.78,2.29-4.01,2.29h-8.88c.43,2.03,2.16,9.8,1.19,11.39M177.28,50.28c1.27-1.45-4.32-5.12-5.31-5.84-10.63-7.77-28.04-15.33-41.36-14.76-15.02.65-52.45,18.8-36.36,38.06,2.09,2.5,3.58,2.48,5.7,4.06.51.38.52,1.33.6,1.39,1.08.83,1.23-.91,1.69-1.41,13.84-15.21,42.72-34.16,63.79-25.42,2.33.97,6.68,4.56,7.8,4.86.37.1,3.32-.82,3.44-.95ZM171.56,53.72c-.97-3.2-5.79-5.09-8.71-5.88-36.47-9.92-77.32,41.95-89.32,71.37-.8,1.96-1.88,3.92-1.61,6.11,3.02-4.2,4.61-9.59,7.14-14.33,10.11-18.91,27.61-42.59,46.51-53.15,11.36-6.35,24.75-11.39,37.71-6.98,1.57.54,7.32,3.68,8.29,2.87ZM184.74,61.17l26.63-1.72c3.41-.55-1.31-4.39-2.62-5.39-4.93-3.75-13.62-5.26-19.67-4.31-4.25.67-3.33,7.97-4.33,11.41ZM184.16,50.87c-2.06-1.89-13.51,5.37-15.65,6.97-3.44,2.55-7.53,5.85-8.4,10.21l21.79-5.98,2.26-11.19ZM146.16,77.01c4.17-4.39,6.75-13.1,4.66-18.86-2.94-8.1-8.05-5.48-14.18-2.97-26.86,11.01-45.68,37.24-58.36,62.49-1.4,2.78-4.53,13.44-7.83,13.36-.86-.02-1.63-.74-1.87-1.53-1.29-4.26,4.92-15.88,7.11-20.15,6.44-12.56,14.75-23.87,23.71-34.71-3.2-1.28-5.68-3.26-8.03-5.73-.7-.74-.86-1.96-1.45-2.56-.27-.27-3.74-2.14-4.12-2.22-1.63-.33-9.16,1.26-11.04,1.9-4.72,1.61-10.23,7.06-11.63,11.85-1.59,5.47-.33,19.06,2.62,24.1.88,1.51,5.79,5.48,5.58,6.44-.66,3.07-4.65-1.33-4.94-1.38-1.65-.28-5.7,6.73-6.37,8.4-1.9,4.72-2.96,15.94-2.37,20.99.39,3.37,3.15,9.01,7.03,8.9,8.64-.23,18.85-12.58,20.84-20.43.51-1.99-.74-5.37,2.55-5.2,3.84.19,6.42,2.25,11.57,1.57,7.79-1.04,14.87-12.05,10.32-18.81-1.67-2.48-5.08-2.84-4.25-6.34,7.37,1.91,20.85,3.58,21.74-7.23.28-3.38-2.96-2.45-5.68-3.4-1.35-.47-10.32-3.7-8.04-5.98.82-.83,6.65,2.53,8.14,3.02,7.72,2.57,18.59.49,24.3-5.52ZM206.5,97.83h10.6c.29,0,2.75-1.23,3.72-1.44,35.78-7.8,71.06-18.33,105.02-31.86l3.51-2.22c-23.31,4.02-47.07,5.67-70.27,10.49-8.28,1.72-16.2,4.59-24.51,6.13,0,0-5.15,1.62-7.87,2.15-5.02.96-6.57.28-11.21,3.68-1.89,1.39-11.14,10.89-8.98,13.07ZM216.65,64.21c-.89-.72-1.89-.68-2.96-.77-10.49-.86-34.11,3.3-44.39,6.63-5.21,1.69-14.21,4.5-16.06,10,14.15-3.67,27.32-10.84,42.1-12.02l22.61-.58c.42-.4-.81-2.85-1.31-3.26ZM198.37,70.5c-23.51,1.44-33.53,6.48-27.66,31.9,2.61,11.28,5.92,19.01,18.01,22.08,10.3,2.62,19.34-3.4,25.78-10.95-2.09-2.61-4.86-3.92-7.09-6.6-.75-.9-3.82-5.37-4.08-6.22-1.85-6.09,5.36-14.14,9.76-17.78,1.39-1.15,4.52-1.94,4.87-3.72.32-1.63-.39-8.21-2.1-8.79-2.11-.71-14.42-.11-17.49.07ZM157.24,81.22c-.5-.53-3.68,1.52-2.86,2.28s3.6-1.5,2.86-2.28ZM161.11,81.31c-.82.15-6.78,5.26-7.23,6.01-1.33,2.21.84,3.77,3.07,3.69,5.93-.23,11.38-11.01,4.16-9.7ZM151.52,88.09c-1.3-.23-.91.07-1.28.73-1.29,2.34-2.04,7.73-1.45,10.31,1.17,5.19,7.1-1.04,7.22-5.16.04-1.36-5.66-2.54-4.49-5.89ZM162.82,90.47c-.37.09-3.59,2.13-3.88,2.47-3.08,3.72.58,9.87,5.15,6.86,3.57-2.35,1.48-10.04-1.27-9.33ZM269.5,100.7c-3.47-.7-7.07-1.37-10.59-1.72-10.58-1.05-23.83-1.91-34.29-.51-4.71.64-6.79,3.09-1.16,3.88,11.82,1.67,25.22-.83,37.17-.52l8.88-1.13ZM155.95,100.2c-3.96.97-8.51,8.63-3.45,10.11,8.35,2.44,7.93-11.2,3.45-10.11ZM166.71,100.12c-.31.07-1.06,1.27-1.86,1.59-1.23.49-3.71.52-4.1,1.63-.97,2.79,1.34,7.59,4.51,5.65,1.91-1.17,4.38-9.56,1.45-8.87ZM217.28,100.79c-.87-.52-2.54.51-3.62.48-1.85-.06-3.94-1.05-6.01-.57.1,2.77,2.57,5.39,4.63,7.11,9.81,8.19,16.09,3.44,27.16,2.63,3.55-.26,7.4.3,10.9.02,17.28-1.38,34.36-5.53,51.81-4.61.11-1.43.14-.98-.86-1.13-13.89-2.05-30.57-1.27-44.68-.59-1.66.08-3.18,1.01-5.13,1.17-5.77.49-26.67.6-31.24-1.45-2.13-.96-2.55-2.81-2.97-3.05ZM148.03,101.31c-2.11-1.31-1.76,1.83-1.66,3.39,2.45.62,2.82-2.67,1.66-3.39ZM141.28,118.39c.28.33,3.3.67,4.08.53,2.47-.45,6.13-4.56,5.52-6.94-.23-.88-1.55-1.36-1.92-2.14s-.19-3.21-1.17-3.42c-1.53-.32-2.02,3.24-2.65,4.21-.98,1.51-5.74,5.52-3.86,7.75ZM169,108.14c-1.23.26-3.94,6.48-4.16,7.87-1.39,8.82,7.39,3,6.62-3.42-.11-.89-1.23-4.71-2.46-4.45ZM163.47,111.64c-.13-.21-3.02-1.28-3.61-1.23-.97.09-1.69,1.13-2.61,1.44-2.4.82-4.63.26-5.12,3.48-.58,3.83,2.45,5.43,5.68,3.95,1.2-.55,6.61-6.1,5.66-7.65ZM177.74,122.92c.74-1.56-4.22-6.31-5.53-5.55-1.93,1.12-3.31,9.97,1.22,8.98.55-.12,4.19-3.18,4.31-3.43ZM168.7,122.46c-.26-.27-3.44.42-4.6-.28-.82-.49-1.44-4.81-2.84-3.73-.2.16-1.79,4.34-1.74,4.84.19,1.94,3.13,3.29,4.87,3.21s5.95-2.36,4.31-4.05ZM157.25,121.88c-2.69,1.24-6.22-2.41-7.6-2.22-1.68.23-4.75,4.31-4.36,5.83,1.04,4.04,13.69,2.39,11.96-3.61ZM144.07,120.74c-.98-.05-1.92-.12-2.85.3-.23.1-3.77,3.04-3.89,3.26-1.24,2.14.46,6.26,3.54,6.15,5.54-.19,1.51-5.93,3.21-9.7ZM178.52,124.83c-.27.17-.72,2.02-.69,2.49.15,1.97,5.76,3.39,6.25-.14.34-2.46-4.39-3.09-5.56-2.36ZM71.62,125.89v.57c.37-.19.37-.38,0-.57ZM129.81,134.42c1.19,1.65,5.31-.83,5.96-2.24.77-1.66-.22-7.5-2.76-5.01-1.1,1.09-4.26,5.79-3.21,7.25ZM166.98,128.19c-1.98,1.06-7.34-1.3-8.19-1.08-2.41.62-5.67,8.78.31,7.26.85-.22,8.95-5.22,7.88-6.18ZM176.14,129.32c1.72-1.5-4.5-2.03-5.16-2.05-2.18-.07-2.51,1.96-.86,2.05,2,.11,4.03-.07,6.02,0ZM200.2,127.61c-.49-.49-4.52.53-4,2.28,1.74-.23,4.7.18,4-2.28ZM192.19,128.19c-.62-.64-6.37.45-4.59,2.29.62.64,6.37-.45,4.59-2.29ZM153.81,129.33c-3.92.96-7.99-.51-8.48,5.01-.36,4.09,6.07,4.95,7.94,1.6.95-1.69-.28-4.42.53-6.61ZM143.5,132.19c-.15-.15-3.67-.1-4.29.02-3.36.64-4.92,8.97,1,8.46.7-.06,3.26-1.05,3.6-1.59.18-.29-.07-6.64-.31-6.88ZM128.61,135.63c-1.66-1.65-3.43,4.59-3.43,5.72,2,.31,4.32-4.84,3.43-5.72ZM134.33,136.2c-7.06,0-4.02,12.64,1.7,8.29,3.21-2.44-2.8-4.62-1.7-8.29ZM150.34,140.24c-.11-.11-2.83-.51-3.05-.47-2.08.38-3.65,5.23-2.08,7.03,2.8,3.2,6.68-4.99,5.12-6.56ZM127.31,142.59c-5.88.87-4.58,9.98.38,6.72,2.47-1.62,2.65-7.17-.38-6.72ZM142.93,142.5c-5.91-.73-6.03,9.61-.41,7.91,3.45-1.04-1.74-5.08.41-7.91ZM136,147.14c-.52-.45-3.39.09-4,.91-3.65,4.95,2.7,7.59,4.94,3.03.21-.43-.79-3.8-.94-3.93ZM122.88,150.52c-2.46-.7-2.06,2.26-2.28,4,1.6.61,2.51-3.79,2.28-4ZM127.87,151.18c-4.8.25-5.2,8.37-.66,6.27,3.82-1.77,2.48-6.36.66-6.27ZM139.3,152.33c-2.12.72-2.3,5.98,1.02,5.66s4.18-7.43-1.02-5.66ZM131.61,160.11c2.53,2.47,6.78-1.87,3.89-4.78-2.86-.94-5.93,2.78-3.89,4.78ZM120.98,157.45c-2.61.66-3.21,8.36,1.31,4.8,2.33-1.83.9-5.36-1.31-4.8ZM129.08,159.19c-3.34-1.88-5.94,7.97.27,6.1,2.81-.84,1.05-5.36-.27-6.1ZM142.35,160.26c-1.12.12-3.15-.35-4.03.25-2.88,1.96,3.93,7.49,4.03-.25ZM138.34,165.42c-.08-.09-1.02-.11-1.43-.56-.52-.57-1.35-2.22-1.72-2.32-2.33-.6-3.12,5.69,2.87,4.01.5.07.34-1.07.28-1.14ZM122.74,164.38c-.57-.02-4.51.64-4.77.99-.64.87.03,3.25.9,3.77,4.02,2.39,7.06-4.63,3.87-4.76Z"/>
  <path d="M184.58,80.2c7.64-1.73,9.74,9.81,2.89,8.94-5.56-.71-7.72-7.85-2.89-8.94Z"/>
  <path d="M178.29,54.96c4.74-.92,5.32,8.04-1.26,6.78-3.67-.7-1.95-6.16,1.26-6.78ZM178.16,57.17c-.95.21-2.15,2.43-.57,2.86,2.59.7,2.47-3.28.57-2.86Z"/>
</svg>