<?xml version="1.0" encoding="UTF-8"?>
<svg id="Layer_1" data-name="Layer 1" xmlns="http://www.w3.org/2000/svg" viewBox="0 0 599 505">
  <g>
    <g>
      <path d="M229.35,301.93c1.51,1.54,11.94-6.57,13.05-8.67,2.62,1.92-4.72,8.21-5.99,9.02-4.22,2.68-5.58,1.17-8.93,2.17-1.54.46-5.27,7.69-8.8,3-1.3-1.72-.71-6.18-2.37-5.51-3.33,1.35-3.81,10.69-4.37,11.07-.42.28-1.98-.91-2.29-.74-.21.11-.8,3.11-3.17,3.55-1.32.25-2.26-1.33-3.26-.9-.85.37-1.73,2.78-2.73,3.62-3.91,3.3-5.49-.27-5.94,0-.31.18-1.45,5.25-3.72,6.18-4.77,1.95-2.9-2.9-5.78-4.6-.56,1.26-1.28,8.39-1.6,8.7-.45.43-2.7-.86-3.07-.7-.22.1-1.27,3.09-2.82,3.91-2.1,1.12-3.8.32-5.02.92-.36.18-2.28,4.27-3.84,4.5-2.58.37-3.22-5.6-3.84-5.46-.24.05-4.08,2.29-4.23,2.49-.77,1.07-.17,12.18-6.45,6.21-.7,3.28-2.86,7.71-6.66,5.45-1.52-.9-.66-3.43-3.44-1.71-3.16,1.95-.94,5.53-2.95,7.34-6.7,6.04-5.7-10.25-3.19-13.46,2.34-3,.43,4.19,2.76,5.19,4.96,2.13,5.05-11.89,7.54-12.29,5.23-.85-1.26,11.84-.4,12.64,3.5,3.27,5.93-8.72,7.45-10.33,2.71-2.87,3.93-.41,5.97-1.11s4.58-8.93,7.07-5.07c.58.9-1.97,7.14.46,7.01,3.59-.19.61-9.41,4.34-11.46,4.53-2.49,2.54,5.22,2,7.54,4.76-.34,5.55-9.8,5.93-10.28.26-.33,2.15.97,2.36.8.15-.12-.1-2.74,1.57-3.62,2.82-1.48,3.71,6.16,4.37,5.97,1.1-.31,5.47-8.27,4.35-9.48-.29-.31-5.67,1.75-5.52-.4s8.49-1.48,6.32-5.93c2.64-.68,1.17,1.97,1.59,2.38.27.26,2.04-1.15,2.36-.79,1.51,1.69-2.22,2.8-2.43,4.35-.12.92.61,4.38,1.24,4.33,3.64-.25,5.11-8.89,7.13-11.05,1.81,15.2,3.41,2.07,5.91-1.84.53-.83,1.78-.42,2.09-.78,1.27-1.49,4.4-6.92,6.7-3.17,1.42,2.31-.29,8.17,4.29,4.21,3.9-3.37.03-10.61,4.89-11.74,5.57-1.29.68,8.2,1.05,8.57ZM229.34,295.61c-1.26-1.76-2.12,1.96-1.57,3.15,1.2.2,1.73-2.92,1.57-3.15ZM173.95,327.23c.57-.85-.38-2.16-.77-1.57-.57.85.38,2.16.77,1.57ZM156.56,339.88l1.56-5.53c-2.44,1.12-2.36,3.36-1.56,5.53ZM139.92,345.41c-1.9-2.36-1.79,5.03-1.57,5.53,2.1-.27,2.36-4.55,1.57-5.53Z"/>
      <path d="M97.99,343.05c.46.5-.87,2.77-.69,3.49.44,1.78,3.79.22,3.07,2.82-4.31-2.33-5.07,4.2-3.95,5.53,2.04,2.43,6.49-8.68,6.73-9.47l1.18,4.73c6.33-7.5,5.15,3.53,6.8,4.01,5.6,1.62,1.79-8.3,6.37-9.43,5.74-1.42.66,7.51,1.06,7.79,2.51,1.75,7.02-3.87,8.7-4.35,5.42-1.57-1.92,5.98-4.96,6.93-2.98.92-4.01-.21-5.63.04-4.92.77-7.6,5.12-9.2-4.98-2.61.93-2.26,6.2-4.39,7.06-2.16.88-1.89-1.6-2.31-1.54-2.86.45-6.43,4.65-6.75-3.15-1.47,1.44-4.22,4.54-6.63,3.91-1.2-.31-1.72-2.64-1.27-3.12.24-.25,1.86.9,3.14.42.72-.27,3.91-4.15,3.97-4.78.09-.85-4.72-1.2-3.94-3.54,1.58-.92,5.28,1.74,5.52,1.58.23-.15,1.5-5.77,3.18-3.95ZM117.38,348.57v.79l.4-.4-.4-.4Z"/>
      <path d="M540.3,218.92c-1.91-3.6-2.86-6.5-6.38-9.03-14.13-10.18-36.72-6.6-52.53-5.95-1.61.07-8.02.86-8.33-1.2,1.74-1.41,5.34-1.8,7.53-1.99,14.22-1.23,42.39-2.06,53.75,7.14,3.46,2.8,5.82,6.47,5.95,11.04Z"/>
      <path d="M206.4,302.73c1.42.99-4.02,4.14-3.94,1.18.03-1,3.26-1.65,3.94-1.18Z"/>
    </g>
    <g>
      <path d="M412.13,169.91c.84.83,20.63-5.58,20.56,4.74-1.41.13-.63-1.9-1.52-2.81-2.99-3.03-15.27-2.47-18.28.06-1.29,1.08.16,2.65.04,2.75-.43.37-9.55,2.05-11.08,2.37,1.28-3.85,8.43-2.56,9.5-3.16.41-.23-.43-6.81.43-9.44.93-2.84,7.31-8.42,10.26-9.5-2.58,3.08-5.8,4.13-7.87,7.94-.64,1.18-2.91,6.18-2.03,7.06Z"/>
      <path d="M408.17,184.15c.13-.16-.13-.63,0-.79.11-.13.69.13.79,0-.24.28-.55.51-.79.79Z"/>
      <path d="M408.96,183.35c.13-.16-.13-.63,0-.79.11-.13.69.13.79,0-.24.28-.55.51-.79.79Z"/>
      <path d="M402.63,192.05c.15-.29.63-.51.79-.79-.25.27-.55.52-.79.79Z"/>
      <path d="M409.75,182.56c.13-.16-.13-.63,0-.79.11-.13.68.13.79,0-.25.27-.55.51-.79.79Z"/>
      <path d="M401.84,192.05c-.6.76-.56,1.22-.79,1.58-3.04,4.85-3.09,6.45-3.96,11.86-1.07.02-1.22,1.61,0,1.58-.2,1.7.27,5.34-1.57,6.32-1.1-9.38,1.54-15.39,6.32-22.92-.16.34.15,1.17,0,1.58Z"/>
      <path d="M403.42,191.26c.18-.32-.19-1.33,0-1.58.05-.07,1.38-.99,1.56-.41-.54.66-.98,1.36-1.56,1.99Z"/>
      <path d="M410.54,181.77c.13-.15-.13-.65,0-.79.13-.13.67.13.79,0-.23.29-.54.52-.79.79Z"/>
      <path d="M407.38,185.73c.19-.24-.19-1.36,0-1.58.11-.13.68.13.79,0-.2.25-.35,1-.79,1.58Z"/>
      <path d="M401.84,193.63c.09-.5-.14-1.22,0-1.58.1-.13.68.13.79,0-.28.54-.47,1.04-.79,1.58Z"/>
      <path d="M405,187.31c.07-.12.68.12.79,0-.24.18-1.58,1.45-.79,0Z"/>
      <path d="M405.79,187.31c.24-.27.6-.52.79-.79-.24.28-.5.57-.79.79Z"/>
      <path d="M411.33,180.98c.13-.14-.13-.65,0-.79.12-.13.67.13.79,0-.19.29-.56.51-.79.79Z"/>
      <path d="M405,185.73c.25-.28.54-.52.79-.79-.21.29-.61.51-.79.79Z"/>
      <path d="M397.09,207.07c.06-.51-.08-1.08,0-1.58,1.22-.02,1.07,1.56,0,1.58Z"/>
      <path d="M406.58,186.52c.21-.31.57-.51.79-.79-.22.29-.55.51-.79.79Z"/>
      <path d="M401.84,193.63c-.09.15-1.47,4.06-.79,0,0-.04.78.04.79,0Z"/>
      <path d="M412.12,178.61c2.27-1.58,2.13-2.89,6.15-3.81,1.91-.44,3.26.63,3.8.58.26-.03.39-2.27,4.29-.72.51,3.17-5.86,1.26-7.51.78l1.17,1.58c-6.01-1.63-2.76.09-3.88,1.19-.94.92-2.57.78-3.23,1.19.05-.61-.47-1.01-.79-.79ZM414.89,177.03v.79l.4-.4-.4-.4Z"/>
      <path d="M405,187.31c-.41.7-.89.94-1.58,2.37-.12.25-1.46.53-1.58.79,1.28-2.03,1.26-2.58,3.16-4.74-.18.29.18,1.27,0,1.58Z"/>
      <path d="M412.12,180.19c.13-.14-.13-.65,0-.79.18-.12.6.12.79,0-.06.79-.63.54-.79.79Z"/>
      <path d="M412.12,178.61c-.13.09.13.65,0,.79-.33.23-.54.6-.79.79-.29.22-.5.57-.79.79s-.5.56-.79.79-.51.56-.79.79-.51.55-.79.79-.52.53-.79.79c-.35.33-1.28.47-1.58.79.3-.41.35-1.41,1.13-2.39,1.79-2.24,3.27-2.59,5.2-3.93Z"/>
      <path d="M427.94,153.32c1.21.44-3.77,1.92-4.74,1.56-1.21-.44,3.77-1.92,4.74-1.56Z"/>
      <path d="M401.04,197.58c-.4.59-1.34-.73-.77-1.57.4-.59,1.34.73.77,1.57Z"/>
      <path d="M400.25,199.95c-.4.59-1.34-.73-.77-1.57.4-.59,1.34.73.77,1.57Z"/>
      <path d="M398.66,203.9c-.4.59-1.34-.73-.77-1.57.4-.59,1.34.73.77,1.57Z"/>
      <polygon points="431.51 152.52 431.9 152.92 431.51 153.31 431.51 152.52"/>
      <polygon points="399.07 200.75 399.46 201.14 399.07 201.54 399.07 200.75"/>
      <polygon points="429.93 177.03 430.32 177.43 429.93 177.82 429.93 177.03"/>
      <path d="M421.61,250.56c.59.4-.73,1.34-1.57.77-.59-.4.73-1.34,1.57-.77Z"/>
      <path d="M421.61,249.75c-.4.59-1.34-.73-.77-1.57.4-.59,1.34.73.77,1.57Z"/>
      <path d="M418.44,264.77c-.4.59-1.34-.73-.77-1.57.4-.59,1.34.73.77,1.57Z"/>
      <polygon points="461.58 228.41 461.97 228.81 461.58 229.21 461.58 228.41"/>
    </g>
    <g>
      <path d="M462.76,152.52c.66-1.05.62-1.2,1.58-2.37-.6,1.89-1.09,1.6-1.58,2.37Z"/>
      <path d="M190.57,285.33c-.08-.85-.84-1.74-.4-2.35l3.55,4.34c-.95.16-2.34-1.35-3.15-1.98.05.52-.1,1.15,0,1.58-1.89-2.28-3.1-1.89-4.75-5.53,1.71,1.15,3.12,2.67,4.75,3.95Z"/>
      <path d="M461.18,154.9c.63-1.05,1.11-1.63,1.58-2.37-.53.84-1.07,1.58-1.58,2.37Z"/>
      <path d="M462.76,237.11c-.15-.13-.58.12-.79,0-.43-.7-5.03-8.68-2.77-8.7.47,0,3.18,7.67,3.56,8.7Z"/>
      <path d="M444.56,225.25c-.04.09-.77-.08-.79,0,.27-.49.53-1.07.79-1.58-.09.49.14,1.26,0,1.58Z"/>
      <path d="M438.23,220.51c-.45.52-1.14.53-1.58.79.07-.08-.02-.51,0-.79.19.09,1.22.05,1.58,0Z"/>
      <path d="M438.23,220.51c.19-.03.5-.68.79-.79-.14.56-.61.58-.79.79Z"/>
      <path d="M440.61,218.93c-.56.47-.95.56-1.58.79.06-.22,0-.55,0-.79.29.08,1.29.08,1.58,0Z"/>
      <path d="M436.65,220.51c-.96-.43-.57-1.08-.79-1.58.03.21.84.78.79,1.58Z"/>
      <path d="M462.76,237.9s.03-.76,0-.79c.06.17.76.2.78.39.03.49-.73.35-.78.4Z"/>
      <path d="M161.3,307.47c.15-.29.63-.51.79-.79-.27.25-.52.54-.79.79Z"/>
      <path d="M440.61,218.93c.19-.05.47-.67.79-.79-.21.28-.52.56-.79.79Z"/>
      <path d="M162.09,306.68c.1-.1.86-1.48,1.58-2.37-.48.76-1.35,1.96-1.58,2.37Z"/>
      <path d="M439.03,218.93c-.42-.11-.57-.48-.79-.79.05.23.79.59.79.79Z"/>
      <path d="M163.67,304.31c.23-.29.57-.5.79-.79-.19.29-.61.51-.79.79Z"/>
      <path d="M441.4,218.14c.25-.1.5-.66.79-.79.2.67-.65.6-.79.79Z"/>
      <path d="M438.23,218.14c-.74-1.03-1.66-2.63,0-3.16.13.99-.19,2.26,0,3.16Z"/>
      <path d="M161.3,301.93c.18-.21,1.02-1.61,1.58-2.37-.54.81-1.01,1.55-1.58,2.37Z"/>
      <path d="M164.46,303.51c.94-1.42,2.41-3.5,3.16-4.74-1.47,2.91-1.52,2.54-3.16,4.74Z"/>
      <path d="M139.93,297.98c-1.26.85-2.03.6-2.37.79.13,0,.85-.9,2.37-.79Z"/>
      <path d="M435.86,218.93c-.64-1.43-1.13-2.2-.79-3.95,1.46.45.64,2.77.79,3.95Z"/>
      <path d="M108.28,176.24c-.05-.07-1.72-.71,0-.79.12.19-.13.65,0,.79Z"/>
      <path d="M461.97,237.9s.76.03.79,0c-.05.05.09.78-.4.78-.18,0-.22-.72-.39-.78Z"/>
      <path d="M162.88,299.56c.26-.36,1.87-3.11,2.37-3.95-.86,1.4-1.26,2.29-2.37,3.95Z"/>
      <path d="M109.07,177.03c-.29-.28-.53-.42-.79-.79.24.25.53.61.79.79Z"/>
      <path d="M154.97,295.61c-.22.1-.12,1.22-1.58.79-.06-1.24,1.3-.6,1.58-.79Z"/>
      <path d="M157.34,294.03c-1.03.76-.8.85-2.37,1.58.91-.62,1.27-.93,2.37-1.58Z"/>
      <path d="M170,252.13c.28-.15.53-.69.79-.79-.2.04-.5.68-.79.79Z"/>
      <path d="M165.25,295.61c.5-.82,1.37-2,1.58-2.37-.72,1.36-1.18,1.7-1.58,2.37Z"/>
      <path d="M159.71,292.45c-.78.54-1.84,1.19-2.37,1.58.31-.19,2.07-1.36,2.37-1.58Z"/>
      <path d="M170,252.13c-.26.1-1.39.66-1.58.79.52-.55,1.08-.53,1.58-.79Z"/>
      <path d="M167.63,253.71c.2-.3.54-.53.79-.79-.25.17-.49.55-.79.79Z"/>
      <path d="M155.76,290.87c-.96.62-1.87,2.88-3.96,2.37.44-2,2.94-1.77,3.96-2.37Z"/>
      <path d="M166.84,255.29c.24-.82.36-.94.79-1.58-.1.08-.14,1.04-.79,1.58Z"/>
      <path d="M464.35,150.15c.23-.29.55-.51.79-.79-.04.25-.72.55-.79.79Z"/>
      <path d="M441.4,178.61c-.52.53,1.57,3.52.04,4.38-1.65.93-3.28-.6-4.78,1.94.13-1.25-.22-2.78,0-3.95.02-.11.63-.41.79-.79,1.21-.95,2.75-1.04,3.96-1.58Z"/>
      <path d="M460.39,160.43c2.18-3.79,4.32-7.95,6.33-11.86.52-.64.71-.37.79-1.58.06-.15.72-.38.79-.79.24-.03.56-.04.79,0-2.21,5.09-4.75,10.24-8.7,14.23Z"/>
      <path d="M178.7,257.66c-.12.02-1.95.64-2.37.79,1.09-.66,1.85-.54,2.37-.79Z"/>
      <path d="M176.33,258.45c-.13.05-2.14,1.4-2.37,1.58,1.17-.92,1.21-.89,2.37-1.58Z"/>
      <path d="M468.3,146.2h-.79c.47-1.64.7,0,.79,0Z"/>
      <path d="M448.52,205.49c-.14.35.15,1.46,0,1.58-.32.24-2.08-1.15-2.37-.79.45-1.1.67-2.3,1.58-3.16.18,1.46.66,1.82.79,2.37Z"/>
      <path d="M162.88,290.08c-1.52,1.35-1.87,1.42-3.16,2.37.73-.5,2.32-1.73,3.16-2.37Z"/>
      <path d="M173.17,260.83c.24-.27.51-.57.79-.79-.27.21-.53.54-.79.79Z"/>
      <path d="M172.37,261.62c.19-.29.55-.52.79-.79-.25.24-.64.56-.79.79Z"/>
      <path d="M158.13,289.29c-.66.41-1.32.95-2.37,1.58.72-.47,1.68-1.1,2.37-1.58Z"/>
      <path d="M202.44,291.66c-.75-1.24-1.15-2.47-1.58-3.16,1.07,1.58.89.51,1.58,3.16Z"/>
      <path d="M171.58,263.2c-.42-1.49.6-1.29.79-1.58-.2.3.45,1.63-.79,1.58Z"/>
      <path d="M193.74,273.47c-3.61-.87-6.66-.74-10.29-.79,4.21-1.7,6.6-1.15,10.29.79Z"/>
      <path d="M184.24,290.08c0-.17-.76-1.09-.79-2.37.28.83.51,1.31.79,2.37Z"/>
      <path d="M162.88,274.27c.18-.25-.45-1.64.79-1.58.44,1.47-.73,1.44-.79,1.58Z"/>
      <path d="M162.88,286.12c-2.03,1.56-3.13,2.04-4.75,3.16.99-.6,3.86-2.51,4.75-3.16Z"/>
      <path d="M469.09,146.2c.42-.96,0-3.08.73-3.57,2.93-1.95,3.87,2.66.87,1.56,1.35,4.53-2.67,8.44-3.23,13.43-2.09,18.7,3.25,42.46,1.61,61.72.16,2.14.9,4.62,3.46,4.31,17.39-3.58,42.75-7.03,59.7-1.01,6.29,2.23,4.14,6.83,8.85-2.92.37,13.76-16.31,19.76-26.89,24.51.09,1.32,1.91,1.05,2.76,2.36,3.47,5.39-3.79,13.42-2.77,15.01,1.16,1.82,5.91-1.16,6.33-.78.86.78-1.69,3.02-2.6,3.37-3.15,1.22-3.81-.86-4.93-.79-1.72.11-3.2,6.1-9.86,4.12-.71-.21-1.63-1.94-1.99-1.95-.84,0-2.05,3.44-3.31,3.85-1.7.55-3.35-.73-4.52-.51-1.31.24-2.03,2.76-4.07,2.99-2.32.26-4.72-2.59-5.1-2.39-.89.48-2.59,8.03-7.13,1.59-1.21,9.37-9.47,5.79-7.52-2.37-2.39,2.23-1.97,5.76-3.41,8.45-1.21,2.27-9.87,6.05-11.47,5.67-3.57-.86-.65-5.63-3.32-6.21-2.97,1.32-3.32,8.86-5.14,9.92-2.12,1.23-2.56-2.84-2.78-2.81-.71.11-4.84,5.93-5.93,4.73-1.35-1.48,5.38-6.71,5.97-8.65.71-2.36-.46-9.85,1.55-10.31,4.02-.93,2.79,9.01,1.18,11.06,7.98-14.66,8.26-.03,9.09,0,3.66.15,1.99-4.7,2.29-6.34,1.69-9.41,7.89-2.4,4.06,3.98,3.75-1.16,4.13-8.98,6.15-10.84,5.19-4.77,2.44,7.59,5.7,6.88,2.09-.45,3.06-10.36,7.51-11.54,7.42-1.97,4.53,8.18,8.7,6.44,5.32-2.22-3.38-13.92,4.36-13.95,6.79-.03-1.91,13.05,3.16,11.94,1.8-.4,4.35-9.23,6.4-11.01s4.85-1.5,5.02-1.7c.31-.34.82-7.12,2.84-8.62-16.13,6.92-33.19,10.96-50.05,15.6-42.11,11.58-85.4,19.25-127.76,30.46-4.61,1.22-26.52,9.46-29.1,6.88-1.07-1.07.21-1.38,1-1.76,9.44-4.58,25.85-6.3,36.02-10.65,5.9-3.09,49.2-9.26,50.81-11.3.11-.14-1.04-2.03-.8-3.46,1.56-9.33,12.24-21.04,16.23-29.72-9.09,8.14-23.82,10.02-35.63,14.2-14.52,5.14-28.83,11.06-43.51,15.81-1.26-1.43.5-3.02,1.6-3.94,2.65-2.23,31.2-12.35,36.97-14.45,4.98-1.81,25.55-6.98,27.78-8.41.47-.3,3.77-6.1,5.25-7.6,3.5-3.57,8.2-6.78,11.87-10.26-15.36.31,6.02-9.51,9.79-12.36.73-.55,2.49-1.6.14-1.45-3.23,2.66-14.25,3.87-16.84,5.7-.76.54-1.32,4.5-3.93,5.22-2.84.78-3.66-1.23-5.21-1.27-2.95-.06-20.97,5.82-25.23,7.17-77.56,24.55-144.62,59.53-217.14,94.52-11.99,5.78-22.36,14.4-36.39,15.82-12.59,1.27-32.97-2.29-43.01-10.18,1.09,14.8.87,26.16,16.61,32.01,32.29,11.99,97.67-32.33,127.49-47.32,15.75-7.92,31.99-15.22,48.15-22.24-9.9,12.56-27.07,16.65-41.16,23.69-32.34,16.15-89.23,53.65-124.61,51.05-23.36-1.71-29.18-16.7-30.47-37.55-1.59-25.73,9.13-43.16,29.84-57.21,1.33-.9,10.31-6.48,10.95-6.45,4.58.21-7.66,7.13-8.25,7.57-12.42,9.45-24.74,20.56-28.32,36.53-1.8,8.04-2.4,14.76,5.04,19.8,7.82,5.29,4.73,1.97,4.94-1.84.52-9.47,12.69-21.28,19.7-27.23,1.87-1.59,14.45-11.19,15.59-11.11.7.05.57,2.42.21,2.99-.41.66-10.38,7.3-12.49,9.25-4.78,4.41-24.52,23.73-19.85,30.69.95,1.42,14.65,4.27,17.11,4.48,5.42.47,29.94-2.16,32.66-6.46.73-1.16.75-7.47,2.53-9.32-3.83-1.54-7.4,6-7.93,6.31s-3.04-1.69-5.09-1.64c-3.32.07-6.6,3.87-8.07,3.93-4.1.15-.34-12.57,6.54-13.32,3.23-.35,4.41,1.57,4.66,1.54.77-.07,4.9-13.83,4.85-14.6-.07-1.16-8.81-11.43-10.33-13.9-5.94-9.66-15.02-40.09-13.83-50.86.23-2.13,1.95-4.57,1.94-6.39,0-2.66-2.83-4.92-2.63-7.72.32-4.61,6.13-.55,6.94-1.38.55-.56-1.05-12.51-3.14-13.84,1.33-2.44,2.8,1.18,3.92.4.39-.27,2.35-8.03,2.37-9.09.11-6.09-5.86-5.93-9.45-8.73-2.69-2.1-5.67-7.4-6.83-10.64-.67-1.86.49-3.21.26-4.25-.21-.97-2.17-2.28-2.65-4.4-1.12-4.94-.95-18.04-.31-23.36.25-2.06,2.82-11.26,5.5-9.06.52.43,2.3,9.95,4.11,12.9,2.99,4.87,11.08,9.65,13.95,15.32.31.61,3.39,12.56,3.42,13.25.21,5.36-3.62,8.88-4.02,11.92-.13.99,1.27,7.24,1.59,7.45.55.37,8.64-3.98,8.76-4.47.29-1.24-1.01-3.65-.91-5.4.16-2.61,2.11-4.17,2.4-6.41.35-2.69-.98-4.82-.76-6.97.16-1.62,4.15-10.03,4.01-11.88-.03-.34-5.19-3.06-1.69-5.64,2-1.47,3.76,1.13,5.22,1.22,7.24.44,6.45-4.4,9.64-5.34,2.96-.87,5.3.71,7.57.45,2.84-.33,5.06-4.09,8.97-4.52,3.66-.4,5.91,1.96,7.74,1.58.74-.15,2.01-8.65,6.45-4.8,2.02,1.75-.55,4.88-.24,6.62.19,1.05,3.88,4.57,4.71,6.27,1.14,2.35.99,4.81,1.9,6.81,1.42,3.11,5.29,4.39,6.58,6.92.81,1.58.11,5.56,1.83,6.41,1.84.91,5.84-1.19,6.21,2.17.39,3.48-4.79,3.57-6.8,5.1-5.68,4.33-11.67,24.5-17.6,25.93-1.91.46-4.43-.56-4.93-.24-1.04.67.73,8.68-4.22,8.95-3.26.18-2.32-4.87-3.64-5.81-2.01-1.43-8.17,1.25-11.96.08-2.14-.66-3.13-3.09-4.76-3.93-2.06-1.06-4.97-.86-7.04-2.45-2.06-1.58-3.1-6.51-6.6-6.52-.77,0-7.71,1.94-8.48,2.56-2.86,2.29-3.96,9.51-3.12,13.07,6.78-5.87,4.34,1.91,5.06,4.75,3.49,13.66,18.55,18.96,26.19,28.45,5.58,6.95,6.15,15.83,13.9,20.9,2.6,1.7,5.02,3.34,7.45.42,6.07-7.3-21.22-17.16-18.57-20.52.16-.21,4.87,3.49,4.73.41-1.37-2.61-5.06.15-5.93-1.16-2.49-3.76.6-14.98,3.19-11.11.58.86-1.74,4.36.37,4.74,1.52-12.6,13.94-12.65,22.94-16.22,3.64-1.44,6.75-4.26,10.33-5.49,10.73-3.67,5.89.26,5.53,7.11-.53,10.24,1.75,20.49,3.93,30.42-3.89-4.71-17.79-25.92-25.36-18.42-6.16,6.11,12.01,16.17,16.13,18.55,6.51,3.77,23.21,7.45,19.95,18.09-1.11,3.63-5.46,4.19-5.89,4.78-.27.37.09,6.85-2.07,8.6,58.35-31.7,120.52-56.73,184.78-73.88,2.04-1.9-.61-.77-1.58-1.61-2.78-2.41-.95-9.44-1.62-12.62-.58-2.72-2.65-1.91-2.28-7.03.33-4.53,8.97-20.96,12.99-22.62,4.52-1.87-4.14,7.79-4.45,8.28-1.69,2.66-5.77,10.34-6.17,13.52-1.03,8.25,2.53,5.35,2.9,7,.67,3.03-2.93,11.46,2.18,14.66,3.31-.61-2.59-.54.74-2.4,4.57-2.54,3.93,1,5.09,3.67,1.95,4.49,4.13-7.01,4.1-8.77-.04-2.27-2.8-9.54-2.43-9.88s2.32.73,3.21.38c3.64-1.46,4.1-15.59,4.7-16.19.4-.4,2.89.12,3.04,1.16.27,1.94-3.4,13.33-5.35,15.12-1.23,1.13-3.13.99-3.24,1.13-.39.47,4.49,9.3,1.97,11.83,6.26-4.23,17.14-4.48,23.31-7.53,1.57-.78,2.59-3.31,4.75-3.95s6.14.08,7.05-.47c.84-.5,1.36-5.96.56-7.06-.58-.8-6.1-1.33-7.57-2.33.92-2.48,1.5-.89,2.37-.78.51.06.75-.02.79,0,.82.34,2.32,2.24,3.16,1.58,1.61-1.27-1.66-1.7-2.37-2.37,1.42-2.21-.07-1.63-.79-3.16-.33-.69-1.76-3.97-1.98-3.96-.82.02-.25,3.04-.4,3.96-.12-.18-2.1.14-2.36-2.79,3.11,1.45,1.58-5.78-.81-1.95-.05.07-1.63.38,0,.79-3.3,3.13,1.45,2.11,1.59,6.32,1.18.28.89-1.35,1.57-1.57-.9,6.23-1.97.9-4.52.17-2.19-.63-5.07.1-7.56-.35-1.94-.35-3.36-1.91-4.89-2.09-1.01-.12-4.79,1.61-5.19.29-.09-.28,4.27-2.04,5.14-2.77,1.77-1.48,9.92-13.3,11.47-11.85,1.89,1.77-4.06,1.18,0,3.15-4.56.41-5.25,7.48-9.47,9.89.05,1.61,9.79,3.12,10.27,2.76.27-.21-1.93-3.41-1.42-6.49.72-4.27,3.62-5.65,4.65-9.23,2.89.31,5.67-.97,8.66-1.3,3.19-.35,6.67,2.22,8.23-2.77,2.22-7.1-5.34-13.84-11.11-16.48-1.84-.84-4.28-.34-5.06-1.65,7.52-.37,18.09,6.06,18.2,14.22,3.55-3.76,6.7-8.33,9.49-12.65-4.66,7.79-8.7,15.97-14.26,23.31l13.47-17.77c-1.71,2.96-11.73,17.6-11.77,18.7-.08,2.1,2.43,2.02,3.86,1.85-5.46,1.94-9.8-3.67-11.08-2.37,1.77-.79,4.46-.59,4.76-2.76-3.51-.2-7.37,1.21-8.71,4.34-.23.18-.66.57-.79.79-2.04,3.55.5,9.47,3.16,11.86-.36.36-.18.46,0,.79.46.85.74,1.77,1.58,2.37l3.15,6.32,1.59-7.1c-3.21-.46-.72,2.14-.8,2.78-.37,3.02-2.82-2.39-1.57-3.58.36-.34,5.49,1.02,8.72-3.55l3.15-9.88c3.69,8.44-5.73,15.51-4.75,23.31.34,2.73,2.59-1.97,2.78-1.97h11.47c.18,2.09.08,1.3-1.19,1.56-2.9.59-6.88.67-9.89.82l12.65,14.22-1.58-56.91c-4.05,4.83-5.62,13-9.57,17.71-1.4,1.67-1.94.85-3.08,1.26,2.03-.24,16.61-30.79,18.18-35.19-.44-.8-1.1.48-1.56.41ZM108.28,175.45c-3.09-4.68-.56-1.06,2.37-1.18-.15-2.76-7.31-7.26-7.1-8.71.12-.82,2.29-1.08,2.36-1.2.33-.58-5.19-11.24-.39-12.62.67-.19.97,3.35,1.26,4.11.25.67,1.47.66,1.55,1.14.15.97-1.04,2.43-.83,2.65.35.36,4.66-2.78.79,2.37l3.16-3.94c.86,2.64-1.52,4.58-1.6,6.7-.11,2.96,3.97-2.32,1.62,3.57,2.23-1.08,1-3.98,3.15-.79l1.59-3.15c-1.32,5.22-5.13,16.09,3.16,7.9,1.55,2.23-2.63,6.82-2.36,7.1,1.97,2.13,3.33-7.41,4.74-7.1.67,2.68-3.48,8.13-3.16,9.86.63,3.37,7.56-4.74,3.18,4.36l3.15-3.95c-.77,3.58-3.63,5.54-1.56,9.48,1.9-2.15,3.23-6.27,3.22-9.08,0-4.15-5.25-17.54-8.2-20.74-2.18-2.36-6.76-4.72-9.15-8.65-2.35-3.85-1.98-7.71-4.07-11.33-1.53,3.93-2.81,8.01-3.16,12.25-.53,6.34,1.27,21.84,3.35,27.47.37,1,3.96,7.54,4.53,8.12,3.24,3.3,16.96,8.38,4.33.42-.34-1.15-6.2-7.26-4.7-7.16.6.04,7.03,5.84,6.74,2.76-.38-4.08-5.75-4.01-7.92-7.12l5.53,1.97c-1.35-1.73-3-2.26-4.75-3.94.31.22,2.93,1.29,3.16.4-.84-.99-2.7-2.04-3.95-1.98ZM183.45,159.63c.4-.34-2.04-1.99-2.25-2.92-.42-1.85,4.05-12.94-3.26-2.17-.65.95-2.47.97-2.4,1.53.35,2.72,3.85-.56,3.94-.39.38.7-.65,3.36.78,4.4.16.12,3.06-.36,3.18-.46ZM166.93,176.93c-3.79-7.02,11.56-12.85,6.93-20.76-3.71-6.35-10.2,1.99-13.15,2.55-3.53.67-8.97-2.79-11.47,3.49-3.78,9.51,7.57,9.8,7.37,16.02-.28,8.6-10.41-4.02-12.37-4.37-8.68-1.56-5.97,6.95-6.75,11.4-.76,4.32-6.24,12.51,3.43,12.14,4.51-.17,15.24-10.75,11.27.96,2-.23,6.98-6.91,5.95-7.88-.21-.2-5.34-1.25-5.63-1.22-3.8.32-7.02,8.36-11.79,5.58-3.6-2.1-.02-7.17.04-9.48.08-2.98-2.7-4.08-.06-7.14,4.51-5.23,6.76,3.68,10.27,4.79,1.49.47,6.39.56,7.05-.55.19-.31.87-6.9.79-7.25-.67-2.78-8.08-3.01-5.85-10.06,1.42-4.5,4.82-2.35,7.59-3.48,2.14-.88,6.13-5.17,8.26-2.81,4.03,4.48-3.77,10.76-4.32,14.69-.15,1.05.49,6.43.78,6.66.42.33,7.35-2.25,7.71-2.57,2.53-2.28,1.89-12.23,8.65-13.02,3.95-.46,3.51,5.91,4.67,8.42.93,2.02,6.57,4.89,2.14,8.8-3.99,3.52-16.09-2.68-17.51,6.09-1.36,8.44,14.57-.95,16.39,5.5,1.27,4.52-4.32,5.62-5.49,7.67-1.3,2.27-.1,5.94-3.14,7.2-5.18,2.15-5.47-7.13-7.5-9.88-5-6.8-11.04-3.23-9.81,5.07.46,3.12,5.04,8.5-.82,10.4-4.79,1.55-4.78-3.58-6.89-4.29-2.35-.79-4.79.98-7.06-1.64-3.12-3.58,1.66-6.83,1.26-7.18-1.29-1.08-8.66,4.02-4.32,9.45,1.89,2.36,5.48,1.81,7.44,2.84,4.05,2.11,3.4,6.13,10.91,3.7,11.24-3.64-2.07-16.38,3.38-19.59,5.8-3.42,5.31,8.12,5.72,10.14,1.01,4.99,6.84,8.49,10.93,4.74.68-.62,8.94-15.07,9.14-15.97,3.15-14.15-16.62-.95-17.9-8.36-1.49-8.59,11.86-.35,16.55-2.45,11.63-5.21.51-10.99-1.37-15.05-1.65-3.57-.48-9.42-5.96-8.97-9.55.78-7.69,14.86-13.06,16.21-.54.14-2.22-.24-2.37-.5ZM105.9,158.84c.57-.85-.38-2.16-.77-1.57-.57.85.38,2.16.77,1.57ZM178.7,158.85c-1.24-1.35-3.19,2.73-2.36,3.95,1.35-.15,3.12-3.12,2.36-3.95ZM106.31,160.43v.79l.4-.4-.4-.4ZM162.89,170.71c2.36-.57,7.13-9.43,3.53-10.28-1.56-.37-3.55,2.58-4.9,2.99-1.84.57-3.96-.3-5.77.56-4.34,2.06.79,8.56,2.78,8.29,1.66-.23,1.55-14.37,4.36-1.56ZM147.05,162.81c-.4-.44-3.23.9-4.31.77-1.29-.16-3.82-2.09-4.38-1.56-1.26,1.19,2.36,1.94,2.47,3.57.14,1.94-2.6,5.65-1.68,6.7.16.18,4.55-.65,4.74-.8.23-.17-2.69-4.25-1.58-5.52.25-.28,4.14,1.39,4.74.79.14-.14.13-3.8,0-3.95ZM183.3,166.92c-2.88-4.26-9.23,7.79-7.75,9.31.57.59,4.92-2.64,6.33-1.57.75.57-4.84,5.45-3.95,6.31,1.05,1.02,9.36,1.61,10.19-2.14.48-2.2-2.45-3.38-3.24-5.2s-1.05-5.94-1.57-6.72ZM107.49,166.76c-.85-.57-2.17.38-1.57.77.85.57,2.17-.38,1.57-.77ZM168.42,175.45c1.94,2.18,4.79-7.54,4.73-8.69-2.2.46-5.91,7.37-4.73,8.69ZM154.96,179.4c2.12-2.36-9.73-11.67-10.28-11.06-2.18,2.42,9.56,11.85,10.28,11.06ZM110.26,169.13v.79l.4-.4-.4-.4ZM112.23,173.86c-.19-1.02-.33-3.29-1.57-3.15.18.94.29,3.25,1.57,3.15ZM162.08,171.5c-2.09-.18-1.3-.07-1.56,1.19-.21,1.05-1.09,7.99-.81,8.29.22.23,3.85-.62,3.96-.8.23-.38-2.66-6.84-1.59-8.69ZM430.31,185.72l6.75-9.46c-3.64,2.27-5.55,2.98-6.98,7.25-.24.72-1.25,2.41.23,2.21ZM115.4,179.4c.26-1.17-.35-1.67-1.19-2.35-.16.72.32,2.71,1.19,2.35ZM116.59,177.03v.79l.4-.4-.4-.4ZM172.66,182.86c11.51-8.86,2.29-4.15-4.24-1.87,1.11,5.59,1.62,3.89,4.24,1.87ZM148.64,184.14c.37-.38-5.25-8.87-7.57-3.93-.68,1.46,1.29,3.15,1.29,5.12,0,1.74-4.68,10.95,2.3,7.9.37-.16,4.63-4.44,4.76-4.75.77-1.89-4.25-1.22-4.74-3.15-.2-.78,3.8-1.04,3.95-1.19ZM133.59,199.17c-12.13,9.31-8.33,1.2-11.71-7.66-1.42-3.73-3.79-8.32-6.47-11.31,3.31,8.49,6.4,15.43,5.52,24.88-.34,3.63-.84,8.82-4.74,7.13,3.6,5.75,1.6,12.4,3.97,18.57,1.73.75,2.97-4.21,3.11-5.2,1.35-10.02-.89-14.15,6.8-23.25,1.34-1.59,3.99-.72,3.53-3.18ZM162.67,181.91c-6.87,1.41-2.57,11.92,3.6,10.01,4.58-1.42,3.22-11.41-3.6-10.01ZM202.44,184.15c-.34-.29-3.73.34-5.05-.11s-1.03-2.38-1.67-2.26c-.51.1-2.57,2.45-1.98,3.15.13.16,4.16.41,3.95,1.19-.24.9-7.84,3.42-4.74,5.93,1.48,1.19,2.28-2.88,3.65-3.86.4-.29,7.74-2.4,5.84-4.04ZM158.13,184.93c-.28-.29-7.23.68-7.9,1.57,1.34-.06,7.48,2.86,7.9,2.38.13-.15.14-3.81,0-3.95ZM182.66,186.53c-1.64-1.61-10.48-2.44-7.9,1.55.83,1.29,9.98.49,7.9-1.55ZM193.73,186.53c-.51-.48-3.6-.46-3.95,0-2.02,2.7,5.06,1.06,3.95,0ZM115.4,188.11l-2.35-.41c.55.91,2.36,2.15,2.35.41ZM116.59,188.89v.79l.4-.4-.4-.4ZM175.54,197.58c1.32-1.22-7.84-9.69-7.89-4.34,0,.94,7.31,4.89,7.89,4.34ZM162.09,192.85c-.09-.14-3-.93-3.16-.8-.38.32-2.06,8.15-2.78,9.47.83-1.72,6.91-7.11,5.94-8.67ZM178.69,207.07c.3-.2.88-5.23,1.67-6.64s8.85-5.71,4.14-7.46c-1.03-.38-7.89.38-8.17.67-1.16,1.18,4.09,5.44,3.16,6.31-.5.47-4.89-1.41-5.53-.78-.98.98,1.98,9.73,4.73,7.9ZM151.8,194.43c-.76-.75-5.9,2.96-7.1,3.59-.32.17-7.61,1.74-5.56,3.51,2.07,1.79,14.11-5.68,12.66-7.1ZM450.89,196.79l.41-2.35c-.92.55-2.15,2.36-.41,2.35ZM447.73,201.54c-1.74-.63.15-2.37-1.57-2.37l-1.6,7.89c-2.02-.53,2.07-4.66-1.57-3.95l-2.37,7.12c4.17-5.24.49.53,3.93-.42-.84,5.33-2.66.57-3.14,1.21-.35.47.77,2.61-.8,2.37.03-4.66-3.73-3.49-1.91-.75.48.73,1.74.57,1.91.75.27.28.23,1.98,1.19,2.37l.4-2.36c2.25,4.28,5.09-.21,1.59.4,1.93-2.63,1-4.25,2.36-7.52-.21.26.13,2.38,0,3.16,1.4.33.3-1.61,1.23-1.62.54,0,1.66,1.13,1.92.83.79-.94-.67-2.69-.78-3.16.69-1.7,1.55-4.58-.79-2.37-.06-.51.06-1.07,0-1.58,1.55.56,1.36.16,1.47-1.11.19-2.06.4-7.06-2.26-5.21,1.75,2.1.59,4.63.79,6.32ZM139.14,198.39c-.09-.14-2.65-.92-3.2-.48-.84.67-.64,2.85-1.5,4.07-.57.81-3.1,1.66-3.19,2.33-.25,1.87,4.89-.23,5.83-.18s3.04,2.03,3.64,1.36c2.88-3.17-4.48-2.16-4.74-2.37-1.13-.95,3.54-4.13,3.16-4.73ZM154.97,199.17c-.58-.46-8.9,3.08-7.83,6.58.76,2.47,5.15,1.71,7.01,2.53,1.28.57,2.39,2.89,3.55,3.58,6.81,4.08,2.5-9.8,2.01-10.32-1.15-1.23-5.21,5.2-6.32,3.94-1.33-1.51,1.83-6.11,1.58-6.31ZM168.41,199.17c-.64-.41-2.87.14-3.02,1.16l4.2,13.06c1.96-1.29.76-1.69.56-2.88-.35-2.03-1.26-11.02-1.74-11.33ZM439.82,206.29c-5.81-1.67-7.81,4.97-10.46,6.83-3.78,2.66-10.78,5.42-15.09,8.33-1.88,1.27-3.86,2.37-5.29,4.2-.58,2.15,3.39-.12,3.69-.27,3.94-2.05,7.57-6.12,12.12-6.86-4.97,4.48-24.65,19.58-26.48,24.93-1.5,4.41,2.87,2.64,5.09,1.12,2.52-1.73,12.86-15.27,13.89-15.38,1.59-.16-6.13,9.32-6.86,10.54-4.05,6.77-10.16,17.51-13.46,24.5-1.29,2.73-2.97,6.17-3.02,9.23l12.26-15.79c-.87,4.73-7.25,9.66-8.18,13.96-.26,1.21-.62,2.13,1.06,1.85,5.21-.87,14.17-27.61,18.2-32.41.73,3.95-11.19,29.83-9.9,30.8,1.66,1.24,10.97-2.17,9.51-6.31,1.96.44-1.09,4.49-.8,4.73,3.63,2.96,3.64-16.9,3.96-18.17,1.4.55.89,4.69.82,5.96-.12,2.19-1.63,10.31-.82,11.42.19.26,6.04-1.41,6.24-1.66.88-1.14.6-25.05.89-28.76.42-5.35,1.64-18.53,4.05-22.83,1.79-3.19,5.19-3.45,5.41-3.71.09-.11-.94-1.45-.43-2.31s3.53-1.85,3.61-3.97ZM461.97,237.9c-1.39-.49-4.37-2.88-3.94-.41.54,3.14,13.24,16.29,16.32,16.77,1,.16,4.76-.76,5.02-1.76.88-3.34-13.51-9.44-15.01-13.42,3.51.95,8.14,6.95,11.47,7.51,1.7.28,1.01-4.91.76-5.48-1.25-2.88-11.5-8.21-13.82-11.51,1.24-.67,4.46,3.13,4.72,2.78.32-.44.09-8.25-.4-9.47-.42-1.04-13.99-16.18-15.03-16.61-1.26-.52-2.34,5.18-2.56,6.12-.4,1.74-2.59,13.18-2.44,13.87s5.29,5.77,6.52,7.73c4.56,7.26,5.39,14.51,13.2,20.01.93.66,6.03,3.33,4.67.49-.25-.52-7.01-4.59-9.11-7.12-3.12-3.77-9.93-15.67-.39-10.28.12.2-.13.67,0,.79ZM448.51,211.02c.57-.85-.38-2.16-.77-1.57-.57.85.38,2.16.77,1.57ZM447.73,212.6c.08-.12-.72-2.64-1.57-2.36-.68,1.44.68,3.68,1.57,2.36ZM424.39,212.6v.79l.4-.4-.4-.4ZM173.16,214.97c.57-.85-.38-2.16-.77-1.57-.57.85.38,2.16.77,1.57ZM435.07,214.98c-2.53,2.67-1.02,9.26,1.58,6.32-6.14,3.64-.51-.65-4.74-1.58,1.6,3.48-.73,4.22-.77,4.49-.4,2.44-2.24,19.24-1.61,20.02.07.09,1.96.09,2.37,0-.38.17-2.39,1.11-2.43,1.24-1.19,3.76.58,16.7-.73,21.68,6.77-.08,1.22-11.42,1.56-15.36.04-.47,1.62-.47,1.65-.89.09-1.27-1.85-3.47-1.63-5.09,2.14-.43,1.37.52,1.94,1.58.91,1.68,2.99,5.57,3.6,7.11-1.77.02-3.69-2.72-3.95-2.37-.41.56.9,13.05,2.07,13.37,7.14,1.96,3.21-7.65,1.88-11,3.54-.04,2.81-11.36,2.37-11.85-.22-.24-5.92,1.4-6.32,1.58,2.27-.54,5.02-3.6,3.95-6.32-2.14,1.24-2.38,4.03-5.51,3.57,1.63-2.2,4.45-3.35,6.31-5.15-.13.2-.26,4.16.39,4.74,2.34-1.34.98-6.86-.39-4.74.57-.55,1.81-4.28,3.16-3.95-.63,2.07-1,4.14-.78,6.32,1.42-.29,1.9-2.79,2.36-3.95.6-1.49,3.31-4.14.79-6.32.61-1.4.9-1.9,1.58-3.16-.63,2.21.18,5.96.79,0,.01-.11,2.05-.8,0-1.58.55-1.1-1.26-2.77,1.56-1.94-1.38-5.45,6.43-8.88-3.93-4.38-.17-.54-3.09-1.92-3.96-2.37-1.4-.72-.24-3.08-3.16,0ZM172.25,217.45c-.13-.18-2.9-1.51-3.86-2.06-.58-.33-2.17-2.21-2.34,0-.14,1.79,2.18,1.74,2.75,2.77s.3,4.59,1.6,4.71c1.08.1,2.84-4.07,1.85-5.41ZM395.9,219.72v.79l.4-.4-.4-.4ZM129.64,263.19c-2.28-9.1-6.06-19.11-4.55-28.66.19-1.19,6-14.08,2.58-14.01-.6.01-4.76,9.78-4.96,10.84-1.23,6.41,1.35,24.66,4.97,30.28.61.94-.16,2.02,1.97,1.55ZM473.05,225.26c3.19,2.41,23.23,21.12,24.86,21.26,8.38.72,23.95-7.76,30.95-12.55,5.61-3.84,10.1-5.64.99-8.94-16.19-5.86-40.08-2.42-56.79.23ZM111.45,224.47c5.63,12.91,6.16,28.36,15.43,39.5-.45-3.56-2.76-6.32-3.69-9.75-2.52-9.29.31-28.77-11.75-29.76ZM470.66,225.26c-2.34-2.09-.9,8.89-.63,9.35.2.33,5.15,2.92,6.56,4.11,1.89,1.6,11.21,10.29,12.26,10.64.27.09,5.37-.97,5.56-1.18,2.07-2.26-23.46-19.4-23.75-22.91ZM200.06,226.05c-.72-.83-3.64,1.48-1.17,2.36,1.64.58,1.47-2.01,1.17-2.36ZM447.74,262.41c.63.4,14.06-3.65,14.23-4.37.12-.51-4.27-7.62-4.92-9.3-2.9-7.48-3.68-15.67-10.9-21.12,2.13,3.9-6.27,12.37-6.2,13.68.06,1.12,6.84,20.5,7.79,21.11ZM113.04,235.54c-1.75,8.91,1.41,20.24,3.7,29.1,1.03,3.98,5.96,21.9,8.97,23.45,2.51,1.29,11.91,0,14.81-.99,5.55-1.91,21.1-14.08,20.76-20.24-.68-12.08-19.09-20.18-25.7-28.16-3.82-4.62-7.18-17.29-9.02-3.49-.56,4.22,1.54,22.76,3.88,25.82.77,1,2.22.58,3.11,1.82,5.51,7.67-6.03,12.29-9.45,10.26-.75-.45-2.44-4.72-2.25-5.47.42-1.68,3.95-1.79,3.84-2.45-.07-.42-4.05-5.13-4.89-6.97-3.3-7.16-4.29-15.57-7.75-22.67ZM199.21,229.28c-.61-.8-6.67-1.82-7.05.7,1.65-.33,10.23,3.45,7.05-.7ZM198.48,235.53c2.34-3.89-6.2-4.92-9.02-4.71-1.55.11-2.85,1.44-4.42,1.56l13.44,3.15ZM198.39,236.41c-1.84-2.52-25.5-3.22-28.38,2.27,4.87-1.22,9.52-2.55,14.66-2.39,3.22.1,13.35,3.72,13.82,3.19.1-.11.15-2.74-.09-3.07ZM199.27,245.02c5.13-7.07-22.71-8.41-26.11-6.32-.13,1.92-.2,1.36,1.18,1.58,5.07.82,10.21,0,16.11,1.31,2.16.48,8.54,3.81,8.82,3.43ZM168.81,238.69v.79l.4-.4-.4-.4ZM167.23,239.48v.79l.4-.4-.4-.4ZM174.74,241.07c-.91.09-5.57,1.5-5.53,1.96.19,2.26,5.5-1.02,5.53-1.96ZM177.12,243.43c.44-.24,1.78-.95,1.58-1.57-2.18.03-5.14,1.1-6.33,3.14,1.48,0,3.47-.87,4.75-1.57-2.6,1.2.76,2.42,2.37.78.73-.74-1.55-1.16-2.37-.78ZM199.04,246.04c-2.32-2.3-12.09-4.06-15.59-4.17,1.61,2.39,15.66,8.08,16.61,7.1.39-.4-.5-2.42-1.02-2.93ZM165.25,246.6c1.57-1.12,2.09-.96,3.96-.8l-3.95-1.58,2.36-1.56c-2.81-.57-3.19,2.04-4.73,3.56-.33,2.26,1.13.25,2.36.38-3.46,2.47-3.93,7.24,1.56,1.97l-3.16,4.74,3.58-2.74-2.77,5.13c.36,1.02,1.85.03,2.37-.4-1.56,5.35,1.05,5.93,4.75,7.91.3.16,1.04,2.38,2.36,1.58.25-.15,1.93-4.32,3.59-4.72-.51,2.24-4.16,3.41-2.39,6.3,2.24-2.59,3.42-5.35,7.52-4.73-.1,1.43-2.15.53-3.6,1.53-2.61,1.79-3.75,6.43-1.16,4.77.27-.17,2.49-4.55,4.76-3.93l-3.93,3.56,3.92-.81-3.93,3.57c3.45-3.25,7.47-2.34,11.86-2.36-1.8,1.41-11.56.17-11.07,4.33.2,1.71,3.03.4,3.95.41-.49.2-1.79.83-1.58,1.57,8.71-.94,21.32,5.19,23.55,14.03.19.75.87,3.52-.6,3.37-.9-10.94-12.92-17.18-22.95-16.59l12.12,4.87c4.15,2.87,4.59,4.89,6.86,8.56-.92-1.35-12.99-13.41-12.66-9.89.07.75,9.33,7.07,9.49,9.88l-8.74-8.26c-.88-.78-2.98-1.14-3.09-1.27-.2-.25,2.21-3.17-3.99-1.51-.05,1.82,2.37-.43,3.16,0,.07.04-.64,1.21-.34,1.6,2.33,3.01.55,1.07,1.13,2.34-1.91-1.29-3.95-2.87-6.32-3.15,2.35,1.36,2.89,2.77,3.95,3.94-.14-.11-2.63-1.22-3.15-1.19,1.08.78,1.2,1.66,1.56,2.78-3.42-1.62-.04.96-2.36,2.37l-.79-3.94c-.09,8.29-1.67,22.07-8.71,27.66.38-2.67,4.58-7.86,5.76-12.03,1.37-4.84,4.14-15.4-1-18,.1,7.18-3.6,13.16-7.13,18.97,2.89-5.73,5.99-13.43,6.32-19.76l-5.37,12.45c-.09.92-1.58,1.5-1.74,1.78,1.39-2.63,2.79-6.55,3.57-9.47-2.01,2.79-5.03,4.41-7.53,6.31,3.24-2.88,6.18-7.13,8.69-10.69.28-2.66-2.7,1.65-3.16,1.99.48-.96,2.05-3.96.4-4.73-2.33,4.25-6.41,6.7-9.89,9.47,1.52-1.33,8.96-9.18,8.72-10.66-.48-2.94-2.52,2.36-2.81,2.71-3.56,4.3-9.7,9.96-15.4,10.72,3.65-1.08,16.95-11.84,16.6-15.03-.1-.88-2.16-.98-2.36-1.18-.17-.17-.41-2.37-1.19-2.35-.86.02-1.57,3.01-2.23,3.69-5.77,6.02-12.41,10.93-19.53,15.26-2.26.44-12.93.36-13.45.8-3.97,3.32,11,.98,11.86.79-3.22,1.81-6.01,1.73-9.49,2.38.38,1.42,4.34.85,5.53.78-6.78,3.21-3.23,4.81,2.37,4.74-1.3.71-2.85.47-2.37,2.37,3.56,1.44,9.78-2.79,4.74-3.16,1.09-.74,1.98-.67,1.57-2.37-1.62.37-5.92,2.79-7.11.8,2.77-.27,6.59-.28,7.91-3.16-2.43-.14-4.71.65-7.12.78,1.69-.8,9.49-3.9,10.76-3.97,3.84-.2,3.9,1.85,9.81-1.57-2.09,1.51-4.09,3.03-6.33,4.35.18.91,2,.12,2.37.39.1.07-1.01,1.57-.46,2.39.43.66,1.99.67,2.05.77.09.15-1.17,2.13-.75,3.46,1.4,4.39,10.45-6.86,12.23-8.18.06,3.59-11.01,10.36-11.22,11.4-.13.64.96,4.32,1.72,4.38.4.03,5.41-4.9,5.93-5.52-.98,1.42-5.59,7.04-5.55,7.5.27,2.75,4.76-1.24,5.55-1.97-1.25,2.33-2.22,5.08,1.58,3.55,7.04-2.82,11.06-18.89,12.69-25.3.32-1.28-.9-2.37,1.56-1.97-.88,5.96-2.51,12.61-5.38,17.94-1.09,2.02-7.17,8.75-7.27,9.34-.4,2.43,4.85-.65,5.53-1.19-.48,3.39,1.98,2.55,3.43.6,2.53-3.4,5.5-14.31,5.28-18.78,1.58.2.73,3.91.57,4.93-.4,2.55-5.07,14.16-4.53,14.83,1.55,1.95,5.53-7.72,5.53-9.09v-14.62s.79-.04.79,0v15.42c0,1.1-5.11,9.88-.17,5.36l2.53-16.03-1.58,16.19c1.47,1.39,1.63-.08,1.97-1.15,1.48-4.68.68-12.29.41-17.41,1.54,5.85,2.28,11.37.8,17.39.8.33,1.57-1.83,1.57-1.97v-11.86c0-2-1.87-6.12-2.37-8.3.16.13.67-.13.79,0,.25.27.59.54.79.79,2.36,4.98,1.24,14.26,1.59,19.76,5.68-5.09,1.96-13.91-.8-19.76,2.08,2.93,3.98,5.37,4.55,9.28.39,2.66-.86,8.55-.58,8.9.1.12,2.52-1.13,2.76-1.58,2.23-4.24-1.77-11.62-2.77-15.81,3.17,3.82,5.08,10.08,3.96,15.02,6.33-1.58-.2-9.41-.79-13.44,2.72.72,3.99,10.54,4.75,11.06,3.87,2.67.62-9.15-.78-9.89,2.73,1.12,3.54,5.73,3.95,8.31,2.49-.84,1.28-4.42.78-6.32.35.57,1.79,3.21,1.97,3.16,4.82-1.32,1.2-10.59-.39-13.44,1.58,1.67,2.28,2.92,3.56,4.74.18-8.31-9.06-13.96-16.22-16.61-.2-1.48,1.5-.48,2.21-.24,4.09,1.38,10.4,5.53,12.03,9.73,1.71-.01.12-3.61-.2-4.16-3.71-6.49-14.65-10.8-21.97-10.07l8.69-.38c-4.18-3.75-7.62-5.16-13.44-4.36l5.53-.79c-.64-2.01-3.89-1.79-5.54-1.57.54-.26,1.78-.82,1.58-1.57l-6.32.77c.27-2.1,5-1.21,5.53-1.58.19-.13-2.34-3.67-2.54-3.76-.82-.39-5.11-.39-6.16-.18,2.51-.96,4.79-.46,5.54-.8.31-.14.47-6.66-2.38-4.73-.07.05.88,1.52.8,1.57-.31.19-1.85-.28-3.96.8.86.19,2.57-.65,2.37.78l-4.74,1.58c.01-.52,2.22-2.29,2.37-2.36-2.61-.57-2.53-1.26-5.54-1.58ZM159.71,249.76c-1.16-1.45.78-4.94-.77-5.53-.54,1.97-1.82,4.53.77,5.53ZM445.35,263.19l-5.53-18.17c.6,3.01-.74,6.75-.42,9.48.23,1.92,2.99,11.42,5.94,8.69ZM485.71,250.54c.26-.43-6.5-6.19-7.11-5.52-.25.28,2.06,6.91,2.38,7.11.21.13,4.61-1.38,4.73-1.59ZM513.39,257.66c.68-.4,3.41-9.13,1.58-10.27-3.03-1.9-4.5,11.98-1.58,10.27ZM200.86,253.71c1.62-1.45-4.67-6.54-7.12-4.73-.44.33,4.82,6.79,7.12,4.73ZM465.92,257.66c-.8-3.33-4.71-5.34-6.73-7.89,1.48,3.08,3.9,5.95,6.73,7.89ZM162.08,252.14c-.16-.19-3.62-1.02-3.95-.8-2.43,1.67,6.36,3.66,3.95.8ZM200.86,254.5c-1.69-1.65-3.39,1.18-.39,3.16.69-.27.5-3.04.39-3.16ZM494.4,261.62l-.38-4.74c-1.74,1.3-1.78,3.97.38,4.74ZM503.91,265.57c1.11,1.11,6.82-1.96,7.05-3.67.08-.56-3.19-4.99-3.5-5.01-1.74-.11-4.91,7.32-3.56,8.68ZM165.25,259.24c.4-.33-1.55-2.21-2.37-1.56-.41.32,1.58,2.22,2.37,1.56ZM124.16,267.99c-3.94,5.16,9.29,4.46,9.43-.42.02-.65-1.68-4.42-1.95-4.37-.29.06-3.05,3.13-4.07,3.85s-3.29.8-3.4.94ZM407.77,263.99v.79l.4-.4-.4-.4ZM480.18,271.1c1.62-.13,4.36-6.41,1.97-6.31-1.32.06-2.43,4.96-1.97,6.31ZM404.93,272.61c.29-.24,2.02-5.95,2.44-7.04-1.67.55-6.7,10.56-2.44,7.04ZM205.6,270.32c-.08-.09-1.92-.54-2.35-.41.93,2.17,4.01,2.24,2.35.41ZM209.56,272.69c-.09-.13-2.26-.96-2.77,0-1.75,3.27,4.44,2.36,2.77,0ZM395.9,273.47v.79l.4-.4-.4-.4ZM460.38,275.84c.57-.85-.38-2.16-.77-1.57-.57.85.38,2.16.77,1.57ZM208.78,278.21c.63.54,4.32-.05,3.95-1.96-.58-3.02-5.15.94-3.95,1.96ZM213.51,279.01c-.36-.25-5.8,1.06-3.95,2.36.88.62,5.66-1.19,3.95-2.36ZM178.31,280.59v.79l.4-.4-.4-.4ZM209.57,285.33c1.04-.24,3-2.34,2.36-3.16-.2-.26-3.64,1.31-2.36,3.16ZM154.97,318.54c-1.04-1.06-2.78-28.49-9.81-26.81-6.68,1.59,2.06,24.47,1.49,26.91s-8.74,4.9-7.5,10.17c4.39-3.06,22.53-7.03,25.3-10.29,2.95-3.47-9.05.47-9.48.02ZM142.3,304.3c.16-.17-.65-3.08-.8-3.16-.18-.1-2.87,1.27-3.94.81.02,1.13,4.5,2.6,4.74,2.36ZM140.75,315.34c-.41-.52,1.44-5.05.63-7.33-.34-.97-5.12-3.87-5.39-3.7-.92.59-2.8,13.88-4.36,15.82-1.29,1.6-2.68-1.94-4.74-2.06-4.91-.29-9.32,8.95-8.32,9.95.66.66,5.47-2.69,6.91-2.99,2.19-.45,4.73.53,5.79.18.98-.32,3.08-3.64,5.7-4.49s9.54.26,7.34-3.79c-.88-1.62-3.44-1.44-3.56-1.59ZM143.88,314.58l-.38-3.16c-1.68,1.07-1.48,2.57.38,3.16ZM169.21,316.15c1.3-2.1-12.8-3.61-13.45-3.14-.16.12.68,3.79.8,3.95.19.25,4.61-1.52,6.04-1.53s5.62,2.33,6.61.73ZM173.95,313.01c-1.22-.55-3.22.38-2.37.77,1.22.55,3.22-.38,2.37-.77Z"/>
      <path d="M195.32,274.27c-.56-.22-1.4-.75-1.58-.79.52.27,1.05.51,1.58.79Z"/>
      <path d="M158.92,286.12c-1.55,1.36-1.14,1.2-3.16,2.37.79-.57,2.46-1.81,3.16-2.37Z"/>
      <path d="M161.3,276.64c.69-1.14.85-1.35,1.58-2.37-.77,1.74-.56,1.18-1.58,2.37Z"/>
      <path d="M152.59,284.54c-5.16,3.33-7.16,4.94-13.45,6.32.52-.29,1.02-1.24,1.58-1.58,2.89-.56,9.38-3.27,11.87-4.74Z"/>
      <path d="M186.62,286.12c-.09-.13-.69.13-.79,0-.39-.82-.7-.69-.79-.79-.19-.2.18-1.41,0-1.58.47.76.88.89,1.58,2.37Z"/>
      <path d="M200.07,277.43c-.67-.48-4.28-2.91-4.75-3.16,3.36,1.32,2.5,1.32,4.75,3.16Z"/>
      <path d="M184.24,285.33c-1.07.14-.81,1.58-.79,2.37-.34-1.01-1.04-2.31-1.58-3.95,1.14.54,1.45.82,2.37,1.58Z"/>
      <path d="M166.84,282.96c-2,2.3-2.12,1.81-3.96,3.16.89-.69,3.25-2.54,3.96-3.16Z"/>
      <path d="M158.92,279.8c.14-.14,1.56-2.21,2.37-3.16-1.15,1.91-.95,1.57-2.37,3.16Z"/>
      <path d="M439.82,192.84c.19.17,2.36-.54,3.16,1.19.65,1.42-.57,2.88-1.57,1.97-.25-.23,1.63-.17-1.58-2.37-.09-.06.05-.53,0-.79Z"/>
      <path d="M203.23,280.59c-.65-.69-2.61-2.71-3.16-3.16.28.2,1.28.12,2.04.73,1,.79.78,1.9,1.13,2.43Z"/>
      <path d="M154.97,282.96c-1.07.79-1.17.87-2.37,1.58.51-.33,2.07-1.35,2.37-1.58Z"/>
      <path d="M431.11,187.31v-.79c1.56.37.27.53,0,.79Z"/>
      <path d="M183.45,282.17c.27.3.18-.71,1.58,1.58-.5-.48-1.24-1.31-1.58-1.58Z"/>
      <path d="M437.44,194.42s-.74.79-.79.79c-.25.01-.75.05-.79,0-.27-.32-.41-2.66-.79-3.16.28.02.66-.08.79,0,.38.23,1.03,1.85,1.58,2.37Z"/>
      <path d="M465.14,149.36c.58-3.2-1.36-15.26-.79-15.81,3.35-3.24,2.33,8.66,2.34,10.74,0,1.01.82,1.79.82,1.91,0,.26.02.53,0,.79-.16.38-.56,1.13-.79,1.58-.25.31-1.3.46-1.58.79Z"/>
      <path d="M166.84,282.96c.24-.28.61-.52.79-.79-.28.23-.51.54-.79.79Z"/>
      <path d="M158.92,279.8c-2,2.23-2.2,1.83-3.96,3.16.45-.33,3.78-2.98,3.96-3.16Z"/>
      <path d="M441.4,234.74c-1.37-.09-.42-2.09-1.58-2.37.81-2.67,2.02-3.13,2.37-3.95l-.79,6.32Z"/>
      <path d="M204.02,281.38c-.15-.27-.6-.49-.79-.79.26.27.54.52.79.79Z"/>
      <path d="M167.63,282.17c.21-.3.67-.54.79-.79-.25.19-.49.54-.79.79Z"/>
      <path d="M435.86,192.05l.79-.79-.79.79Z"/>
      <path d="M435.07,192.05c-.24-.01-.61-.06-.79,0,.04-.26-.04-.53,0-.79.09.14.51.42.79.79Z"/>
      <path d="M141.52,260.04c-.19-.18-3.31.49-4.38-1.58-2.58-4.98,4.41-3.07,3.57-5.14-.86-2.11-4.83-2.72-4.73-5.15,6.14,1.15,9.89,13.14,5.95,16.63-3.22,2.85.18-4.18-.42-4.77Z"/>
      <path d="M154.17,267.95c-3.43,7.86-13.51,14.69-22.15,15.01l13.39-6.77,8.76-8.24Z"/>
      <path d="M134.4,277.42c-1.58-1.52,6.27-4.58,7.06-5.19,2.5-1.92,4.18-5,7.16-6.28.32,3.85-13.39,12.26-14.22,11.47Z"/>
      <path d="M148.63,256.08c-2.36,2.36-8.99-6.07-2.8-5.55,2.61.22,3.67,4.68,2.8,5.55Z"/>
      <path d="M187.4,261.63c.86.39-1.15,1.32-2.37.77-.86-.39,1.15-1.32,2.37-.77Z"/>
      <path d="M179.49,290.86c-.39.86-1.33-1.15-.77-2.36.39-.86,1.33,1.15.77,2.36Z"/>
      <polygon points="188.6 281.38 188.99 281.78 188.6 282.17 188.6 281.38"/>
      <path d="M176.33,252.93c-.81,1.34-2.88.86-4.71,2-1.92,1.2-2.36,3.25-3.98,4.31.38-4.16,4.86-6.48,8.69-6.31Z"/>
      <path d="M170.01,260.83c-.31-1.53,1.06-2.19,1.98-3.14.24.99-.93,2.93-1.98,3.14Z"/>
      <path d="M163.43,183.44c4.54-1.08,5.06,9.49-.56,6.65-2.47-1.25-2.04-6.03.56-6.65Z"/>
    </g>
    <g>
      <path d="M466.78,100.43c-.23.37.45,8.29.74,8.61.42.47,3.53-1.78,5.72-1.44,1.57.24,7.01,3.18,6.97,5-.09,4.32-11.56.08-14.27,1.2-.18,1.65,2.75.36,3.17.79.48.48-2.6,12.78,5.93,1.58,1.35,3.37-.74,8.02-3.82,9.7-1.04.57-2.41-.29-3.29.54-1.08,1.01-1.79,4.65-2.01,4.78-.94.56-4.3-2.83-3.16-4.74-4.1,2.86-5.42,7.87-7.95.44-3.28-9.62,3.55-.96,3.99-1.23.15-.09.89-3.01.76-3.46-.7-2.3-8.57-.82.83-6.81-5.56-2.96-7.09,4.59-10.05,5.39-5.79,1.55-1.89-5.85.15-7.79,1.8-1.71,7.19-2.92,7.43-3.24.19-.26.31-6,.1-6.23-2.89-3.04-56.62,26.95-62.76,30.97-50,32.71-90.68,91.47-146.51,111.34-4.42,1.57-40.79,13.4-42.34,11.84-.4-.4.14-2.15.72-2.83,2.61-3.07,25.27-7.84,30.74-9.61,61.96-19.95,96.34-73.95,148.23-109.62,25.25-17.36,46.35-24.91,73.31-37.44,1.45-.67,1.66-2.5,2.3-2.61.89-.15,2.35,1,3.65.68,5.37-1.32,21.61-6.9,26.06-9.56,5.83-3.49,6.22-6.26,6.16-12.79-.02-2.14-2.34-17.92-3.16-18.6-2.22-1.84-48.67,15.2-54.8,17.58-39.7,15.49-76.37,36.77-109.35,63.87-31.31,25.73-54.9,62.36-92.17,81.83-3.52,1.84-31.12,14.22-32.86,13.81-.88-.21-.58-2.99.41-3.55,27.43-9.97,48.68-23.54,70.01-43.07,16.72-15.31,32.74-34.96,49.43-49.45,22.53-19.55,51.55-37.39,78.13-50.76,2.14-1.08,4.47-3.79,8.12-3.39-1.31-1.39-5.7-.91-7.54-.81-30.24,1.7-66.49,18.03-92.68,33.1-19.15,11.01-34.31,24.64-55.37,34.01-6.52,2.9-24.3,9.97-30.79,9.48-.2-.02-3.06-2.69-1.95-3.45s6.46-1.46,8.7-2.37c35.47-14.35,62.41-48.63,96.54-65.99-13.03,4.63-26.54,11.09-38.5,18.04-20.82,12.09-54.41,40.93-78.3,42.78-2.51.19-7.29-2.06-5.06-3.53,2.44-1.61,14.38-4.5,18.74-6.57,25.01-11.88,48.96-34.66,73.13-49.47,56.68-34.75,131.99-47.29,197.22-34.33,4.9,1.75,5.75,29.1,2.9,33.47-4.22,6.49-30.28,11.83-31.59,13.92ZM484.13,53.72c-50.43-7.78-107.39.18-154.26,20.18-37.83,16.14-67.58,44.86-102.89,65.18,30-12.43,52.81-34.58,82.55-48.35,5.26-2.44,34.03-14.41,37.72-11.71,1.31.95-17.51,9.45-18.73,10.14-23.95,13.5-45.29,32.6-67.27,49l-20.41,13.6c28.19-8.61,49.71-29.62,74.74-43.11,19.02-10.25,47.7-24.09,68.7-27.81,11.29-2,26.16-.86,35.82-2.95,4.32-.93,12.24-5.61,17.16-7.36,12.77-4.56,25.84-8.28,38.6-12.82,2.56-.91,6.46-1.99,8.28-3.97ZM329.44,85.33v.79l.4-.4-.4-.4ZM225.78,139.09v.79l.4-.4-.4-.4ZM224.59,139.88c-.85-.57-2.17.38-1.57.77.85.57,2.17-.38,1.57-.77ZM221.83,140.67v.79l.4-.4-.4-.4Z"/>
      <path d="M415.3,103.51c1.06.9,11-7.12,9.48-3.57-1.44,3.35-6.78,4.85-9.42,6.41-2.79,1.64-3.51,5.26-8.01,3.95-1.19-.34-4-3.68-4.72-2.83-.35.41-.25,7.66-2.81,10.23-2.02,2.03-4.06,1.09-5.85,2.06-2.91,1.57-5.54,7.29-9.92,7.37-2.31.05-4.5-2.29-4.76-2.26-1.33.14-1.21,4.32-2.16,5.34-1.37,1.47-3.88-.36-4.95.93-2.72,3.28-2.14,14.23-9.89,2.42-.52,4.16-2.08,9.05-6.33,10.74-.91.36-2.24-.65-2.38-.47-.79,1.05,3.66,9.53,2.36,11.06-2.18,2.58-4.3-10.37-5.52-10.27-.55,4.12-3,8.34-6.55,10.47-1.08.65-3.55.47-3.71.63-.33.37.5,11.99-2.41,8.66-.7-.81.57-20.58,1.65-21.26.87-.55,2.66.03,3.54.66,2.03,1.44,1.41,6.4,3.09,5.58,4.8-2.33-.08-19.26,10.25-17.39,1.73.31,2.99,2.37,3.21,2.36,1.15-.06,2.03-6.26,3.93-7.91.58-.5,7.49-3.17,7.92-3.16.55.02,2.09,5.55,3.18,5.54,1.98-.03,2.24-11,3.36-13.22,2.16-4.24,8.57-2.23,8.1.18s-4.96-.04-5.53.4c-1.2.94-1,9.9,5.49,7.48,8.52-3.17,3.25-9.22,4.04-14.14.41-2.53,2.65-5.82,5.17-3.69,3.35,2.83-1.79,13.44,2.1,10.35,5.26-4.16.22-24.31,14.64-18.38,3.39,1.39,3.11,5.51,3.37,5.73ZM403.43,106.67c.25.34,7.76-1.55,8.12-1.76,3.5-1.94-1.46-6.94-6.04-5.24-1.62.6-2.67,6.19-2.08,7ZM393.92,112.99c-.23-1.29.38-3.78,0-4.73-.51-1.27-2.36,4.56,0,4.73ZM366.66,127.23c-1.6.48-1.5,5.4-1.2,6.71,1.64,7.31,7.99-8.74,1.2-6.71ZM352.79,142.25c2.55,1.52,7.45-5.13,4-7.57-5.46-3.86-5.66,6.58-4,7.57ZM340.12,153.31c2.29,2.61,3.93-6.21,1.57-7.89-.92.68-1.83,7.59-1.57,7.89Z"/>
      <path d="M323.51,173.87c.33.44,6-3.22,6.72-3.95,1.72,5.65-5.51,5.63-7.32,7.31s-1.54,6.24-5.78,8.85c-1.03.63-2.78.19-3.9.85-3.76,2.2-2.82,8.12-9.51-.42,2.28,3.44-1.51,17.38-6.2,14.86-1.26-.68-3.24-8.92-4.51-6.18-1.53,3.33,3.9,19.05-4.33,11.09.06,14-6.7,7.3-7.12,7.9-1.07,1.55.54,9.78-7.13,8.69-.08-2.44,2.8-2.5,3.87-4.42,2.13-3.84-.31-7.35.08-11.38-1.36.41-4.67,5.38-6.32,3.95-1.21-1.06,4.8-5.4,5.09-6.28.4-1.2-.75-3.32-.34-4.78,2.03-.73,2.12,2.49,2.76,2.36,1-.19,3.82-4.54,5.14-3.15,1.81,1.9-3.95,4.91-4.02,5.25-.15.83,2.85,9.72,4.43,7.4,3.2-4.69-1.29-14.32-.4-19.77,4.05,1.22,3.06,9.21,6.32,11.85-.37-2.17-1.31-11.84,1.22-12.64,3.96-1.25,5.66,8.9,7.48,7.11,3.61-3.56.18-16.76.81-17.39,3.45-3.44,7.5,10.68,9.91,5.52.9-1.92-5.73-9.65-2.06-12.3,5.41-3.9,5.16,8.69,5.6,9.15,1.66,1.73,6.37-4.52,6.28-6.73-.07-1.76-6.51-11-1.58-14.26,6.99-4.61,4.33,10.89,4.79,11.51ZM320.35,170.71c2.72-1,.81-3.71.77-5.53-1.75.4-.37,4.2-.77,5.53ZM311.63,180.98c.21-.71-1.14-5.06-1.57-3.94-.48,1.28,1.25,5,1.57,3.94Z"/>
      <path d="M263.36,225.26c2.99,2.88,4.18-3.24,6.33-3.16-.1,9.09-4.79,4.9-8.18,5.47-.42.07-3,4.93-5.05,5.47-1.89.5-3.46-.82-4.94-.29-1.22.43-3.06,3.95-4.54,4.29-1.87.42-2.92-1.78-3.38-1.5-.19.12-.29,3.25-2.12,3.86-6.13,2.06-5.68-13.76.62-12.98,3.61.45,1.07,9.88,5.45,7.15,4.49-2.79-2.21-16.18,2.8-17.77,6.96-2.21-.02,16.16,5.36,14.88,7.55-1.79-1.41-20.13,4.98-21.19,5.87-.98,2.06,15.18,2.68,15.78ZM261.78,220.51c-.46-1.83,1.04-6.07-.77-7.11.46,1.82-1.05,6,.77,7.11ZM251.49,225.25c-.43-1.56,1.02-5.62-.77-6.32.43,1.56-1.02,5.62.77,6.32ZM241.2,237.11l-.38-7.9c-1.8,1.74-2.07,6.74.38,7.9Z"/>
      <path d="M463.55,89.29c.59.64.27,5.57-2.76,4.73-3.47-.97,1.17-6.43,2.76-4.73Z"/>
    </g>
  </g>
  <path d="M472.25,140.68c.59.4-.73,1.34-1.57.77-.59-.4.73-1.34,1.57-.77Z"/>
  <g>
    <path d="M421.62,289.27c.48.79,3.85.45,4.96-.14s4.99-6.09,2.83-.34c-1.91,5.09-5.7,2.58-8.91,2.87-2.04.18-5.37,3.54-7.2,0-.72-1.41.34-3.86-1.17-3.95-.98,1.2-2.08,7.63-2.4,7.9-1.66,1.41-2.59-1.65-2.75-1.58-1.15.49-1.56,3.79-4,4-1.84.16-3.11-1.83-3.5-1.63s-4,7.64-6.34,5.53c-.54-.48,8.27-9.07,6.33-11.06-.53-.54-3.81,1.32-3.17-1.57,3.16-.49,5.19-2.16,4.75-5.55,2.81-.75,1.05,2.51,1.59,3.17.13.16,3.32-1.83,3.94.4.13.46-3.37,1.44-3.99,2.53-3.46,6.03,1.07,8.63,4.17.01,1.48-4.11,2.29-14.58,3-2.15,1.51-.21,1.51-3.57,3.54-3.15,2.53.52,1.13,7.32,3.16,6.31,2.13-1.06.49-12.46,5.44-11,5.09,1.5-.55,8.98-.28,9.42ZM420.82,286.91c.5-.53.85-3.72.79-4.73-1.94.24-1.89,5.9-.79,4.73Z"/>
    <g>
      <path d="M362.27,374.67c1.95,2.2-8.76,10.82-10.9,11.64-3.29,1.27-4.31-.03-5.95.35-1.37.32-2.46,2.88-4.97,3.02-1.87.1-4.68-2.28-5.81-1.53-.3.2-1.3,4.9-4.55,5.3-2.86.35-3.53-4.3-4.99-2.98-.5.46-1.67,4.81-4.02,6.66-4.27,3.36-6.59,1-7.9,1.63-.86.41-2.57,4.77-5.47,5.6-4.61,1.33-4.3-2.49-4.86-2.75-.18-.08-3.69.61-3.82.75-.39.44.87,7.31-3.24,9.06s-4.48-1.84-4.74-1.98c-1.9-1.04-4.39,7.69-9.16,7.9-3.67.16-4.8-7.93-7.41-3.9-.79,1.23,3.2,5.76-1.66,8.98-3.9,2.58-5.72-.64-6.27-.35-.22.12-1.19,3.19-2.39,4.34-7.57,7.31-12.01-4.36-6.31-8.67,3.61-2.73,5.45.07,3.93,1.96-.19.24-3.62-2.07-3.94,2.85-.42,6.43,4.49,2.47,6.66-.53,1.77-2.46,2.38-6.4,4.35-8.3,2.13-2.05,4.51-1.58,6.66-2.83,3.05-1.76,5.04-5.59,9.21-4.62.06,3.02-4.17,1.54-4.76,5.18-.16,1.02-.1,2.51.77,3.16,4.31,3.21,10.02-12.49,11.31-13.67.2-.19,4.69-2.4,4.96-2.39.86.04,1.35,2.13,2.8,1.88,2.53-.44,4.37-4.99,5.97-5.94,1.75-1.03,4.86-.72,5.04-.9.29-.28.54-7.17,1.62-7.88,4.93-3.23,2.28,8.54,2.34,9.09.6,5.97,8.66-3.52,9.21-5.93.42-1.82-2.05-3.29-1.28-3.96.21-.18,5.35-1.01,5.53-.79.42.51-1.08,6.83,1.96,6.31,3.26-.55,3.34-9.07,4.78-9.47,2.44-.68.64,6.8,5.2,5.96,5.1-.94-.31-11.51,6.63-10.77,5.13.55-1.73,8.18,1.6,7.97,3.62-.22,13.1-10.33,13.85-9.49ZM345.65,381.77l.79-3.15c-1.1-.24-2.35,3.52-.79,3.15ZM305.31,402.33c.97,1.08,9.39-5.39,4.03-6.73-2.99-.75-4.97,5.67-4.03,6.73ZM297.36,403.16c-1.62-2.5-5.41-.11-5.19,3.52.41,6.73,6.61-1.33,5.19-3.52ZM271.68,415c-1.14-.03-4.4,5.77-1.57,6.3,2.92.55,3.72-6.25,1.57-6.3Z"/>
      <path d="M236.47,437.1c2.32,1.75,10.01-9.28,8.38-3.87-2.18,7.2-6.48,5.05-10.95,6.45-1.95.61-3.99,3.29-6.51,3s-2.5-4.17-3.17-3.98c-1.54.43-3.27,7.37-4.76,8.68-2.37.49-.39-2.82-1.57-3.16-.51-.15-3.11,8.23-7.73,5.59-.75-.43-1.4-2.8-2.15-2.42-.43.23-4.7,9.01-6.33,7.11-1.16-1.35,6.21-8.44,6.31-10.69.35-2.64-2.98-.12-3.14-.38-1.22-1.93,5.69-4.93,5.93-8.68,2.13,1.01-.18,3.17.4,3.93.17.23,3.99-2.52,5.53-1.57-.22,2.27-5.87,3.54-6.19,4.07-.75,1.27-.78,9.16,3.05,5.82,4.58-3.99,5.69-14.14,6.32-14.64,3.59-2.89,1.23,4.59,1.57,6.32,8.15-9.88,4.58.59,5.53,1.58.52.54,4.61-1.31,4.79-2.14.32-1.45-1.26-14.27,5.01-12.03,4.37,1.56-.77,10.65-.31,11ZM236.46,428.42c-2.95-.29-2.18,5.42-2.36,7.11,2.06-1.28,2.52-4.92,2.36-7.11Z"/>
      <path d="M336.95,377.83c2.79,1.98-5.16,1.98-2.36,0,.11-.08,2.26-.08,2.36,0Z"/>
    </g>
    <g>
      <path d="M318.76,273.47c-.76.92-1.54,4.12-2.62,5.3-4.62,5.03-13.28,11.15-17.93,16.46-.94,1.08-7.59,10.9-7.13,11.44.31.38,8.42-2.49,8.44-4.02,4.85,2.07,4.23-.94,5.14-1.41s2.39.73,3.31.47c1.8-.51,2.82-3.14,4.93-1.43.9.73,1.03,3.57,2.69,2.44.22-.15,1.2-3.41,3.22-4.33.88-.4,1.99.31,3.08-.03s1.84-1.75,3.69-1.95c4.24-.47,4.09,3.52,5.43,3.77.39.07,5.05-1.78,6.57-1.97,4.32-.56,9-.55,13.15-1.09,4.84-.63,14.89-6.34,15.59,2.83.62,8.23-4.07,6.27-6.47,9.46-.54.71-.95,5.61-3.12,4.05-1.2-.87.13-3.07-1.92-2.78s-7,5.71-8.1,6.17c-2.35.97-10,3.77-12.72,4.66-5.1,1.66-11.39.38-15.21,5.36,21.26-4.5,43.57-9.34,64.88-15.02,33.52-8.94,67.1-20.48,99.55-31.14,15.58-5.12,49.46-15.28,54.7-32.15l3.99-22.48c.19,9.83.8,20.97-3.53,30.06s-19.07,15.43-28.13,19.33c-12.54,5.39-25.59,9.43-38.75,13.06v17.39c-1.92.12-1.37.22-1.58-1.17-.36-2.32.11-14.14-.8-15.43-1.19-1.7-34.73,13.37-39.18,13.41-.79.77-1.58,1.76-1.72,2.88s2.07,20.38,2.6,21.59c.79,1.8,3.69,4.41,5.07,6-.61,1.27-2.96-.65-3.15-.4s1.02,5.62,1.52,6c1.04.8,18.57-2.66,21.78-2.87,16.71-1.1,36.39.59,52.92,3.31,11.48,1.89,25.31,3.71,32.17,14.1-22.86-3.93-45.93-7.75-69.26-6.35-14.33.86-32.2,4.9-46.28,8.31-1.13.27-4.33.88-4.72,1.99,29.94-.35,61.57-5.25,91.28-.67,8.25,1.27,28.54,6.34,32.98,13.69.42.7,1.26,2.27.75,2.8s-12.26-3.91-14.23-4.35c-42.76-9.48-91.34,1.07-133.1,11.69-5.93,1.51-50.59,14.86-52.05,17.18-.23.37,2.31,6.26,2.4,8.34.62,14.28-11.03,23.81-24.36,25.44-13.37,1.63.8-6.91,3.76-11.26,2.58-3.8,4.53-11.77-.24-14.52-12.64,6.71-25.36,13.3-38.24,19.55-30.1,14.61-61.95,31.11-92.32,44.52-12.69,5.61-32.37,13.18-44.79,4.16-3.81-2.77-16.89-24.26-18.3-29.14-3.03-10.46,7.68-26.97,13.64-35.49,22.21-31.77,55.54-57.17,87.3-78.79l-.82,3.93c-31.39,23.19-68.18,50-88.48,84.03-3.33,5.59-11.88,21.32-7.4,27.22,1.95,2.56,20.95.87,23.53-.96.42-.3,1.84-8.26,2.59-10.02,9.95-23.47,37.71-52,58.85-66.11.86-.58,13.23-8.1,9.36-3.29-2.17,2.7-15,10.87-18.98,14.24-9.18,7.76-19.64,17.27-27.3,26.48-3.83,4.61-24.46,33.08-20.59,37.52,18.87-6.46,37.78-13.19,56.14-20.97,5.21-2.21,43.66-18.96,44.33-21.32.23-.8-12.1-7.16-14.17-8.76-1.67-1.29-6.75-7.16-7.6-7.43-2.35-.75-2.19,8.75-6.37,9.49-4.52.8-8.11-4.96-12.18-6.76-1.78-.79-6,.42-3.16-2.3.85-.82,3.43-1.18,3.68-2.37.33-1.59-4.39-15.92,3.39-5.18.47-13.82,2.14-3.41,3.18-2.37,3.38,3.38.78-13.04.75-13.81-.42-15.25.23-20.08,6.36-33.62-.09.13-.12,2.84,0,3.16.77,1.96,2.17-6.57,0-3.16.82-1.8,1.55-3.98,2.37-5.53-.24.24-.19,4.07.78,3.16,2.15-2.03,1.02-4.94-.78-3.16.49-.92,1.39-1.54,1.93-2.43.58-.94.28-2.85.5-3.06.42-.39,2.39.33,3.01-.14.23-.17.4-2.77,1.28-3.88,1.28-1.62,2.37-1,4.36-3.94-.07.1-.31,2.34.39,2.37,2.49-1.48.44-3.55-.39-2.37.11-.17-.3-1.24.11-1.46.86-.46,2.75.15,3.04-.14.2-.19-.48-1.5.8-3.15-1.05,1.03.48,4.93,2.25,2.26,1.38-2.09-1.42-3.07-2.25-2.26,1.93-2.48,2.86-.58,3.12-.81.12-.1.08-1.97.78-2.77,1.44-1.64,3.52-1.77,3.82-2.14.63-.77-.11-3.25,2.14-4.65,1.74-1.08,3.09.37,3.53.08.19-.12.59-2.97,1.98-4.01,1.13-.84,2.79-.44,3.42-.91s.79-2.85,2.11-3.84c1.14-.85,2.86-.45,3.44-.88.72-.53.69-3.56,2.1-4.68,1.48-1.18,3.1.12,3.67-.26.89-.59.9-3.21,1.93-4.37.61-.69,2.14-.85,3.1-1.64.75-.62,1.03-2.23,2.02-2.75,2.6-1.36,3.8,1.28,5.03,1.13.45-.06,5.75-4.15,7.61-5.07,4.15-2.05,17.24-9.73,20.68-5.59,3.03,3.65-2.4,5.75-3.12,7.33-.44.96.08,3.18-.13,3.42-.28.31-3.45-1.88-6.33,1.58.22-.34.31-1.91-.78-1.58l-.78,1.98c.18.59,1.52-.34,1.56-.4ZM287.91,286.91c.24-.32,1.42,1.41,2.59,1.41,8.47-.01,12.31-7.44,17.23-11.24,3.32-2.57,19.29-11.05,19.67-13.6.59-4.02-7.77-2.42-8.6.22-.6,1.94,2.75,2.71.36,4.22-2.4-4.5-5.1-3.38-5.15,1.59-1.66.17-.37-2.58-.79-3.16-.82-1.11-1.91,4.49-2.76,4.74l-.78-3.15-1.2,4.73c-1.66.18-.38-2.68-.79-3.15-1.41-1.61-3.18,3.37-2.37,4.74-3.26.6-.13-2.46-.8-3.16-1.37-1.45-3.67,4.9-3.17,6.32-1.74.19-.07-3.16-1.17-3.15-.51,0-8.3,3.51-8.31,5.2-4.37-.98-1.02.47-2.28,2.34-10.52,9.92-22.46,18.87-32.54,29.21-12.38,12.7-18.55,21.14-13.66,39.75,1.47,5.6,4.65,10.57,6.56,15.98,3.5-3.11-.89-6.77-3.16-9.09,9.13,4.23-4.56-9.29,2.35-4.34.53-3.14-1.09-5.35-3.14-7.52,9.34,5.91,2.09.09.76-4.72l3.96,3.54c1.17-2.8-4.04-5.9-1.58-7.9l3.17,4.74-3.14-6.74c.92-3.48,2,4.34,3.94,2.78l-2.36-8.69c.97-.02,1.7,7.53,3.95,5.52.28-.25-3.95-6.17-1.59-7.1.21,2.21,1.05,5.17,3.17,6.32l-1.56-7.9,1.97,3.14.4-4.72,3.15,3.15-1.57-5.53,3.15,3.95-1.56-7.11,2.38,4.74.38-4.74,3.57,4.74-2.37-6.31,2.38,3.94c2.01-.39.8-3.45.79-4.73,7.37,6.83,1.53-1.16,1.59-2.78.11-2.84,3.4,3.61,3.54,4.36l-1.18-7.1,3.94,4.74-1.98-6.31,5.15,6.3-3.15-8.69c2.43.92,4.38,9.09,4.75,9.48.49.53,3.92-1.43,3.93-1.98.03-1.34-3.79-1.06-3.95-1.19-.32-.26.03-6.22-1.56-7.9,2.82,1.84,2.69,7.54,7.11,6.31.02-2.19-1.95-1.97-3.33-4.18-.84-1.35-1.51-2.86-1.41-4.51l5.53,6.32-3.15-7.9c2.4,3.62,7.75,6.22,2.37.8,2.14,2.24,6.63-2.15,5.53-3.16-.22-.2-4.76.02-5.52-1.99.98.03,7.1,1.11,7.11,0,0-.62-9.35-2.41-7.91-8.29,5.38,8.88,9.69,7.44,15.81.38-5.62-3.75-4.14,4.04-6.71,3.56-.58-.11-1.61-1.74-1.19-2.37.28-.41,2.91,2.39,2.37-.78-1.33-.65-10.29,1.77-7.11-2.38ZM297.39,272.69c-1.47-.21-2.74,0-3.16,1.56,1.47.21,2.74,0,3.16-1.56ZM315.59,275.84c1.46-1.62-1.44-1.95-1.57-.39-.06.68,1.5.46,1.57.39ZM313.22,276.65c-1.65-.23-1.8-.08-1.57,1.57l1.57-1.57ZM310.05,280.58c1.55-1.54-1.2-3.16-2.37-1.57s1.77,2.17,2.37,1.57ZM302.15,287.7c1.35-.48,8.11-5.83,4.34-7.11-.4-.14-5.09,5.7-4.34,7.11ZM286.31,281.39c-.79-.65-2.78,1.24-2.37,1.56.81.64,2.77-1.23,2.37-1.56ZM280.39,286.14c-.49.68-2.3,1.56-1.6,2.34.43-.64,2.26-1.49,1.6-2.34ZM301.35,286.13c-.66.09-2.09-.2-2.37,0-1.38.95,1.4,3,2.37,0ZM272.86,293.23c1.5.26,2.63-.92,2.36-2.36l-2.36,2.36ZM270.49,295.62c-2.7-1.74-4.3,2.82-3.96,3.14.83.78,3.71-2.19,3.96-3.14ZM306.89,320.91c1.61,2.61,3.69,3.09,2.38,5.53,2.97-1.19.55-2.21.38-3.93l3.56.78c-2.03-.48-4.58-2.68-5.15-4.74,2.69,1.66,4.76,4.5,8.31,3.92-5.5-4.39-9.12-6.22-8.69-14.22,1.75,2.65,1.05,5.65,3.44,8.41,4.39,5.06,12.36,3.45,17.91,1.47-1.11-1.02-8.18-2.17-8.97-2.04-.38.07-4.74,6.4-3.68-.73.05-.35,1.92,3.62,2.36-.39-1.31-2.73-4.35,2.42-5.53,1.17-2.06-2.17,2.34-2.54,2.34-2.74.01-.55-1.46-2.97-.76-4.37,1.65,0,.16,2.56,1.53,3.58.33.25,1.55-.5,2.39,0,.51.3.5,1.59,1.45,1.94,4.83,1.81,13.19-3.39,18.17-4.53,5.88-1.34,21.58-2.03,24.93-5.69,2.19-2.39,2.05-6.56-1.45-7.16-8.91-1.51-6.03,6.36-6.68,7.12-2.18,2.54-2.19-4.5-2.37-4.74-.29-.37-9.3.69-7.12,3.16-3.13.6-.4-2.13-.79-2.36-1.94-1.15-3.99,2.02-3.97,3.94-2.43-.58,1.08-3.74.8-3.94-.59-.42-3.25,1.11-3.96,1.57-1.43-4.44-2.25,1.37-2.37,1.58-.46.75-1.5,2.09-2.37,2.37-.31-1.15,2.79-5.22.4-3.95-1.83.97-1.77,5.05-4.36,4.73,4.86-7.13.28-2.03-5.13-3.17-2.02-.43-2.7-2.88-5.15-2.34l3.16,2.35c-1.99.29-3.6.95-5.15-.76-.7.55.76,1.77.39,2.29-.4.58-11.42,2.74-13.6,3.46-4.1,1.34-11.49,3.68-15.08,5.48-3.11,1.56-24.21,14.64-26.08,16.4-5.58,5.27-9.41,18.99-9.33,26.45.01,1.14,1.19,11.1,1.61,11.51.08.08,2.28.08,2.37,0,.94-.89-.8-6.03-.77-6.73.02-.43,5.16,1.99,0-3.16,4.19,2.68,2.45-1.19,0-3.16,3.86,1.24,2.52-1.48.79-3.95l3.14,2.77c.99-1.93-1.46-3.82-1.56-4.35-.06-.36,4.52.91.37-5.11,8.19,6.5,1.63-1.84,2-2.39.2-.31,5.75,4.39,1.59-3.57,1.64-.6,4.36,6.25,4.73,2.36.13-1.29-3.17-3.7-2.37-5.9,2.26,4.66,4.71,4.13,2.75-.78,2.97,4.7,4.36,3.41,2.37-1.58,2.72,4.5,4.18,1.71,2-2.39l2.38,4.74c1.24.36.64-1.04.77-1.08,1.18-.44,1.34.2,2.38.29l-3.14-4.35c4.45,3.09,6.27,4.72,2.37-1.58,3.75,3.72,4.02,3.48,3.15-1.96l2.76,3.93-.39-4.72c4.61,4.59,5.51,3.18,3.17-2.37,3.28,4.39,5.88,3.84,3.16-1.58,1.32.11,3.06,4.85,3.55,4.73,2.35-.56,1.8-3.24.79-4.72l3.98,3.13-.02-3.13c1.01,1.26,3.33,1.36,4.79,1.42.31.01,1.12-2.89,4.73.92l-1.98-3.56c-.22-2.16.65-.7,1.57-.38-.18.74.75.72.79.79ZM327.45,298.78c-.17-.11-3.78-.11-3.95,0-3.22,2.07,7.16,2.07,3.95,0ZM264.95,300.36c-.81-.84-4,2.27-3.16,3.15s4-2.27,3.16-3.15ZM313.22,303.51c1.36-1.19-5.74-2.93-3.16.8.09.13,3.03-.69,3.16-.8ZM306.88,303.52c-.85-.57-2.17.38-1.57.77.85.57,2.17-.38,1.57-.77ZM427.15,303.52c-.22-.22-5.9.82-5.53,2.75.71,3.67,7.25-1.04,5.53-2.75ZM301.34,305.1c-.85-.57-2.17.38-1.57.77.85.57,2.17-.38,1.57-.77ZM425.57,332.76c.38-.76,1.51-3.73,1.54-4.39.11-2.04-1.48-19.19-2.3-19.77-.46-.32-2.04.68-3.19.1s-1.27-2.67-2.14-2.88c-2.9-.68-16.68,5.1-16.84,7.56-.02.34,3.38,4.68,3.94,5.54-2.78,2-2.49-2.46-4.72-2.39l3.14,20.95c-.89-.14-1.92.6-2.36-.53-1.4-3.52-.85-11.92-1.6-16.06-2.05,2.84-1.38,8.22-4.73,10.27-1.14-2.52,3-16.05,2.37-16.6-.2-.17-4.27-.04-5.27-.73l-63.8,15.12c-4.24,6.22,2.88,5.18,7.09,6.81,6.5,5.3,24.33,6.5,25.54,15.63,1.16,8.74-3.9,6.17-7.92,7.09-.37.08-2.8,3.16-3.91,1.93-2.25-2.51,4.72-4.08-7.33-3.74-8.52.24-19.14-5.97-28.09-6.39-2.06-.1-3.25,1.36-5.31,1.46-1.88.09-11.03-.35-11.49-.02-.17.12,1.42,3.83,1.6,3.94.5.31,2.49-1.8,3.16-1.99,5.23-1.46-1.41,5.77-.8,6.72.17.26,5.45,1.48,5.52,2.78.15,2.66-8.72-.97-9.48-.39-.39.3,4.3,7.41,1.98,9.47-2.02-.9-4.83-9.55-6.34-9.47-.6.03-4.5,7.26-6.33,7.08-3.01-.3,1.06-6.82.99-8.13-.36-6.62-10.68.81-9.97,4.49.15.77,4.28,3.66,5.43,4.84.97.98,1.49,3.4,1.65,3.51,1.01.65,8.22-2.56,9.41-1.52.87.77-3.53,5.25-3.16,5.52.77.57,6.75-1.63,7.91-.77.94.7-4.01,3.69-3.16,4.73.38.46,10.05-1.72,11.91-1.14,32.27-12.15,63.76-26.61,97.11-35.79,3.65-1,22.29-4.13,23.12-4.97.23-.23-.67-6.22-.82-6.51-.48-.92-1.46-.51-1.56-.6.23-.54,1.15-1.07.4-1.56-.24.59-1.17.71-1.19.77ZM295.81,306.69c-.79-.65-2.78,1.24-2.37,1.56.81.64,2.77-1.23,2.37-1.56ZM289.09,309.86c-1.67,1.14-1.17,2.28,0,.77.31-.4.6-.43,0-.77ZM352.39,309.86l-2.76,1.97c.79.24,3.5-1.08,2.76-1.97ZM345.67,313.79c1.57-.42,1.78-1.69,1.56-3.16-1.57.42-1.78,1.69-1.56,3.16ZM340.11,312.21c-.28-.29-3.24.75-3.16,1.18.67,3.36,4.84.62,3.16-1.18ZM344.07,312.22c-.86-.86-2.44.71-1.57,1.57s2.44-.71,1.57-1.57ZM397.88,312.21c-.65-.49-2.32.58-2.37,1.57,1.28.63,3.71-.55,2.37-1.57ZM251.11,313.81c-1.67,1.14-1.17,2.28,0,.77.31-.4.6-.43,0-.77ZM336.16,313.79c-1-.62-6.55,2.13-4.74,3.95,1.37,1.38,7.56-2.19,4.74-3.95ZM400.25,316.95c.55-1.22-.39-3.22-.77-2.36-.55,1.22.39,3.22.77,2.36ZM274.45,320.12c.3.41,4.97-2.63,1.96-3.16-1.6-.28-2.57,2.31-1.96,3.16ZM247.54,318.54c-1.65-.23-1.8-.08-1.57,1.57l1.57-1.57ZM272.07,320.91c-.69-1.05-4.17-.26-3.95,1.96s4.97-.4,3.95-1.96ZM399.07,320.91v.79l.4-.4-.4-.4ZM301.34,326.44c.83-.72-1.49-3.63-2.36-1.17-.58,1.64,2.01,1.47,2.36,1.17ZM304.51,324.07c-1.98-2.79-1.98,5.15,0,2.36.08-.11.08-2.25,0-2.36ZM263.77,325.67c-1.67,1.14-1.17,2.28,0,.77.31-.4.6-.43,0-.77ZM296.6,325.65c-1.39-.97-4.09,1.47-3.16,2.36.59.57,4.64-1.33,3.16-2.36ZM307.67,325.65c-.65-.49-2.32.58-2.37,1.57,1.28.63,3.71-.55,2.37-1.57ZM291.06,327.23c-1.48-1.07-3.45.82-2.36,2.37.12.17,3.79-1.33,2.36-2.37ZM312.41,327.25c-1.09-.71-3.57.86-3.14,1.55.11.17,3.66,1.02,3.95.79.1-.07-.71-2.28-.81-2.34ZM315.6,331.97c-1.75,1.34-12.26-3.25-15.31-3.11-19.67.91-39.7,18.18-40.81,38.4-.28,5.16,1.95,3.42,3.02,5.5,5.39,10.48,11.56,15.92,23.39,16.17,1,.02,1.94,1.27,2.4,1.23,4.17-.39,10.85-5.47,15.42-6.02-.62-1.44-4.57-.83-5.97-.81-14.01.13-24.62,3.56-31.99-12.23.18-3.14,2.3,2.41,2.72,2.89.73.82,2.69-1.37,2.02,2.27l1.56-1.57,1.99,5.52-.39-4.73,2.76,5.52.38-4.73,1.61,5.52.78-3.94,2.77,3.94-.39-3.16c1.47,2.6,4.83,5.99,3.16.8,2.23,1.07.99,3.98,3.14.79.61,3.36,6.32,2.37,7.92-.41-10.28,1.54-3.46-3.97-3.95-4.34-.55-.41-4.82,1.92-7.15.41-.69-.45-.94-2.59-1.91-3.61-4.91-5.12-7.54-5.2-14.68-4.71.74-2.15,3.39-1.55,5.14-1.57-.47-4.37,1.63.4,1.97-.01,3.65-4.52-3.23-7.42-3.94-11.85,1.1,1.32,7.44,10.85,6.94,4.97-.18-2.04-5.78-7.2-5.36-10.5,2.21,2.4,2.96,6.07,5.51,8.31.81.71,2.22,1.76,2.39-.03.07-.72-7.49-9.61-5.52-13.03,1.37,2.04,1.47,4.73,2.72,7.15.46.89,3.49,5.23,3.98,5.38.25.08,2.93-.85,1.98-2.25-.06-.09-1.15.23-1.81-.99-1.66-3.09-3.33-6.51-3.71-10.08l4.73,8.68c-1.26-4.59-2.31-10.81,3.75-11.73,2.68-.41,5.46,3.39,5.75,3.04.59-.72-1.85-3.22,0-3.15,3.94,10.84,9.53,12.54,2.37-.39l4.29,6.8,2.05,1.48c-.21-2.98-4.27-7.48-2.38-10.27l3.57,9.48-.79-4.74,3.96,6.3c2-1.48.57-1.28.07-2.42-1.11-2.54-2.81-5-3.24-7.83,1.4,1.23,5.36,11.81,8.32,9.46.25-.2-3.17-3.95-3.86-5.23-.32-.6-2.56-4.76-.9-5.03-1.15,5.24,10.49,13.44,13.46,11.05,2.51-2.02-8.38-4.33-8.71-4.74-.28-.35.79-1.76.7-1.98-.13-.29-3.98-4.95.11-5.12-1.26,9.03,5.3,6.05,9.84,7.15,3.6.88,9.01,2.3,12.51,3.32,5.27,1.53,21.85,10.74,25.6,7.78,4.54-3.59-4.23-10.76-7.49-8.67-1.2.77.33,5.28-2.47,4.64-.62-1.56,1.14-4.95.03-5.9-.38-.32-5.35-2.2-5.57-2-.4.36,1.05,3.07-1.58,2.37.76-1.97,2.69-4.45-1.1-3.99-.52.06-2.23,4.56-3.66,3.2-.2-.19,4.47-4.71,1.19-4.72-.41,0-3.9,4.42-4.34,3.93-.91-1,6.19-6.46,1.16-5.28-1.02.24-4.66,4.99-5.12,4.49-1.6-1.76,4.7-3.55,3.94-5.53-2.02-1.25-5.41,4.94-6.32,3.95-1.02-1.12,3.72-4.35,3.16-4.73-.39-.26-7.03-.77-9.14-1.93-1.29-.71-1.62-2.51-2.34-2.82-.32-.13-.56,3.51-4.75-1.57-.8.44.52,1.47.41,1.56ZM260.2,329.61c-2.05-1.74-3.04,1.86-2.36,3.94,1.04.03,2.71-3.65,2.36-3.94ZM285.92,329.6v.79l.4-.4-.4-.4ZM326.66,332.76c1.35-1.24-2.73-3.19-3.95-2.36.15,1.35,3.13,3.11,3.95,2.36ZM282.35,331.19c-1.17-.26-1.67.35-2.35,1.19.72.16,2.72-.32,2.35-1.19ZM240.41,339.08c.13-.32.13-3.62,0-3.94-.91-2.24-.91,6.19,0,3.94ZM272.08,338.3c.61-.04,2.34-1.81,2.35-1.98.02-1.77-3.26-.91-2.35,1.98ZM241.02,350.33c-.18-.39-1.82-.24-2.21-2.12-.67-3.27,1.94-8.9-.76-12.27-1.82,7.24-3.6,14.99-3.16,22.51.06,1.09,1.28,8.75,1.57,9.11.55.68,3.19-4.28,4.73-2.77-4.64,2.61-4.16,10.92-5.92,13.85-1.52,2.54-2.42-3.51-3.57-3.17,1.11,9.42-.18,8.25-4.75,1.58-.64,2.21,2.18,5.41,2.23,6.87.04,1.34-1.69,2.09-1.45,2.6.34.71,14.21,10.46,8.71.81l2.36,3.94.02-3.94,1.56,1.57c-.76-7.01,1.42-3.66,1.58-3.94.31-.54-.3-2.56.02-3.17.04-.07,1.29.81,1.44.66.82-.82,1.36-3.46,3.29-3.82l-1.23,4.77c5.97,3.51,19.21,16.74,25.96,15.64,2.84-.46,6.82-4.28,10.09-4.6l-14.96-7.57c-4.48-4.49-13.23-8.76-16.72-12.53-1.99-2.14-1.13-5.13-1.69-5.85-.36-.45-2.05.34-3.12-2.01-1.63-3.58-3.01-13.9-4.04-16.14ZM253.88,339.88c1.2-.15,2.87-3.36,2.36-3.95-.43-.49-3.17,2.62-2.36,3.95ZM431.9,339.87c.55-1.22-.39-3.22-.77-2.36-.55,1.22.39,3.22.77,2.36ZM271.28,339.1c-4.06-.53-3.24.31-3.16,3.94l3.16-3.94ZM152.2,450.55c-3.56.44-7.82-.32-11.47,0,5.52,8.36,8.98,20.51,19.22,23.88,9.09,2.99,26.04-2.78,34.86-6.6,46.96-20.34,91.71-47.13,138.44-68.01,35.87-16.03,75.73-26.28,114.33-33.6,28.34-5.38,57.34-6.12,85.59-.26-11.58-6.46-25.59-6.6-38.41-8.71l-85.01,3.18c-.26-1.61.97-2.3,2.16-2.97,3.8-2.16,14.77-5.45,19.39-6.72,31.49-8.6,65.19-7.64,97.14-2.17-3.43-3.79-9.93-4.49-14.75-5.41-103.66-19.74-201.2,44.84-292.28,83.26-17.77,7.5-51.02,21.89-69.21,24.14ZM298.98,360.42c.98-.6-6.86-19.66-11.85-17.81-8.49,3.14,3.85,17.03,2.35,21.77,3.12-5.94,6.83-.45,7.11-.79.45-.55-1.14-2.87-.78-3.15s2.68.29,3.17-.01ZM253.87,343.05c-1.45-1.25-2.75,2.64-2.37,3.15,1.16,1.56,2.55-2.99,2.37-3.15ZM241.21,343.84c-2.5-3.87-.94,7.19,0,4.73.15-.38.13-4.54,0-4.73ZM267.32,343.84c-3.01-.49-3.43,1.36-3.16,3.94l3.16-3.94ZM320.33,346.99c.57-.85-.38-2.16-.77-1.57-.57.85.38,2.16.77,1.57ZM325.08,350.95c.39-.49-1.08-5.11-2.75-4.74-.5.11-2.11,2.97-1.99,3.15.14.21,4.58,1.79,4.74,1.59ZM331.39,349.41c-.12-.16-3.79-.98-3.93-.83-3.35,3.86,6.74,4.43,3.93.83ZM263.36,349.37c-1.8-2.61-2.18,5.39-.8,3.94.24-.26,1.03-3.61.8-3.94ZM335.37,350.17c-.09-.14-2.93-.98-3.16-.79-1.68,1.36,5.66,4.8,3.16.79ZM252.29,350.16c-1.15-1.31-4.01,2.86-1.17,3.94,1.85.71,1.34-3.75,1.17-3.94ZM336.95,353.31c1.25,1.04,3.36-2.11,1.18-2.36-.19-.02-1.28,2.27-1.18,2.36ZM342.49,352.54c-1.65-.23-1.8-.08-1.57,1.57l1.57-1.57ZM244.37,358.06c.18-.99-1.14-4.98-1.56-3.95s.07,3.75,1.56,3.95ZM346.44,354.11c-.86-.86-2.44.71-1.57,1.57s2.44-.71,1.57-1.57ZM260.19,358.84c.19-.18.88-2.53.79-3.16-2.21.31-1.76,4.09-.79,3.16ZM252.28,361.22c.53-1.29-.32-4.26-.77-3.15-.53,1.29.32,4.26.77,3.15ZM248.33,365.96c.13-.19-1.54-3.95-2.36-3.94-.38,1.18,1.16,5.64,2.36,3.94ZM253.86,370.71c-.22-1.18-.11-4.53-1.56-4.74-.96,2.26-.86,3.69,1.56,4.74ZM535.55,365.98c-.85-.57-2.17.38-1.57.77.85.57,2.17-.38,1.57-.77ZM536.74,366.76v.79l.4-.4-.4-.4ZM249.93,369.92c-.31,1.54,1.07,2.19,1.98,3.14.23-1.01-.95-2.95-1.98-3.14ZM257.83,369.91c-2.71-2.58-3.01,3.91-.39,3.95.63.01.53-3.82.39-3.95ZM261,373.08c-.45,1.02.01,3.22,1.19,3.93.19-.95-.69-5.08-1.19-3.93ZM254.67,373.88c-.26,1.17.35,1.67,1.19,2.35.16-.72-.32-2.71-1.19-2.35ZM259.4,376.24c.55-1.22-.39-3.22-.77-2.36-.55,1.22.39,3.22.77,2.36ZM260.99,380.2c.66-.79-1.24-2.78-1.57-2.37-.64.81,1.23,2.77,1.57,2.37ZM267.32,383.37c-.2-.2-2.51-.69-3.15-.8.23,1.87,5.39,3.01,3.15.8ZM272.85,388.1c.62-.85-.36-3.44-1.96-3.16-3.01.53,1.66,3.57,1.96,3.16ZM276.81,387.31c-1.04-.73-3.47,1.43-1.17,2.36,2.9,1.18,1.4-2.19,1.17-2.36ZM282.35,392.05c1.24-1.21-2.62-3.73-3.16-1.18-.09.42,2.85,1.48,3.16,1.18ZM286.31,392.05c1.46-1.62-1.44-1.95-1.57-.39-.06.68,1.5.46,1.57.39ZM342.49,401.54c.04.06.86-.31.84,1.16-.15,9.78-1.96,15.08-9.16,21.75,7.01-3.05,12.04-12.55,11.44-20.05-.22-2.7-2.99-8.42-4.7-4.04-.18.46,1.01.31,1.58,1.18-1.54-1.54-3.17,1.2-1.57,2.37s2.16-1.78,1.57-2.37ZM338.21,409.14c.82-2.71,4.04-8.12-2.06-7.3-8.97,1.21.67,9.72-3.14,16.29,4.68-.55,3.25-6.24,3.97-8.13.26-.68,1.18-.69,1.23-.86ZM340.91,411.84c-.07-.1-2.29-.91-2.36-.81-.5.69.75,2.96.79,3.95.85.24,1.66-2.99,1.57-3.14ZM338.54,416.57c-1.65-.23-1.8-.08-1.57,1.57l1.57-1.57ZM335.37,419.73c-1.65-.23-1.8-.08-1.57,1.57l1.57-1.57ZM330.23,423.67v.79l.4-.4-.4-.4ZM326.66,426.82c2.23-2.21-2.93-1.08-3.15.8.64-.11,2.95-.6,3.15-.8Z"/>
      <path d="M337.75,301.93c.31.96-1.11,3.24-1.98,3.95-.67,0-.48-2.18-.39-2.37.07-.14,1.9-1.27,2.37-1.58Z"/>
      <path d="M306.89,320.12c-.22-.09-.55.08-.79,0,.82-.83.51-.21.79,0Z"/>
      <path d="M426.37,333.55c-.34.82-2.67,5.21-3.95,3.95-1.04-1.02,2.88-4.18,3.16-4.74-.06.18.59.61.79.79Z"/>
      <path d="M306.89,320.91c-.07-.01.07-.76,0-.79.57.43,1.48,1.06,0,.79Z"/>
      <path d="M353.58,349.37c2.3-2.28,4.8,4.6,1.97,4.72-1.03.04-2.76-3.94-1.97-4.72Z"/>
      <path d="M305.3,336.71c-.39.86-1.33-1.15-.77-2.36.39-.86,1.33,1.15.77,2.36Z"/>
      <polygon points="297.79 335.93 298.18 336.32 297.79 336.72 297.79 335.93"/>
      <polygon points="294.62 336.72 295.02 337.11 294.62 337.51 294.62 336.72"/>
      <path d="M270.09,359.66c.44.5,1.59,1.03.81,1.55-.38-.46-1.58-1-.81-1.55Z"/>
      <path d="M271.67,362.03c.44.5,1.59,1.03.81,1.55-.38-.46-1.58-1-.81-1.55Z"/>
      <polygon points="278.8 376.24 279.19 376.64 278.8 377.03 278.8 376.24"/>
      <path d="M324.29,263.99c1.78,1.21-1.97,2.14-3.16,1.57.09-1.32,2.37-2.11,3.16-1.57Z"/>
      <polygon points="266.93 314.58 267.32 314.98 266.93 315.37 266.93 314.58"/>
      <path d="M358.32,304.3c-.23-.23.24-4.61,1.96-3.94,3.15,1.24-.35,5.52-1.96,3.94Z"/>
      <polygon points="306.49 316.95 306.89 317.35 306.49 317.74 306.49 316.95"/>
      <polygon points="292.25 320.12 292.64 320.51 292.25 320.91 292.25 320.12"/>
      <polygon points="301.74 320.12 302.14 320.51 301.74 320.91 301.74 320.12"/>
      <polygon points="258.23 347.78 258.62 348.18 258.23 348.57 258.23 347.78"/>
      <path d="M242,380.98c-.45,1.11-1.3-1.86-.77-3.15.45-1.11,1.3,1.86.77,3.15Z"/>
      <path d="M240.41,382.56c-.4.59-1.34-.73-.77-1.57.4-.59,1.34.73.77,1.57Z"/>
      <polygon points="244.77 377.82 245.17 378.22 244.77 378.61 244.77 377.82"/>
    </g>
  </g>
</svg>