<?xml version="1.0" encoding="UTF-8"?>
<svg id="Layer_1" data-name="Layer 1" xmlns="http://www.w3.org/2000/svg" viewBox="0 0 818 535">
  <path d="M594.12,307.9c-.19-.11-.88.06-1.28,0,.71-1.69,1.19-.02,1.28,0Z"/>
  <path d="M156.21,307.9c-.19-.11-.88.06-1.28,0,.71-1.69,1.19-.02,1.28,0Z"/>
  <path d="M598.59,297.69c-.03-.06-.79-.06-.64-.64.14-.03.57-.04.64,0,.09.06-.09.58,0,.64Z"/>
  <path d="M160.68,297.69c-.03-.06-.79-.06-.64-.64.14-.03.57-.04.64,0,.09.06-.09.58,0,.64Z"/>
  <path d="M518.16,208.97l.64-.64c-.12.29.04.72-.64.64Z"/>
  <path d="M485.6,278.54c-.51.38-.76.42-1.28.64-.08-.78,1.15-.5,1.28-.64Z"/>
  <path d="M485.6,278.54c.41-.47,3.34-5.46,3.83-6.38-1.32,2.65-.62,3.98-3.83,6.38Z"/>
  <path d="M296.01,271.52l-.64-.64c.04-.08.43.06.64,0-.02.22.04.45,0,.64Z"/>
  <path d="M296.65,270.88c-.04.08-.43-.06-.64,0,.02-.21-.02-.43,0-.64l.64.64Z"/>
  <path d="M247.49,181.52s-.63.08-.63-.32c.12-.36.34-.3.63-.32.1.13-.11.54,0,.64Z"/>
  <path d="M489.43,272.16c.37-.69.94-1.84,1.28-2.55-.53,1.2-.86,1.7-1.28,2.55Z"/>
  <path d="M490.71,269.6c.21-.44.43-.85.64-1.28-.21.48-.47.89-.64,1.28Z"/>
  <path d="M313.24,267.69c.88,1.01,2.61,1.78,3.19,3.51.09.53-1.16.39-1.27.32-.06-.04-.17-.78-.64-1.28-.2-.22-.5-.44-.64-.64-.17-.25-.52-.44-.64-.64-.15-.25.15-1.13,0-1.28Z"/>
  <path d="M484.32,195.56c-.18.38.35,1.3-.32,1.28-.51.06-.41-1.07-.32-1.28.03-.08.6.08.64,0Z"/>
  <path d="M311.97,265.77c.48.58.79,1.35,1.28,1.91-.15-.15-1.04.15-1.28,0-.17-.11-.41-.44-.64-.64-.12-.1-.63-.6-.64-.64-.06-.19.04-.44,0-.64.42-.02.85.03,1.28,0Z"/>
  <path d="M518.79,212.8h-.64c-.02-.42.03-.85,0-1.28.11.11.53-.11.64,0-.08.37.04.86,0,1.28Z"/>
  <path d="M492.62,183.44c-.1.06.1.49,0,.64-.31.16-.46.53-.64.64-.24.15-.41.46-.64.64s-.41.45-.64.64-.43.43-.64.64-.44.41-.64.64-.45.41-.64.64c-.72.87-.94,1.48-1.28,1.91-.18.23-.46.4-.64.64-.15.2-.45.37-.64.64-.17.09-.57-.1-.64,0,3.04-4.43,2.53-4.38,7.02-7.66Z"/>
  <path d="M513.69,215.35c-.03-.35-1.63-2.17,0-2.55.14.72-.21,2.03,0,2.55Z"/>
  <path d="M516.24,183.44c2.24,5.36-2.7,3.59-3.08,3.93-.36.32.33,1.44-.74,1.18.12-.99-.2-2.29,0-3.19,0-.04.45-.42.64-.64.14-.17.54-.59.64-.64.67-.32,1.78-.35,2.55-.64Z"/>
  <path d="M513.05,196.2s-.6.63-.64.64c-.19.06-.44-.04-.64,0-.22-.71-.33-1.99-.64-2.55.15-.07.42.05.64,0,.15.35,1.03,1.71,1.28,1.91Z"/>
  <path d="M172.17,321.94c-.11-.08-.43.05-.64,0,.17.01-.34-.98.64,0Z"/>
  <path d="M492.62,184.71c.1-.13-.1-.49,0-.64.17-.09.47.09.64,0,.15.54-.5.45-.64.64Z"/>
  <path d="M484.32,195.56c.14-.28-.15-1.09,0-1.28.08-.1.57.1.64,0-.2.59-.43.85-.64,1.28Z"/>
  <path d="M299.2,250.46c.08-.43.36-.46.64-.64-.22.2-.44.42-.64.64Z"/>
  <path d="M610.08,321.94c-.11-.08-.43.05-.64,0,.17.01-.34-.98.64,0Z"/>
  <path d="M491.98,185.35c.11-.12-.11-.52,0-.64.09-.1.56.1.64,0-.18.24-.44.42-.64.64Z"/>
  <path d="M304.31,249.18c-.07.01-1.22.59-1.28.64.46-.28.7-.47,1.28-.64Z"/>
  <path d="M172.17,322.58c-.09-.04.09-.57,0-.64.04.04.63-.08.63.32l-.63.32Z"/>
  <path d="M491.35,185.99c.11-.12-.11-.52,0-.64.1-.11.54.11.64,0-.2.22-.43.43-.64.64Z"/>
  <path d="M300.48,246.63c-.65.4-1.87,2.97-3.19,3.19-.15-2.08,1.86-2.44,3.19-3.19Z"/>
  <path d="M610.08,322.58c-.09-.04.09-.57,0-.64.04.04.63-.08.63.32l-.63.32Z"/>
  <path d="M490.71,186.63c.1-.13-.1-.51,0-.64.08-.1.55.1.64,0-.21.21-.44.42-.64.64Z"/>
  <path d="M294.09,242.8c.19-.4.5-.47.64-.64-.19.1-.38.49-.64.64Z"/>
  <path d="M535.39,159.82c.32-2.07-1.31-11.95-.64-12.77h1.91c.66.79-.95,8.7.64,10.22v.64c-.53.24-.49,1.1-.64,1.28-.21.25-1.03.37-1.28.64Z"/>
  <path d="M490.07,187.27v-.64c.08-.1.56.1.64,0-.2.22-.44.42-.64.64Z"/>
  <path d="M294.09,240.24c-.44.73-.56.83-1.28,1.28.1-.29-.19-.98.05-1.23s.91.04,1.23-.05Z"/>
  <path d="M516.24,215.35c.21-.13.37-.5.64-.64.09.75-.57.58-.64.64Z"/>
  <path d="M489.43,187.9c.1-.13-.1-.5,0-.64.08-.1.55.1.64,0-.2.23-.43.42-.64.64Z"/>
  <path d="M481.13,238.33c-.53-.13-1.82.37-1.94-.32-.31-1.79.32-2.79,1.3-4.14-8.17-.23-16.32.19-24.39,1.45-2.72.42-8.44,1.24-10.74,2.02-1.27.43-3.11,3.2-4.38,1.56-.89-1.15.63-14.69,1.22-17.16-1.41-.11-2.7-.57-4.13-.67-21.16-1.45-43.99,1.21-65.14,2.58-1.37.09-7.81.85-8.01,1.69-.07,4.97,1.29,10.28.7,15.25-.5,4.17-6.82,3.02-9.86,3.55-7.15,1.25-14.57,2.75-21.59,4.58-3.05.79-11.42,4.35-13.62,4.22-.54-.03-2.81-1-2.83-1.84.94.02,4.39-.75,4.45-1.6-2.09-3.8-13.36-17.89-17.9-11.54-3.49,4.88,7.17,11.03,10.7,13.01,5.74,3.22,11.76,4.68,16.8,9.37,2.03,1.89,2.3,2.85,1.87,5.72-.17,1.15-1.03,1.93-.93,2.89,2.28-.88,4.83-1.28,7.23-1.7,13.54-2.4,42.31-5.33,52.46,5.87.84.93,3.07,5.34,3.12,6.35.36,6.85-5.76,18.37-9.88,23.91-10.57,14.24-32.19,24.68-48.35,31.44-37.14,15.54-76.56,17.07-116.29,15.2-1.22-.06-2.63-.84-3.75-.69-.6.08-.72,2.31-2.06,3.18-1.75,1.14-3.51.32-4.97.78-1.09.35-.75,1.82-1.35,1.84-2.87.08-1.42-3.67-1.59-3.83-.22-.2-5.4.14-5.95.22-.65.1-1.28,1.12-1.95,1-.59-.11-1.15-1.4-2.14-1.72-1.97-.65-17.86-4.4-19.02-4.36-.78.03-1.79.98-3.17,1.05-3.07.16-6.2-.17-9.27-.02l.64,3.19c.37.28,3.22-3.44,4.46-.94l-2.55,3.82,4.45,3.19c.02,1.83-6.01.19-7-.32.18,2.65,1.79,4.91,1.27,7.66l30.29-3.86c56.87,0,111.75,12.34,142.42,63.82.18.3,4.54,5.1,1.23,4.51-2.32-.41-8.42-7.97-10.52-9.91-4.56-4.24-9.45-8.61-14.4-12.41-15.79-12.14-34.65-19.95-54.56-22.05-.67-.07-2.04-.93-1.91.32,23.62,7.87,47.72,20.64,62.06,41.67,1.38,2.03,9.91,16.18,9.9,17.27,0,.44-.36,1.59-.87,1.73-2.45.69-2.58-1.64-3.8-3.17-22.53-28.18-46.49-44.48-81.96-53.36-13.27-3.32-27.87-6.59-41.5-4.77,8.41,15.27-5.87,29.06-21.38,28.08-.61-.04-.39-1.1-.23-1.51.75-1.98,6.5-6.36,7.99-8.61,1.39-2.11,1.72-4.3,1.51-6.8-.6-6.89-5.81-7.54-11.52-6.4-25.36,5.06-60.6,20.43-85.83,18.84-16.68-1.05-28.78-14.88-22.79-31.71s25.37-36.83,40.31-44.58c3.28-1.7,6.06-1.04,7.94-4.82.92-1.83,1.79-3.18,2.5-4.56.33-.64.28-2.16.51-2.34.43-.34,1.96.24,2.41-.12.16-.13.61-3.2,1.3-3.98.59-.67,1.69-.36,2.25-1.07.44-.55.28-1.64,1-2.21.55-.44,1.74-.29,2.23-.97s.15-2.33.91-2.93c.92-.72,2.49.49,2.59.38.16-.19.06-2.39.94-3.22.95-.91,2.55-.4,2.83-.68.23-.23-.02-1.4.22-1.98,1.49-3.61,3.98-1.57,4.28-1.79.15-.1.46-2.46,1.58-3.24,1-.7,2.25-.36,2.78-.71.49-.33.61-2.65,2.07-3.38.76-.38,2.08-.14,2.42-.43s.35-3.26,2.04-4.08c1-.49,2.17.36,2.58.08.77-.52.71-2.72,1.56-3.57.57-.57,1.64-.47,2.02-.82.65-.61.89-1.81,1.75-2.4,2.37-1.63,3.25.65,4.23.42,1.49-.36,3.72-2.9,5.26-3.69,1.44-.74,3.22-.93,4.72-1.67,3.41-1.67,8.67-5.93,12.29-3.59,4.27,2.76-2.74,6.05-1.88,9.22-4.69-2-4.71,2.77-6.73,5.07-.66.75-1.96.8-2.87,1.6-3.83,3.34-7.07,9.21-12.08,12.17l-5.75,9.24c1.96-2.3,4.16-1.01,5.35-1.32.86-.22.8-1.81,1.45-1.92,1.07-.19,2.91.94,3.32.63.29-.22.24-1.54,1.13-1.81s1.84.42,2.5.36c1.6-.16,2.11-3.79,6.02.88.06-1.11,1.7-3.13,2.6-3.53.97-.43,1.79.18,2.54-.05,1.57-.48,3.38-2.87,5.99-.95.7.52.2,1.62.39,1.94.26.45,5.6-1.06,6.74-1.24,3.18-.49,6.46-.3,9.46-.71,3.57-.49,7.41-3.2,11.23-1.52,2.42,1.07,2.32,5.2,1.64,7.36-.92,2.94-4.39,3.27-5.13,4.45-1.36,2.19-.32,5.78-3.84.63-1.2,1.58-3.3,1.96-4.73,2.92-.75.5-.8,1.73-1.76,2.07-1.11.38-2.81.2-4.4.71-2.12.68-3.63,2.33-5.88,3.05-1.77.57-12.24,1.52-11.63,4.32.33,1.54,2.83.44,3.86.6,3.92.61,3.12,4.21,4.43,5.16.8.58,4.96,1.14,6.56,1.74,2.89,1.08,5.56,3.06,8.43,4.33,3.26,1.44,6.05,1.1,8.98,3.79,1.47,1.35,1.72,3.19,3.94,3.72,1.28.31,4.21.67,5.61.77,35.58,2.63,78.09-.81,111.18-14.56,21.31-8.85,48.68-22.39,56.2-45.93,1.53-4.79,3.47-7.66-2.76-8.36-2.75-.31-16.12.67-17.94,2.03-.85.64-2.02,3.89-3.35,5.26-9.93,10.31-29.04,22.17-41.73,29.13-31.87,17.48-61.89,15.33-97.17,15.24-10.07-.03-20.43.01-30.62-.67-3.05-.2-8.05,1.33-8.62-1.91,1.64.35,3.32-.66,4.79-.65,29.01.23,59.09,2.95,88.09,0,27.29-2.78,60.93-21.97,81.06-40.22.85-.77,4.54-4.18,4.8-4.78.59-1.36-.73-.82-1.33-.69-23.08,4.96-47.16,14.66-68.48,24.72-21.46,10.13-53.07,35.11-67.98,1.42-4.6-10.39-5.17-19.58-.21-30.03,4.14-8.72,14.98-13.69,22.78-18.71l.34,2.15c-8.47,5.14-18.58,10.15-22.23,20.01s-2.47,18.85,3.37,27.62c4.5-13.89,15.76-23.74,27.76-31.27-.14.74.7,1.51.57,2.15s-9.32,7.08-10.78,8.37c-6.92,6.09-13.03,13.29-14.67,22.66.34.34,3.36-1.06,4.05-1.37,3.03-1.31,10.13-4.73,12.52-6.63,1.72-1.37,1.91-3.52,3.21-5.09,3.32-4.02,7.53-1.21,8.33-1.85.42-.34,3.13-9.54,3.16-10.34.08-1.92-7.82-11.19-9.45-14.1-4.01-7.17-10.28-30.3-9.73-38.2.16-2.27,1.49-4.37,1.3-6.3-.32-3.22-5.47-9.41,3.19-6.76.78-4.78-.3-7.77-1.91-12.12l3.18,1.27c.58-3.15,2.08-7.22,1.31-10.43-.21-.89-7.58-3.77-8.62-4.92-.27-.3-3.78-6.57-3.9-6.96-.49-1.62-.03-3.18-.43-4.68-.93-3.54-1.27-1.67-1.29-6.67,0-.9-1.06-1.68-1.18-3.04-.09-.99.04-7.03.12-8.24.12-1.88,2.03-11.92,4.09-11.87,1.55.04,2.43,7.81,3.6,9.79.29.5,4.23,5.76,4.53,6,.6.49,2.01.25,2.87.97,1.04.87,1.42,3.48,2.16,4.54s1.88,1.04,2.55,2.56c.74,1.7.3,3.47.72,5.03.93,3.5,2.42,3.3,1.48,8.16s-4.45,7.18-1.62,12.73l6.98-3.24c0-1.64-.76-2.99-.65-4.73.13-2.05,1.85-3.89,1.93-5.8.06-1.58-.86-2.97-.58-5.01.24-1.72,3.1-7.44,3.01-8.99-.03-.61-3.7-2.92-.83-5.47,1.63-1.44,2.47,1.07,3.96,1.21.99.09,2.57-1.4,4.08-.88,2.64-5.56,6.38-2.43,9.74-2.94,3-.46,4.35-4.76,9.68-3.7,1.11.22,2.02,1.55,3.14,1.23s2.28-5.1,4.56-4.92c.45.03,2,1.67,2.13,2.2.38,1.46-1.29,3.11-1.06,4.25.22,1.06,3.54,3.95,4.21,5.33.84,1.75.57,3.76,1.49,5.53,1.12,2.13,4.72,3.53,5.34,5.54.53,1.73-.5,3.13.91,4.65,1.08,1.16,4.48-.5,5.12,1.45,1.12,3.47-3.66,3.68-5.31,4.79-.65.44-2.09,2.39-2.59,3.16-2.46,3.78-6.4,13.36-8.96,15.94-.74.75-1.66,1.55-2.72,1.78-1.64.35-4.34-.9-4.64.46-.25,1.14,1.49,5.6-1.88,6.42-4.28,1.04-2.42-4.12-4.27-4.77-2.98-1.04-7.38,2.29-11.26-.7-.78-.6-.89-1.82-1.74-2.25-1.74-.89-3.89-.29-6.08-2.22s-1.44-4.6-5.69-4.52c-7.33.15-9.16,4.88-8.65,11.52,5.37-3.49,3.84,2.3,4.61,5.28.91,3.5,5.7,9.48,8.49,11.94,1.21,1.07,10.25,8.17,10.93,8.24,2.44.23.81-5.92,3.39-7.29.49-.26,1.74-.49,1.94-.29.55.55-1.61,3.57,0,3.82.5-2.89,2.52-5.93,4.9-7.55,3.99-2.72,7.51-2.79,11.69-4.27,5.21-1.83,10.01-6.58,15.97-6.05.19.18-1.52,5.13-.31,5.11,6.16-2.02,11.45-5.01,18.19-5.12,1.39-.95-7.24-19.76-8-22.32-9.45-32.23,23.67-36.32,46.7-39.5,19.68-2.72,41.42-4.79,61.03-1.19,7.3,1.34,19.37,3.89,22.68,11.15,4.09,8.97-.29,26.31-1.77,35.91l10.21-.63c-.18-2.01.01-3.66.45-5.62.59-2.67,3.66-8.26,5.14-10.78.54-.93,4.24-5,4.95-5.3.84-.36,1.11.14.96.96-.18,1.02-3.44,4.37-4.4,5.87-.48.75-.21,1.58-.68,2.42-1.75,3.05-3.71,4.02-4.33,8.46-.76,5.45,1.99,4.4,2.19,5.54.18,1.06-.65,4.97-.44,7.07.13,1.33,1.44,3.99,1.28,4.14-.66.6-1.87-.15-2.43-1.07-1.39-2.28-.52-6.52-.76-9.14h-12.77c-.04,3.47,0,7.73-.69,11.11-1.58,7.77-10.64,9.74-13.34,16.97,6.61-1.07,13.4-2.78,20.11-3.19,3.93-.24,12.1.79,15.19-.13.86-.25,6.55-5.79,7.8-6.91.52-.47,1.53-.56,1.58-.63,1.21-1.64-2.96-1.59-3.19-1.91-.18-.96.08-1.49.6-2.27,2.05-3.04,12.22-6.19,14.72-9.85l-16.6-1.92c1.4,2.14.1,9.87-1.44,11.32-2.35,2.21-6.05.38-5.59-3.03l-3.19,1.27c2.66-4.38,5.66-2.95,5.75,1.92,4.85-3.81,2.88-10.92,1.27-15.95,2.92.35,3.2.06,4.29-2.41s1.77-9.95,2.1-10.36c.22-.28,2.38.06,2.46.94.04.39-1.56,6.67-1.86,7.64-.39,1.23-.81,2.46-1.6,3.51-.99,1.32-2.22,1.44-2.83,2.59l19.49,1.97c1.98.06,2.7-2.05,4.58-2.47,3.2-.71,5.29,1.5,5.87-2.42.87-5.89-2.6-2.9-5.69-5.05-.95-.66-.15-1.53.33-1.59.13-.02.59.55.96.62.64.13.61-.01.64,0,.53.2,2.46,1.39,2.55,1.28,1.02-1.24-1.11-1.23-1.91-1.91.91-1.21.2-1.07,0-2.56-.18-.17-.94.56-1.27.64-.37-.9,0-3.33-1.27-3.19-.07.84.07,1.71,0,2.55-.41-.33-1.47.34-1.9-2.25l1.26.34c.12-2.12-.17-4.29-1.91-1.92-.79,1.08-.06.31,0,.64.06.37-1.36.51-1.26.95.31,1.42,2.88,2.12,2.54,4.15h.62c.03-.47.25-1.03.65-1.27-.12,1.03.19,1.82-.96,2.54-2.31-3.62-4.86-2.14-8.25-2.59-2.91-.39-5.08-2.39-8.67-1.23l4.81-3.16c1.97-1.68,3.02-4.51,4.46-6.4.68-.89,1.57-.93,2.22-1.92-2.17.2-4.3-.02-6.38-.63l1.27,1.27c-4.6-.87-2.25.1-3.15.95-.81.76-1.9.62-2.59.97l-.64-.64c.55-.4.76-1.35,2.1-2.05,3.21-1.68,6.58-1.56,10.03-1.14.12.09-.44.97-.64,1.27.62-.06,1.82-.73,1.91-.64,1.33,1.32-1.62,1.03-1.27,1.91l2.54-.32c-.64,1.24-2.4.64-3.05,1.09-.3.21-.61,1.68-1.12,2.38-1.44,1.94-2.96,3.83-4.74,5.47,0,1.42,6.85,2.14,8.29,2.23-2.09-2.72-1.15-6.06.28-8.96.24-.48,2.22-3.49,2.4-3.62.27-.21,5.94-1.31,6.68-1.36,1.5-.11,3.73.83,4.88.59.34-.07,2.17-3.15,2.25-3.67.77-4.66-4.15-9.64-7.98-11.57-1.38-.69-2.43-.86-3.8-1.31-.62-.2-2.35-.24-1.84-1.35,4.6.74,11.04,3.34,13.63,7.43,1.39,2.2.95,5.68,3.19,2.98,2.66-3.2,4.33-7.05,7.13-10.43-1.22,2.29-2.19,4.73-3.56,6.97-2.56,4.19-6.42,8.37-8.72,12.35-.31.53-1.09,1.86.14,1.74,4.88-8.25,10.81-15.77,15.33-24.25.26-.49.4-.75.64-1.28.35-.76-.01-.61,0-.64.9-2.6,1.6-1.39,1.74-1.58.06-.09.01-1.17.61-2.06,1.68-2.47,1.64.55,1.48,2.36l-1.26-.34c1.38,3.52-2.4,7.23-2.57,10.87l1.37,48.75c10.61,3.02,20.4,8.13,29.61,14.11,9.04,5.87,22.17,14.94,24.28,26.15.79,4.19-.2,13.47-4.57,15.28-3.95,1.64-12.58.11-16.97-.77-10.52-2.11-20.34-7.28-31.16-8.1l.64,19.15,23.3-3.19c11.63.05,24.23-2.83,35.74-1.91,4.13.33,8.67,2.34,12.78,1.93s8.66-5.86,12.93-4.72c5.09,1.36,1.86,5.44-.5,7.88,16.21,4.87,32.94,8.88,48.85,14.67,28.47,10.37,58.32,21.29,80.11,43.09,3.78,3.78,6.71,7.54,5.59,13.27-.86,4.4-6.45,17.16-9.15,20.85-5.99,8.21-25.2,14.48-35.06,14.76-2.28.07-4.16-.7-6.37-.71-13.36-.07-26.19,1.06-39.61.03-9.14-.7-18.55-2.77-27.77-3.18,8.41,15.27-5.87,29.06-21.38,28.08-.61-.03-.39-1.1-.23-1.51.73-1.91,6.29-6.18,7.74-8.22,2.14-3,2.62-9.07.13-11.96-3.97-4.6-12.68-.48-17.4.43-14.4,2.78-24.25,1.91-36.95-5.45-2.55-1.48-7.05-5.59-9.44-5.89-1.14-.14-5.37-.21-6.29.01-.63.15-1.18,2.87-3.3,2.96-1.88.08-3.74-2.13-4.97-2.14-16.6-.08-32.91,8.7-46.61,17.2-13.32,8.27-31.52,19.57-43.23,29.54-10.94,9.3-24.23,20.74-34.47,30.64-1.06,1.02-7.39,9.74-8.26,5.71-.48-2.23,6.31-12.04,8.02-14.26,5.52-7.13,13.97-15.8,20.35-22.41,20.41-21.15,44.68-34.82,68.63-51.37l-15.75,5.95c-29.34,13.3-53.3,36.02-78.41,55.64-4.89,1.08,3-9.24,3.83-10.22,16.08-18.94,44.51-44.46,66.92-55,18.69-8.79,40.43-14.25,61.08-15.2v-14.36c0-.91,2.03-7.62,2.52-8.97.61-1.69,1.94-2.88,1.96-4.75h.63s.64,2.55.64,2.55c-.65-2.43.05-5.66,1.27-7.86.23-.41,1.05-.38,1.48-1.22.33-.64.28-2.16.51-2.34.43-.34,1.96.24,2.41-.12.16-.13.61-3.2,1.3-3.98.59-.67,1.69-.36,2.25-1.07.44-.55.28-1.64,1-2.21.55-.44,1.74-.29,2.23-.97s.15-2.33.91-2.93c.92-.72,2.49.49,2.59.38.16-.19.06-2.39.94-3.22.95-.91,2.55-.4,2.83-.68.23-.23-.02-1.4.22-1.98,1.49-3.61,3.98-1.57,4.28-1.79.13-.09.44-2.11,1.27-2.91,1.46-1.41,3.45-.14,3.87-2.82-6.36.33-13.16-.46-19.47,0-3.78.28-8.15,1.39-11.94,2.11-15.47,2.93-30.61,7.41-45.2,13.22l.64,5.09c-2.56.6-1-3.43-2.55-3.83v9.26c0,.14-.7,1.06-1.28.64-1.53-1.09.07-9.28-.96-9.27-15.82,5.65-32.52,13.58-49.45,7.34-7.86-2.9-22.07-15.24-25.66-22.85-5.39-11.42.55-23.04,8.08-31.72,11.58-13.35,27.04-19.34,44.37-21.38l6.38-8.94-4.3,3.35c-.99.16-2.16.76-3.11.8s-.83-.61-.88-.63c3.65,1.6,15.2-14.86,15.95-14.04l-5.85,8.51-4.99,10.64,5.77-.29,4.45-9.92c1.24-.14.35,1.16.18,1.77-.79,2.82-1.99,5.59-2.74,8.43l10.86-.63c.22-8.11-.11-18.38,2.22-26.18.68-2.26,1.55-4.04,3.59-5.37.6-.39,1.7-.27,1.85-.38.08-.06-.82-1.24-.37-1.88.54-.76,2.81-1.4,2.92-3.19-4.27-.78-5.86,2.87-8.73,4.99-5.26,3.89-11.8,6.28-16.17,10.95,3.85-.31,7.33-3.52,10.8-5.47.55-.31,1.35-1.63,1.97-.59-1.83,2.47-5.24,3.5-7.34,5.43-1.57,1.45-3.26,4-5.09,5.76-3.31,3.19-9.16,6.31-9.27,11.47ZM247.49,180.88c-.36-.45-1.72-2.07-1.27-2.55l3.18,1.6c-1.11-3.5-4.96-4.11-5.74-7.65l1.91-.65c-1.85-2.14-2.22-5.81-1.45-8.51.18-.64-.03-1.91,1.13-1.39,1.26.57.99,2.69.97,3.82l1.91-.64-1.27,3.19c1.69.07,1.14-1.45,3.19-1.27.91,1.57-2.12,5.44-1.27,6.38,1.25,1.39,1.06-1.64,1.91-1.27l.64,1.91c-.23-1.58,1.56-1.34,2.56-1.91.5,3.36-3.95,6.45-.31,8.93,1.07-1.15.59-2.46,2.23-1.25l.64-1.92c.03,1.12.1,2.26-.13,3.38-.18.87-1.15,1.63-.83,2.35l2.87-5.73c.96,2.25-2.83,7.48-2.55,8.6.46,1.86,3.65-.51,3.83-.31v2.55s1.28-2.55,1.28-2.55c.09,3.29-3.1,4.94-1.26,8.29l2.26-5.07c1.64-3.42-.91-5.24-1.49-7.51-1.27-4.97.3-2.9-2.96-7.26-.73-.98-1.08-3.69-1.8-4.26-.64-.5-2.02-.26-2.87-.97-.53-.45-1.12-2.15-1.81-2.97-3.12-3.66-5.37-6.19-5.38-11.54-2.74,2.02-2.73,6.77-2.96,10-.26,3.71.53,6.92.87,10.18.13,1.21-.76,2.44-.35,4.25.26,1.15,1.42,1.92,1.66,2.83.36,1.37-.06,2.8.29,4.18.09.36,3.39,6.29,3.65,6.56l7.69,3.8c-.85-1.74-3.29-2.16-4.28-3.06-1.34-1.21-1.86-4.85-4.65-5.88l6.38,2.23c-.92-3.16-4.38-3.81-6.38-6.06h1.9c-.77-.66-1.35-1.39-1.9-2.23.13.12,3.13,1.66,3.2.96,0-.3-2.63-1.64-3.2-1.6ZM525.18,185.35c-2.94,2.73-7.62-3.15-8.94-1.91,1.15-.43,3.47-.86,3.82-1.6.91-1.9-4.14.09-4.71.41-1,.56-1.12,1.31-1.66,1.83-.21.2-.48.41-.64.64s-.5.39-.64.64c-2.2,4.05,1.31,9.65,5.75,10.23-.61,1.11-.35,2.33-1.92,1.9.89-1.46-.42-2.19-1.9-2.23,1.81,2.54,4.13,3.99,4.14,7.35.64-1.86,1.8-3.69,1.59-5.75-2.95-.55,1.04,3.1-1.91,2.55v-3.19c5.36.68,9.03-3.86,8.67-8.93-.14-1.96-.19-1.7-1.65-1.92,1.71-1.58,4.18-6.61,5.44-8.92,2.29-4.21,4.89-9.26,6.8-13.62.85-1.93,1.75-4.09,2.13-6.16-5.33,9.2-11.17,18.07-17.3,26.75-.83,2.33,1.64,1.77,2.93,1.96ZM344.55,224.9l27.75-3.81c21.32-.91,42.45-4.55,63.86-3.22,4.23.26,17.08,3.29,20.14,1.64.32-.17,1.65-6.18,1.78-7.11,1.35-10.03,4.48-23.59,4.51-33.21.02-5.86-1.41-11.92-7.18-14.4-21.26-9.12-53.46-6.14-76.01-2.98-11.19,1.57-34.82,4.55-41.54,14-11.46,16.13,4.48,32.7,6.69,49.09ZM308.14,168.11c.33-.26-1.64-1.62-1.82-2.35-.28-1.14,2.28-5.93-.41-5.3-.73.17-1.51,2.74-2.21,3.55-.55.63-2.03.9-1.94,1.24.54,1.94,2.55-.32,2.87-.3,1.3,2.06-.35,3.69,3.51,3.17ZM299.69,182.66c1.57-3.03,1.46-7.26,4.39-9.33,5.78-4.09,5.01,2.45,6.47,5.46,1.13,2.35,3.64,2.31,2.41,5.96-1.75,5.21-8.73.22-11.84,2.84,6.01-1.06,10.71,5.35,15.34-1.88,2.76-4.3-2-5.12-3.76-7.8-2.06-3.14-1.05-9.41-6.02-8.42-6.47,1.29-5.62,9.91-8.79,12.32-1.72,1.3-2.39,1.46-3.23-.58-2.31-5.6,10.68-10.54,5.21-16.66-3.19-3.56-7.44,2.24-10.08,2.81-2.91.62-6.12-2.34-8.74,2.07-4.26,7.17,3.95,8.05,5.54,12.92.45,1.37.38,2.42-1.26,2.9-3.94,1.15-6.01-6.15-10.66-5.65-5.11.55-3.16,5.75-3.62,9.2-.38,2.86-2.89,4.85-1.39,7.89,1.29,2.62,5.87,1.67,8.01.64,1.97-.95,7.63-5.65,6.06.31-.19.72-1.35,1.18-.81,1.74,2.49-1.34,4.35-3.52,4.79-6.37-1.99.14-3.91-1.13-5.93-.53-2.21.66-4.56,6.9-8.49,3.77-2.51-1.99.25-5.07.37-6.79.16-2.21-2.92-5.61,1.3-7.66,2.27-1.11,4.24,3.07,5.29,3.99,2.12,1.86,4.9,1.56,7.4.78l.6-5.95c-.41-1.88-6.62-1.92-4.72-8.07,1.04-3.34,3.93-2.14,6.47-3.11,1.99-.77,5.53-5.26,7.01-.71,1.51,4.65-4.42,7.84-4.21,12.45.05,1.18.72,2.33.67,3.54l6.23-2.06ZM304.3,167.48c-1.61-.16-2.15,1.02-1.91,2.55,1.61.16,2.15-1.02,1.91-2.55ZM248.76,170.03v-1.27h-.63v1.27h.63ZM291.55,177.05c2-.53,5.71-7.7,2.86-8.3-.96-.2-2.15,1.87-3.46,2.27-2.02.62-5.63-.51-6.33,2.01-.66,2.37,1.56,4.35,3.43,5.28,2.1-1.53-.5-5.68,2.87-5.73l.65,4.46ZM278.77,170.67c-1.41-.13-2.7.85-4.11.66-.93-.13-2.33-1.82-2.91-1.3-1.17,1.05,1.6,1.52,1.85,2.3.85,2.63-2.38,4.35-.27,5.93l2.24-.59-.63-4.45,3.82.63v-3.19ZM536.66,214.71l-.62-34.18-1.29-10.5c-.56,4.26-6.18,10.34-6.9,13.87-.48,2.38.75,4.3.47,6.8-.52,4.74-5.05,7.24-3.83,13.4.1.52,1.56.51,2.27,1,3.95,2.71,5.81,7.4,9.89,9.6ZM245.9,173.86v.64c.41-.21.41-.43,0-.64ZM252.28,173.86v.64c.41-.21.41-.43,0-.64ZM296.01,180.88c1.37,1.6,3.93-6.18,3.82-7.02-1.38.81-4.91,5.75-3.82,7.02ZM303.67,185.35c2.21.46,7.45,1.35,8.24-1.71.48-1.85-2.06-2.72-2.77-4.08-1.09-2.07-.33-7.38-4.2-5.39-1.13.58-3.67,6.83-3.18,7.35.82.46,5.04-3.1,5.09-.96.02.97-4.01,4.09-3.17,4.79ZM250.37,174.5v.64c.41-.21.41-.43,0-.64ZM276.86,175.78c-1.06,1.02,5.71,6.87,6.7,7.66.84.67,1.45.48,1.6-.33.25-1.39-4.48-5.48-5.72-6.4-.61-.45-1.95-1.53-2.58-.93ZM250.04,178.33v-1.27h-.63v1.27h.63ZM291.52,184.68c-.75-2.1.16-5.77-1.89-6.99l-.64,7.66,2.53-.67ZM494.86,182.16v.64c.41-.21.41-.43,0-.64ZM512.41,182.17c-1.12-.98-6.12,4.46-5.43,6.37l5.43-6.37ZM303.03,182.8l-7.02,2.56c-.38.27.77,2.48,1.26,2.88,1.46,1.2,1.31-.83,2.22-1.62.53-.46,4.6-2.81,3.54-3.82ZM280.05,187.9c-1.28-1.31-2.66-4.93-4.67-4.39-2.81.74-.43,3.49-.42,5.36,0,2.19-2.34,4.42-.68,6.41,1.97,1.38,5.15-2.67,6.4-3.86-.46-1.36-3.66-1.45-3.82-1.6-1.55-1.5,3.03-1.79,3.19-1.92ZM250.05,184.71l1.9.33c-.57-.69-.96-1.17-1.9-.96v.63ZM260.91,203.86c-.44-.31-2.11-8.73-2.71-10.38l-4.96-8.76c4.23,8.71,6.06,17.27,3.18,26.8l-2.55-.95c2.55,3.52,1.41,6.58,1.95,10.18.23,1.55,1.65,2.97,1.25,4.82,1.66.26.99-.17,1.33-.92,1.92-4.23.67-5.16.82-8.87.22-5.58,3.85-11.47,8.05-14.8-1.68-.19-5.03,3.81-6.36,2.87ZM289.78,186.78c-3.08,3.1,1.88,9.83,5.34,6.93,3.84-3.22-1.83-10.46-5.34-6.93ZM318.27,186.73c-1.04-.72-2.32,1.39-1.83,1.81.16.14,5.18.43,3.19,1.91-1,.75-4.78-.22-3.83,3.83,1.97.36,1.28-1.76,2.57-2.86s4.35-1.16,5.09-2.57c.86-1.64-3.94-.75-4.69-.94-.52-.13-.39-1.1-.5-1.18ZM287.71,188.55l-6.38,1.26,6.37,1.92v-3.19ZM307.5,189.83c-2.57-.17-6.48-3.46-6.38,1.26,2.01.38,5.07.91,6.38-1.26ZM258.66,189.18v.64c.41-.21.41-.43,0-.64ZM277.63,206.93c-.36-.64-.23-1.93-.1-2.69.19-1.15,1.01-1.94.93-2.91-2.6,1.6-4.15,2.52-3.39,5.91s4.54,2.79,6.85,4.01c1.48.78,2.16,2.85,4.32,3.34,3.03.69,8.25-1.21,8.43-4.62.13-2.46-5.54-12.42.35-11.87,4.96.46.59,11.03,6.84,13.01,5.58,1.77,5.68-2.86,7.67-6.16,1.85-3.07,7.35-9.05,3.7-12.22-3.87-3.35-13.03,4.51-13.7-3.52-3.44,2.51-.41,5.47,3.12,5.07,2.62-.3,4.48-2.54,7.39-.28,4.75,3.7-2.68,6.1-3.49,7.97-.77,1.75.31,3.72-1.88,5.14-4.78,3.09-4.84-5.5-6.43-7.69-.5-.69-4.51-3.24-5.01-3.14-1.14.23-2.77,2.92-2.94,4.13-.54,3.83,4.13,9.54-.03,11.43-3.78,1.72-4.38-2.31-6.38-3.18-1.38-.6-5.34-.16-6.24-1.73ZM313.24,191.09c1.17.15,1.86.04,2.54-.95l-.95-.95-1.6,1.9ZM251.64,190.46v.64c.41-.21.41-.43,0-.64ZM252.92,191.1v.64c.41-.21.41-.43,0-.64ZM296.97,193.68c-.25,0-1.16,1.26-1.59,1.57l6.06,3.5c.32-1.21-4.13-5.07-4.47-5.06ZM290.9,194.93l-2.55-.65-2.24,7.65c.6-1.29,5.64-5.87,4.79-7ZM300.48,200.03c-.56,2.52,3.04,8.9,4.33,4.65.32-1.04-.04-2.23.46-3.37.64-1.45,5.08-3.08,4.75-4.72-.57-2.81-5.73-1.13-7.62-1.03l2.55,5.1-4.46-.63ZM282.6,196.21c-.52-.48-4.36,2.2-5.29,2.68-1.66.86-4.06.52-4.92,3.05l2.57.3c.25-1.13,9.1-4.66,7.64-6.03ZM523.9,198.11l.33-1.9c-.69.57-1.17.96-.96,1.9h.63ZM522.62,196.84h-1.91c.79,1.68,1.2,3.29.64,5.1,1.98.23,1.06-.27,1.07-1.43.01-.91.33-3.54.2-3.67ZM272.39,199.4c-4.33-1.16-2.22.48-2.87,1.87-.55,1.17-2.46,1.86-2.87,3.22,5.24.01,2.88-1.22,3.48-2.52.43-.93,2-1.44,2.26-2.57ZM283.24,205.13l1.27-5.1c-1.62.76-6.19,3.27-5.74,5.41.23,1.07,3.97,1.12,5.29,1.75,1.53.73,4.49,5.38,6.27,2.62.81-1.26-1.89-7.86-2.3-7.85-1.5,1.23-2.5,3.51-4.79,3.17ZM297.28,211.52l-.77-9.12c-.39-1.12-.9-2.6-2.41-2.37-.63.74,1.47,7.71,1.88,9.28.23.88.08,1.98,1.3,2.2ZM520.07,205.78c.46-.93.29-2.56,1.27-2.55.25.42.13,4.35,1.29,3.5v-4.14c-.11-.09-1.24.73-1.63.06-.56-.96.28-2.68-.93-2.61l-1.29,6.38-.31-3.18c-1.3,1.53-.89,3.63-2.87,4.79l1.9-.96c-.27.79.59,1.57.64,1.91.13.76-.06,1.73,0,2.55-.98-.92-1.17-2.85-2.23,0-3.02-5.8-2.14-.63.64,1.91l.32-1.91c.76-.14.83.73,1.27,1.27.07.08-.11.53.32.63.4,0,.28-.59.32-.63.53-.53.95-.34,0-1.28.2-.96.29-1.93.64-2.86l-.64-.33c.2-.5.16-1.22.44-1.76.31-.62.81-.74.84-.8v2.55s.63,0,.63,0l.64-2.55h-1.27ZM273.66,205.14c.36-2.65-3.79-2.31-2.55-.64.08.11,2.41.79,2.55.64ZM536.03,226.2c.35.03,1.23.05,1.27,0,.22-.27.08-6.11-.33-7.02-3.74-3.59-6.94-8.15-10.51-11.83-.72-.75-1.38-1.77-2.57-1.58-.67,5.35-2.28,10.7-3.1,16.15,7.48,5.64,8.15,17.29,15.89,22.43.76.5,2.34,1.56,3.16.67-4.8-4.09-10.84-8.71-10.85-15.64,1.91-.59,1.98.89,2.55,1.27-.69-.07-1.41-.67-1.9-.33,2.48,5.23,8.06,11.6,13.37,14.07,1.97.92,5.11,2.08,3.85-1.28-1.77-4.73-9.26-6.26-12.11-10.87l6.82,4.66,3.38,1.4c-.56-1.35.14-3.76-.56-4.8-.87-1.29-4.38-3.15-5.82-4.44-1.03-.92-1.72-2.07-2.55-2.88ZM521.98,209.6v-1.27h-.63v1.27h.63ZM520.7,210.88v-1.91h-.63v1.91h.63ZM299.52,211.52v.64c.41-.21.41-.43,0-.64ZM512.41,217.27l-1.28-4.47c-1.99,1.02-.41,4.14-.63,5.74.5-.44,1.77-.54,1.91-.64-1.17.67-1.41.73-2.55,1.28.06-.06.09-1.31,0-1.59-1.28-3.75-2.04,3.62,0,1.59-.55.26-1.27.75-1.96,1.01l-1.23,16.22c2.18.63,2.67-1.22,3.34-1.69.76-.53,2.47.65,1.76-3.42-1.77,1.01-1.88,3.26-4.45,2.88,1.34-2.04,4.35-3.65,5.75-5.27.99-1.15,4.4-6.43,5.09-7.82-.11.47-.22,2.29.32,2.56.6,0,.28-1.9.32-2.56,0-.16.98-.63,0-1.28.72-1.56.93-5.03,2.54-6.71l-4.46,1.6c-.05-.45-2.55-1.5-3.19-1.91-.46-.29-.54-1.75-1.91-1.27l.64,5.74ZM299.11,214.79c-.16-.18-1.23-.11-1.75-.44-.41-.25-3.35-2.91-3.26-.6.02.44,1.81,1.01,2.2,1.62.47.74.34,2.94,1.31,3.16,1.63.36,2.07-3.11,1.5-3.75ZM264.73,251.73c.27-.31-1.97-6.49-2.24-7.65-1.15-4.86-2.11-10.51-1.42-15.48.42-3.06,2.32-5.9,2.75-8.75.52-3.46-.91-2.98-2.13-.21-4.13,9.35-2.98,21.68,1.48,30.81.2.41.55,2.46,1.56,1.28ZM589.01,266.41c-.15-3.47,1.7-5.45,1.13-9.1-1.57-10.01-11.05-17.14-18.79-22.7-9.72-6.99-20.79-12.84-32.12-16.7-.67.66,1.98,3.01,2.54,3.52,6.66,6.11,20.33,14.88,23.78,22.83.39.9.35,2.62.6,2.9.18.21,3.96,1.42,5.19,2.15,7.39,4.37,10.47,10.09,15.88,16.03.57.62.57,1.37,1.8,1.07ZM250.69,220.46c-.58,2.67,1.24,4.4,1.94,6.67,2.59,8.46,4,18.4,9.87,25.23-.34-1.92-1.64-3.54-2.27-5.39-2.3-6.79-1.56-13.53-3.51-20.1-.91-3.06-2.28-6.62-6.03-6.41ZM539.85,221.1c-.11-.08-1.35-.23-1.25.31l.72,7.25c9.34,4.23,14.97,15.33,25.44,17.32-5.97-9.54-15.87-16.02-24.23-23.35-.59-.52-.61-1.48-.68-1.53ZM319.63,222.38c.65,1.92,1.98,1.14,1.91-.64l-1.91.64ZM454.32,222.37h-9.58c-1.08,0-1.94,11.54-1.91,13.4l11.48-13.4ZM341.88,223.1c-1.25-.89-19.15,4.3-20.05,5.63-1.54,2.29,1.67,16.95,2.29,20.44,12.9-2.78,25.63-7.02,38.91-7.65-2.32-2.02-4.71-4.8-7.07-6.64-2.96-2.3-10.66-6.05-12.52-8.22-.72-.85-1.25-3.32-1.56-3.55ZM283.02,243.01c-4.1-4.1-10.49-6.96-14.16-11.69-1.86-2.39-2.53-5.34-4.45-7.66-3.17,4.75-2.33,10.81-1.5,16.17.35,2.24,1.51,8.45,2.44,10.18.39.72,1.68.34,2.52,1.45,1.98,2.62,1.82,5.43-1.07,7.13-4.38,2.57-7.67,2.26-8.37-3.28l3.11-1.98-3.95-5.63-6.26-18.31c-1.44,6.32.77,13.49,2.2,19.81.87,3.82,5.25,20.98,7.99,22.65,1.6.97,9.92-.13,11.97-.82,3.84-1.29,13.57-9.48,15.78-12.95,2.77-4.35-3.06-11.88-6.25-15.07ZM320.86,224.34c-.34-.55-5.43-1.52-5.7.58,1.32-.85,5.41,1.64,5.74,1.28.06-.07.09-1.64-.04-1.86ZM516.87,228.75l.64-5.1c-1.28.21-2.03,4.73-.64,5.1ZM521.34,223.65c-1.84-.49-1.3,2.24-2.07,3.98-.98,2.22-2.61,4.21-4.21,6l3.19,9.08,12.68,1.36-3.19-7.34-11.5-2.23c.31-.5.57-1.86,1.06-1.96,1.66-.31,9.21,1.81,9.79,1.32-1.05-3.88-3.94-6.73-5.76-10.2ZM363.67,238.97c0-4.7.26-9.41-.64-14.04-4.78,1.13-9.76,1.69-14.68,1.92l15.31,12.12ZM320.26,229.39c2.25-2.58-8.66-5.74-10.21-2.23,1.11.58,2.65.23,3.99.48,1.15.21,6.01,2,6.22,1.75ZM514.96,231.94l.64-5.1c-1.28.21-2.03,4.73-.64,5.1ZM320.23,230.07c-6.24-1.29-12.88-2.29-19.11-.34l-3.84,2.22c7.54-2.73,15.63-2.57,22.97.64l-.03-2.52ZM512.42,233.86c1.64-.5,1.28-2.42,1.27-3.83-1.64.5-1.28,2.42-1.27,3.83ZM320.9,236.41c1.77-1.8-3.91-4.02-4.95-4.3-5.24-1.38-10.81-.8-16.11-.16.07.89,2.87,1.12,3.58,1.2,3.4.35,6.46.15,9.97.88,1.31.27,7.23,2.66,7.51,2.38ZM296.33,231.95v.64c.41-.21.41-.43,0-.64ZM295.05,232.58v.64c.41-.21.41-.43,0-.64ZM299.84,234.5c-1.46-.23-2.72.26-2.54,1.91l2.54-1.28v-.63ZM303.35,234.5v.64c.41-.21.41-.43,0-.64ZM320.73,237.86c-1.22-1.59-9.67-3.08-11.96-3.36,3.53,3.72,8,4.64,12.77,5.73-.46-.69-.43-1.88-.81-2.37ZM295.37,235.14h-1.91v.63h1.91v-.63ZM302.39,235.14c-.63-.53-3.63,1.54-3.19,1.9,1.45.24,2.67-.56,3.19-1.9ZM513.68,235.14c-2.4.49-4.41,2.17-6.99,1.94l-.02,5.72c.5-.46,1.84-.58,1.91-.65.48-.51-2.65-5.2-.33-4.46,1.18.38,1.06,6.94,5.43,5.11v-7.66ZM302.39,237.05c.94.21,1.33-.27,1.9-.96l-1.9.33v.63ZM296.01,236.42c-1.13-.69-5.63,1.38-4.46,2.55.11.11,2.3-.97,2.95-1.23.89-.36,1.87.64,1.51-1.32ZM516.88,242.79l-1.91-5.74v5.37c-.05.66,1.84.44,1.91.37ZM546.25,237.06c.23,3.48,3.46,4.35,6.37,4.79l-6.37-4.79ZM287.72,238.33c-.16,1.17-.04,1.86.96,2.54l-.33-2.54h-.63ZM294.09,240.24c.39-.65.82-1.05.63-1.91-1.73.76-3.54,1.61-3.18,3.83.1.12.98-.46,1.27-.64-.27.83-.72,1.64-.63,2.55.14.17,1.45-1.01,1.91-1.28-.18.39-1.29,3.32,0,3.19,1.15-3.72,4.63-4.99,8.31-4.47l-.65-1.91c-2.14.86-5,1.5-7.01,2.56.43-.52.65-1.16,1.44-1.41l4.31-1.78c-2.19.01-4.31.71-6.38,1.27ZM302.39,238.33h-1.27v.63h1.27v-.63ZM322.18,244.07c-.63-3.25-2.62-3.86-5.75-3.82,1.26,1.95,3.21,3.98,5.75,3.82ZM534.75,245.34c.25-.24-1.85-2.19-2.23-2.55-.53-.5-1.44-1.95-2.22-1.6.94.29,3.48,5.08,4.46,4.15ZM290.9,242.81c-.09-.13-2.62-.74-3.19-.64.46,2.28,4.48,2.45,3.19.64ZM302.39,242.16c-4-.65-8.33,2.01-7.65,6.37,1.09-.4.69-1.72,1.87-2.91,1.71-1.73,4.44-1.56,5.79-3.46ZM572.42,253c-.15-.96-1.21-1.19-1.9-1.6-3.09-1.84-7.77-3.53-11.16-4.8-3.68-1.37-7.57-2.26-11.19-3.81l-.65,3.83,24.9,6.38ZM297.29,261.94c2.17,1.04,6.63,1.95,6.77-1.58.16-4.18-9.73-9.58-13.12-11.53l-5.15-4.74c3.74,3.06,5.35,12.61,8.59,14.71s5.7-3.2,8.01.29l-5.1,2.86ZM300.48,246.63c.14-.08.27-.92,1.05-1.15,1.09-.32,2.3-.08,3.41-.13-2.85-3.5-10.19.85-8.93,5.12l1.27-.64c-.19,1.18-.06,2.66,1.26,1.9.06-.04.21-.8.65-1.27-.2,1.01-.17,3.62,1.27,2.55.11-.08.27-1.82.98-2.57.61-.64,1.3-.45,1.59-.62-.92.75-2.1,3.18-1.91,4.47,1.71-1.69,1.63-2.14,3.82-3.19-.28.1-3.11,3.91-2.55,4.46,1.12,1.11,1.76-2.5,3.19-1.91-.09.05-1.4,1.59-.96,1.9,2.93-2.7,2.79-.11,3.3.01,1.23.3,5.58-.33,5.96,0,2.34,2.01-3.76.68-4.08.69-1.15.03-4.61,1.04-4.85,2.19-.49,2.36,1.88.79,2.54.62,8.32-2.19,14.49,2.59,18.86,9.27.22.34.52,2.44,1.57,1.27.32-.36-1.59-4.05-2.02-4.68-2.37-3.5-7.43-6.74-11.38-8.09-.12-1.29,2.3-.04,2.73.15,3.28,1.49,7.47,4.03,8.77,7.51,1.32.08.39-1.8.14-2.38-2.47-5.67-15.17-11.65-20.57-8.47,1.79-2.51,6.77-1,9.56-.95-1.26-1.93-8.69-2.15-10.2-1.6,2.38-1.14,3.7-.94,6.38-.95-1.33-1.33-5.33-1.28-7.02-.96,1.44-.42,2.57-1.07,4.47-.64-1.66-2.98-6.86-.05-8.94,1.28,1.74-1.64,2.85-3.24,5.74-3.2-.19-1.42-4.54-.34-5.1,0ZM291.54,244.71c-.76.86-2.46-.1-2.54,0-1.14,1.29,1.58,1.38,2.54,1.91v-1.92ZM322.18,244.71h-1.27s.64,2.55.64,2.55h.63s0-2.55,0-2.55ZM586.46,268.96c1.14-1.03-9.01-12.45-10.67-13.26-12.94-2.05-25.21-8.08-38.16-9.13-22.9-1.86-57.25-4.04-78.42,5.89-12.04,5.64-27.18,20.14-27.86,34.06-.45,9.21,3.93,14.15,12.45,16.9l-2.71-8.77c-3.15-17.01,15.34-31.19,30.3-34.46,24.28-5.3,51.89-4.93,76.13.79,12.9,3.04,25.32,9.75,38.93,7.98ZM292.81,247.27h-1.27s.96,1.27.96,1.27l.31-1.27ZM260.96,258.69c.96.66,6.94-1.46,6.83-3.32-.32-5.8-3.43-1.18-5.17-.3-.77.39-2.25.41-2.37.49-.21.15.44,2.95.7,3.13ZM306.86,255.57c-.94-.21-1.33.27-1.9.96l1.9-.33v-.63ZM326.01,257.48l-1.9-.33,1.59,1.6.31-1.27ZM291.54,260.67c.09-.31,1.12-3.11-.31-2.55-7.33,8.28-15.67,16.72-27.78,15.32v1.91c7.52-.89,15.95-3.7,22.03-8.3,2.36-1.79,3.75-4.57,6.06-6.38-1.02,3.42-3.33,4.89-5.79,7.3l-14.64,7.37c2.83-.19,5.48-1.31,7.99-2.53l.3,1.26c2.08,2.13,15.08-8.97,15.96-11.81.14-.44-.66-.46-.95-.31-.58.31-5.01,5.92-6.76,7.29s-4.77,3.63-6.97,3.25c4.04-2.47,11.94-7.06,12.77-12.13.06-.37.17-1.05-.32-.96-.42.57-1.07.86-1.6,1.27ZM493.9,261.95c.07-1.12.5-2.09.64-3.19-2.09.02-4.36-.35-6.24.78-1.18,5.07-3.68,10.54-4.45,15.65-.09.63-.65,4.24.47,3.99-.48.2-.74,1.22-1.94.35-2.83-2.05,3.44-16.01,3.86-19.19.33-2.52-2.94.69-3.67.86-1.26.29-2.28-.5-3.5-.38-14.48,1.45-37.19,14.06-36.23,30.79,1.28,22.26,23.6,14.77,37.34,9.27l1.6-7.65c-1.12.08-2.22,0-3.33-.18-.66-.11-2.54-.18-2.41-1.09,1.12-.6,4.8.66,5.01.53.09-.05.11-.86.55-1.16,1.65-1.13,8.8-7.57,9.43-8.95,1.32-2.9-.41-11.32,1.61-14.98-.38-.98-1.19.74-1.28.95.96-2,1.23-4.03,2.55-6.38-.17,2.66-.64,7.02-.64,9.26v11.17c2.4-2.11,2.37-6.6,3.2-9.57,1.15-.15.58,1.39.47,2.06-.19,1.1-.46,2.45-1.1,3.37.5.27,2.07-.65,2.27-.94.31-.45-.37-.87-.37-.98v-17.55c-3.56-.57-2.14.78-3.15,2.81-.21.41-.66.35-.68.38ZM499.01,258.75v23.3c0,.91,1.29,5.02,2.33,5.35,3.98,1.27,4.17-6.82,4.08-9.21-.22-6.37-1.62-13.03-1.3-19.44h-5.11ZM509.22,258.75h-3.2s.65,8.94.65,8.94l7.65-8.62-4.46-.31c-.28.26,1.86,3.94-.63,4.46v-4.47ZM523.26,265.14c.12-1.5-.04-5.72-1.68-6.3-3.1-1.08-4.29,2.96-6.48,4.78-.03,3,3.79,10.65,4.33,3.76.21-2.64-.43-4.81-.64-7.35l4.46,5.11ZM326.01,270.24c-2.08-6.79-10.33-11.5-17.23-10.84.23,1.25,1.35,1.04,2.22,1.29,4.58,1.29,8.03,2.16,11.53,5.7l3.48,3.85ZM327.29,261.3c2.34-.01,2.34-1.9,0-1.91v1.91ZM538.52,261.37c-4.63-.75-9.27-2.02-13.98-1.98-.76.77,2.04,10.39-3.82,5.75-.03,8.68-5.4,7.55-6.71,0-1.79,1.48-5.8,5.23-2.9,7.37,2.7,1.99,1.48-2.24,3.22-2.9.45,5.89-3.75,3.48-4.36,3.89-.27.18-.8,2.16-1.7,2.48-.03-1.07,1.11-1.85,1.29-3.1.1-.69-.38-1.3-.34-1.99-4.21,1.36-1.67,4.7-1.89,8.64s-2.56,6.85-1.29,11.14c10.74-3.93,21.79-7.31,33.17-8.96l-.68-20.34ZM482.41,260.04h-1.27v.63h1.27v-.63ZM308.14,261.94c6.03.26,10.83,4.43,14.03,9.28,3.65.56.75-3.22-.6-4.51-2.47-2.36-7.36-4.63-10.72-5.23-.67-.12-2.81-.74-2.7.47ZM331.75,263.22c-.13-3.99-4.07-.26-3.19.64l3.19-.64ZM280.69,275.98c3.29-.35,16.61-9.91,16.58-12.44,0-.35-.68-1.24-1.55-.28-2.11,2.34-3.93,4.97-6.44,6.97l-8.6,5.76ZM309.09,262.58v.64c.41-.21.41-.43,0-.64ZM281.97,276.64c-.34.49.54,1.87.95,1.89,2.25.12,15.31-10.65,15.63-14.35l-2.26,2.84c-4.44,3.64-8.99,7.3-14.32,9.62ZM313.24,265.77c-.32-.07-.9-.02-1.28,0-.3-.36-.46-1.06-.96-1.27-1.72-.72-.42.86-.31,1.27,0,.03-.44-.1,0,.64.17.27.47.43.64.64.18.23.46.41.64.64.46.58,1.05.98,1.28,1.28.18.23.46.41.64.64s.49.42.64.64.38.84.64,1.28c.62,1.05.7,3.38,1.55.67l2.28.29c-1.5-2.63-3.98-4.29-5.74-6.71,2.74.61,4.05,3.57,5.84,5.33.84.83.92,1.36,2.46,1.05.61-.54-4.37-5.4-5.16-6.01-1.02-.79-3.41-2.72-4.41-1.97.56.44.87,1.05,1.27,1.6ZM314.52,274.07c1.41-1.54-6.2-8.39-7.34-9.56l5.31,8.09c.15.76,1.53,2.02,2.04,1.47ZM332.39,264.5c-.15-.17-4.41.64-3.18,1.91.36.37,4.39-.61,3.18-1.91ZM299.84,265.14l-2.01,5.97-6.62,11.89c5.13-2.03,8-10.66,9.12-15.77.14-.65.64-2.24-.49-2.08ZM302.04,266.12c-.34-.4-.31-1.65-.92-.66-.07,5.23-2.66,10.45-5.1,14.99,5,.39,4.94-7.35,5.79-11.12.19-.82.74-1.23.89-1.68.62-1.76-.06-.83-.66-1.53ZM306.54,266.42l-.3.3.95.95.3-.3-.95-.95ZM392.4,276.62c-3.15-4.64-8.66-6.76-13.91-8.11-29.68-7.63-80.73,11.61-106.78,25.64-7.1,3.82-13.85,8.39-21.01,12.18-4.88,2.58-9.88,5.33-15.33,6.36,3.31,3.57,6.63,6.76,11.31,8.48,13.28,4.88,28.93-6.68,40.38-12.32,22.78-11.21,47.3-22.1,72.01-28.21,10.65-2.63,22.4-5.63,33.33-4.02ZM305.9,267.69v.64c.41-.21.41-.43,0-.64ZM331.12,267.7h-1.91c-.49,2.76,2.35.35,1.91,0ZM296.01,270.24c-.22.2-.42.43-.64.64-2.36,2.18-5.07,4.18-7.71,6.01s-6.12,1.86-3.46,5.47l3.82-2.56,5.43-4.78c-1.55,2.07-3.16,4.02-5.09,5.76s-4.61,1.73-3.84,4.78c.27.29,4.41-1.68,4.91-2.11,1.8-1.53,6.05-9.52,6.57-11.93.66.11.52-.46.64-.64.33-.49,1-.69.63-1.91-.78-.05-.93.97-1.27,1.28ZM312.61,274.7c-1.08-1.95-1.71-4.26-3.51-5.73-1.94,1.56.62,4.37.33,6.37,1.07.19.73-1.61.6-2.2-.29-1.41-1.26-2.18-1.24-3.54,2.06.86,1.7,2.99,1.91,4.69.11.84,1.23.31,1.91.41ZM302.3,278.44c.72-.73.64-7.28,1.05-8.82l-2.87,9.25c.27.26,1.75-.36,1.81-.43ZM308.77,275.98c.32-.96-1.91-6.49-2.23-6.38-1.39.5.25,5.66-.32,7.02,2.54.45.71-2.56.64-3.82l1.9,3.18ZM305.26,271.52v.64c.41-.21.41-.43,0-.64ZM304.3,277.9c-.02-1.16.04-2.34,0-3.51-.03-.77.48-2.38-.63-2.22l-.63,5.43,1.26.3ZM305.58,274.71v-1.91h-.63v1.91h.63ZM160.04,297.05c-2.71.64-3.28,1.19-3.19-2.55,2.39,2.9.95,1.39,3.12,1.01,9.06-1.61,10.64-7.11,17.74-11.74,1.87-1.22,11.52-5.7,11.02-8.02-.62-2.86-6.22-.71-6.92.32-.94,1.39,2.23,2.59.25,3.75-1.73-.04-1.65-2.6-1.91-2.54-1.73.44-2.6,2.08-2.24,3.82l-1.91-1.91v3.19s-1.91-2.55-1.91-2.55l-.65,3.82-.64-2.55c-2.29-.13-1.99,2.17-1.91,3.83l-1.59-1.91-1.61,4.46-.95-2.55c-1.13,1.8-3.31,1.49-4.75,2.27s-1.64,2.96-3.86,1.56c1.19,2.67-1.05,2.7-2.57,4.14-9.86,9.38-28.31,23.88-34.32,35.26-3.86,7.32-.15,22.01,3.99,28.91.41.69.65,1.75,1.6,1.9,1.08-2.76-1.37-4.94-3.17-6.71l2.54.96c.98-2.93-3-3.74-2.23-5.74l1.59,1.27c.3-1.94-.24-3.11-1.28-4.65-.35-.53-2.31-.47-.95-1.73l3.51,2.55-3.2-6.05,3.2,2.86c.28-1.78-1.08-3-1.62-4.44-.22-.6-.84-2.08.34-1.94l2.55,3.83-2.54-5.44c.54-2.72,1.77,2.14,1.91,2.25.23.18,1.24-.78,1.26-.95.03-.4-3-4.33-1.89-6.07.99-.23,1.58,6.09,3.19,4.46.14-.15-1.38-2.86-1.64-3.79-.17-.62-.82-2.1.35-1.95l2.55,5.1-1.26-7.02c1.16-.16.52,2.48,1.59,2.54,1.78.09-.73-3.81.95-3.81l1.92,3.19c.13-1.18-.69-2.05-1-3.14-.18-.61-.79-2.12.36-1.96l1.92,3.83-1.27-5.74,1.9,1.91-.32-2.55,3.2,4.45-1.6-5.73,1.92,3.83c2.26-.98-.06-3.51,0-5.1,2.09.74.95,3.97,3.82,3.19l-1.92-4.78,3.19,3.51-1.27-5.1,3.18,3.83-1.9-5.11c1.41.76,1.9,2.6,2.81,3.9.54.76.02,1.56,1.65,1.2l-2.56-6.69c1.89-.39,1.96,4.79,3.51,4.14,2.1-.88-1.71-4.18-.94-5.74,2.73,1.38,2.06,6.15,5.74,5.1.19-1.73-1.39-1.44-2.46-2.96-.71-1.02-1.33-2.45-1.38-3.73l3.52,4.78c2.55-1.01-2.14-4.75-1.59-6.38.08-.09,1.73,1.07,1.91,1.28.39.45-.07,1.89,1.59,1.92.79.02.02-1.73-.31-1.92,1.15.26,2.42-1.49,3.18-2.23,0-.75-5.94-2-4.45-3.51.16-.16,1.37,1.1,2.24,1.27.58.11,3.55.5,3.5-.62-3.97-.22-5.91-2.57-6.38-6.39,1.18.49,1.04,2.09,2.21,3.2,1.25,1.19,4.5,2.58,6.09,1.59.7-.44,2.81-3.9,4.46-4.48l-3.8-.29c-.14,3.1-.85,4.71-2.58,1.25.3.18,1.17.76,1.27.64.25-1.84-.23-1.08-1.27-1.28-.08-.02-.23-.79-.64,0ZM597.95,297.05c-2.71.64-3.28,1.19-3.19-2.55,2.39,2.9.95,1.39,3.12,1.01,9.06-1.61,10.64-7.11,17.74-11.74,1.87-1.22,11.52-5.7,11.02-8.02-.62-2.86-6.22-.71-6.92.32-.94,1.39,2.23,2.59.25,3.75-1.73-.04-1.65-2.6-1.91-2.54-1.73.44-2.6,2.08-2.24,3.82l-1.91-1.91v3.19s-1.6-1.91-1.6-1.91l-1.59,3.19-.95-2.54-.97,3.82-1.59-1.91-1.61,4.46-.95-2.55c-1.13,1.8-3.31,1.49-4.75,2.27s-1.64,2.96-3.86,1.56c1.19,2.67-1.05,2.7-2.57,4.14-9.86,9.38-28.31,23.88-34.32,35.26-3.06,5.79-1.05,19.89,2.27,25.52.77,1.3,1.01,1.7,2.69,1.45l-2.54-2.87,2.54.96c.98-2.92-3-3.74-2.23-5.74l1.59,1.27-.03-2.2-2.52-3.86,3.83,2.23-3.2-6.05,3.2,2.86c.28-1.78-1.08-3-1.62-4.44-.22-.6-.84-2.08.34-1.94l2.55,3.83-2.54-5.44c.54-2.72,1.77,2.14,1.91,2.25.23.18,1.24-.78,1.26-.95.03-.4-3-4.33-1.89-6.07.99-.23,1.58,6.09,3.19,4.46.14-.15-1.38-2.86-1.64-3.79-.17-.62-.82-2.1.35-1.95l2.55,5.1-1.26-6.38c1.09-.13.83,1.85,1.59,1.9,1.77.11-.72-3.82.95-3.82l1.92,3.19-.95-5.11,2.23,3.84-1.27-5.74,1.9,1.91-.32-2.55,3.2,4.45-1.6-5.73,1.92,3.83c2.26-.98-.06-3.51,0-5.1,2.09.74.95,3.97,3.82,3.19l-1.92-4.78,3.19,3.51-1.27-5.1,3.18,3.83-1.9-5.11c1.41.76,1.9,2.6,2.81,3.9.54.76.02,1.56,1.65,1.2l-2.56-6.69c1.89-.39,1.96,4.79,3.51,4.14,2.1-.88-1.71-4.18-.94-5.74,2.73,1.38,2.06,6.15,5.74,5.1.19-1.73-1.39-1.44-2.46-2.96-.71-1.02-1.33-2.45-1.38-3.73l3.52,4.78c2.55-1.01-2.14-4.75-1.59-6.38.08-.09,1.73,1.07,1.91,1.28.39.45-.07,1.89,1.59,1.92.79.02.02-1.73-.31-1.92,1.15.26,2.42-1.49,3.18-2.23,0-.75-5.94-2-4.45-3.51.16-.16,1.37,1.1,2.24,1.27.58.11,3.55.5,3.5-.62-3.97-.22-5.91-2.57-6.38-6.39,1.18.49,1.04,2.09,2.21,3.2,1.25,1.19,4.5,2.58,6.09,1.59.7-.44,2.81-3.9,4.46-4.48l-3.8-.29c-.14,3.1-.85,4.71-2.58,1.25.3.18,1.17.76,1.27.64.25-1.84-.23-1.08-1.27-1.28-.08-.02-.23-.79-.64,0ZM276.37,275.5c-.57.62-.71,1.86-.79,2.71-.15,1.52.17,11.09,1.59,11.17.31.02,5.21-2.64,5.44-2.86,1.32-1.24-1.2-7.62-2.29-9.21-.81-1.2-2.57-3.33-3.96-1.8ZM270.47,275.35l-5.1,1.26c1.1.16,2.13-.1,3.21-.3.68-.13,2.07-.05,1.9-.96ZM274.3,275.99c-.33-.28-8.3,1.61-8.28,2.23,1.57,2.35,1.62,2.68,4.63,2.08l3.66-1.76c-1.44-.16-2.76.48-4.15.63-.67.07-2.39.45-2.22-.63,1.7-.05,3.51-.4,5.1-1,.5-.19,2.42-.59,1.28-1.56ZM607.53,279.82c-4.71-.98-8.96-1.13-13.72-1.28-26.3-.85-59.93,4.69-84.92,13.39-16.37,5.7-39.51,19.3-56.75,16.56-4-.64-7.89-2.66-11.84-3.47,7.25,7.11,15.26,13.36,25.84,14.36,17.14,1.63,41.61-11.78,58.08-17.24,14.36-4.76,34.74-9.48,49.78-10.23,3.69-.18,13.25.81,15.89-.07,1.12-.37,1.35-2.31,2.34-2.82s2.16.37,2.58.09c.77-.52.71-2.72,1.56-3.57.57-.57,1.64-.47,2.02-.82,1.09-1.03,1.39-3.3,3.68-3.01,2.02.26,1.36,2.2,4.66-.44.5-.4,1.18.04.81-1.45ZM274.25,281.67c.23-.36-.02-1.29.05-1.86l-5.1,1.28c.22,2.03,4.71,1.13,5.06.57ZM502.83,288.11c-4.81,2.24-4.25-4.66-4.78-7.65-4.07,4.24-8.5,8.11-13.08,11.8,3.24,3.04,4.45,8.25-.33,2.25l.33,4.46,18.48-7.05-.62-3.81ZM274.3,284.92v-2.55s-3.18.64-3.18.64l3.18,1.91ZM754.98,357.05c1.9-6.27,3.55-8.51-.94-14.05-6.65-8.19-27.82-22.96-37.56-27.55-13.09-6.17-31-12.85-44.79-17.77-15.96-5.7-33.12-9.56-49.36-14.55-2.44-.48-3.23,3.73-4.31,4.96-.66.75-1.96.8-2.87,1.6-.84.74-3.46,3.66-3.79,4.51-.47,1.2,2.76,1.44,3.58,1.51,13.66,1.2,23.17,3.18,36.37,5.76,6.38,1.25,3.54,1.01,8.2,3.29,7.32,3.58,18.88,5.95,26.87,8.87,18.69,6.83,48.68,19.63,61.59,34.8,2,2.35,3.34,5.42,5.2,7.57.57.66.62,1.34,1.81,1.06ZM164.51,283.65c-1.19-.17-2.21,0-2.55,1.26,1.19.17,2.21,0,2.55-1.26ZM181.42,283.65v.64c.41-.21.41-.43,0-.64ZM602.42,283.65c-1.19-.17-2.21,0-2.55,1.26,1.19.17,2.21,0,2.55-1.26ZM619.34,283.65v.64c.41-.21.41-.43,0-.64ZM178.23,285.56v.64c.41-.21.41-.43,0-.64ZM267.29,294.5c5.23-2.28,11.78-6.29,2.56-8.94l-2.56,8.94ZM616.14,285.56v.64c.41-.21.41-.43,0-.64ZM177.27,286.84h-1.27s0,1.27,0,1.27l1.27-1.27ZM615.19,286.84h-1.27s0,1.27,0,1.27l1.27-1.27ZM174.72,290.03v-1.91s-1.91.64-1.91.64c-.36.29,1.38,1.8,1.91,1.27ZM612.63,290.03v-1.91s-1.91.64-1.91.64c-.36.29,1.38,1.8,1.91,1.27ZM155.57,290.67h-1.27s0,1.27,0,1.27l1.27-1.27ZM172.8,290.67c-.66-.7-5.31,3.56-4.46,5.1.86-.44,5.19-4.33,4.46-5.1ZM593.48,290.67h-1.27s0,1.27,0,1.27l1.27-1.27ZM610.72,290.67c-.66-.7-5.31,3.56-4.46,5.1.86-.44,5.19-4.33,4.46-5.1ZM482.73,293.22v.64c.41-.21.41-.43,0-.64ZM150.79,294.51l-1.59,1.59.3.3,1.59-1.59-.3-.3ZM167.7,294.5h-1.91c-.49,2.76,2.35.35,1.91,0ZM482.73,294.5v.64c.41-.21.41-.43,0-.64ZM605.61,294.5h-1.91c-.49,2.76,2.35.35,1.91,0ZM588.06,295.15l-.95.95.3.3.95-.95-.3-.3ZM263.45,296.42c-3.1-.4-5,.82-6.37,3.51l2.33-.85,4.04-2.66ZM645.82,302.8c-12.23-2.95-24.77-4.05-37.29-5.12-1.59.2-4.38,2.91-5.46,4.17l-5.75,9.24c1.96-2.3,4.16-1.01,5.35-1.32.86-.22.8-1.81,1.45-1.92,1.07-.19,2.91.94,3.32.63.29-.22.24-1.54,1.13-1.81s1.84.42,2.5.36c1.6-.16,2.11-3.79,6.02.88.06-1.11,1.7-3.13,2.6-3.53.97-.43,1.79.18,2.54-.05.82-.25,1.43-1.38,2.91-1.53,4.12-.45,3.38,2.52,3.79,2.58l16.9-2.57ZM483.68,299.6v-1.27h-.63v1.27h.63ZM146.63,298.97c-.94-.21-1.33.27-1.9.96l1.9-.33v-.63ZM584.54,298.97c-.94-.21-1.33.27-1.9.96l1.9-.33v-.63ZM142.16,302.16c-1.61-.16-2.15,1.02-1.91,2.55.84-.14,2.44-2.01,1.91-2.55ZM580.07,302.16c-1.61-.16-2.15,1.02-1.91,2.55.84-.14,2.44-2.01,1.91-2.55ZM172.17,322.58c1.43,2.03,2.78,1.78,5.1,2.55l-4.46-4.15c2.24-.46,3.91,3.7,7.02,2.87l-6.03-5.13-.98-6.35,1.63,5.06c3.43,5.71,10.17,4.67,15.59,2.92-1.09-.83-6.28-1.75-7.25-1.65-.62.06-.87,2.83-2.96,1.97v-2.56s-2.55.64-2.55.64l1.28-5.74c1.34-.15.24,2.19.66,2.53.2.17,1.41-.09,2.03.17.9.37,1.38,1.22,2.27,1.61,3.37,1.5,9.85-2.42,13.52-3.39,5.03-1.32,10.66-1.33,15.52-2.35,8.72-1.84,8.1-11.61-1.15-6.9l-.29,5.13c-2.49.67-1.58-4.06-1.92-4.46-1.23,1.18-5.08.22-5.66.72-.31.26-.02,2.01-1.04,2.46l-1.27-2.55-1.61,3.18c-1.58-.01.2-2.39,0-2.54-1.74-1.44-3.22,3.01-4.15,3.82l.95-3.83-2.87,3.83c-1.13-.79,1.27-2.92.96-3.18-1.55-1.31-2.49,4.99-4.46,3.51l1.91-2.87c-1.81.22-3.62.97-5.47.98-5.26.03-3.93.35-8.7,1.77-6.16,1.82-14.11,3.5-19.87,6.3-4.23,2.06-16.56,9.55-20.17,12.39-7.67,6.04-9.19,17.63-8.35,26.75.67,7.27,4.25,5.75,1.92-.64l1.9.32-1.92-3.5,1.91,1.27c-.39-1.3-2.32-3.18-1.59-4.15l1.59,1.27-1.26-3.52,2.54,1.6-1.9-4.15h2.53s-1.9-2.86-1.9-2.86c1.16-1.02,2.3,3.38,3.83,1.91.6-.58-2.26-3.36-2.54-4.15l3.18.63-1.9-3.82,3.81,2.88-1.27-5.1c1.35-.13.61,3.17,2.22,2.54,1.94-.75-.7-2.71-.31-3.82l1.92,3.19c2.58-.99.04-2.54,0-4.46,1.39.53.8,2.56,3.19,1.91l-1.91-4.46,2.87,3.82-.31-3.82c1.42.66,1.64,3.44,3.82,3.18l-1.9-3.51,2.53,2.24v-4.46s1.93,3.83,1.93,3.83c2.5-.93-.35-2.21,0-3.83,1.66,1.71,1.02,1.82,3.51,1.9l-.96-3.81c1.09.03.86,1.67,1.9,2.27.53.31,1.16-.59,1.93-.37l-1.6-3.81,3.19,4.45c.4-.52,1.44-1.11,1.56-1.67.19-.92-1.45-1.42-.92-2.15,1.04.93,2.83,3.15,4.15,2.23-3.36-3.75.44-.87,2.91-1.06l.58-1.18,3.22,1.91-2.23-4.14c.62-.56,1.32.93,1.9.96-.03.06.52.47.64.64ZM610.08,322.58c1.43,2.03,2.78,1.78,5.1,2.55l-4.46-4.15c2.24-.46,3.91,3.7,7.02,2.87l-6.03-5.13-.98-6.35,1.63,5.06c3.82,5.85,9.77,4.62,15.59,2.92-1.09-.83-6.28-1.75-7.25-1.65-.62.06-.87,2.83-2.96,1.97v-2.56s-2.55.64-2.55.64l1.28-5.74c1.34-.15.24,2.19.66,2.53.2.17,1.41-.09,2.03.17.9.37,1.38,1.22,2.27,1.61,3.37,1.5,9.86-2.42,13.52-3.39,4.95-1.3,16.72-1.58,19.86-4.4.8-.73,1.26-1.72,1.86-2.59-10.93-6.93-6.47,1.6-7.64,2.88-1.41,1.53-2.31-3.77-1.92-4.46-1.23,1.18-5.08.22-5.66.72-.31.26-.02,2.01-1.04,2.46l-1.27-2.55-1.61,3.18c-1.58-.01.2-2.39,0-2.54-1.74-1.44-3.22,3.01-4.15,3.82l.95-3.83-2.87,3.83c-1.13-.79,1.27-2.92.96-3.18-1.55-1.31-2.49,4.99-4.46,3.51l1.91-2.87c-2.5.34-5,1.69-7.33.23-8.22,3.32-18.33,4.87-26.3,8.58-3.51,1.64-19.02,11.12-21.6,13.5-3.09,2.86-7.33,10.87-7.33,15.02v9.26h2.55s-.63-2.55-.63-2.55l1.9,1.6-1.91-3.83,1.92.95-.96-3.82,2.23,1.9-1.9-4.15h2.53s-1.9-2.86-1.9-2.86c1.16-1.02,2.3,3.38,3.83,1.91.6-.58-2.26-3.36-2.54-4.15l3.18.63-1.9-3.82,3.81,2.88-1.27-5.1c1.35-.13.61,3.17,2.22,2.54,1.94-.75-.7-2.71-.31-3.82l1.92,3.19c2.58-.99.04-2.54,0-4.46,1.39.53.8,2.56,3.19,1.91l-1.91-4.46,2.87,3.82-.31-3.82c1.42.66,1.64,3.44,3.82,3.18l-1.9-3.51,2.53,2.24v-4.46s1.93,3.83,1.93,3.83c2.5-.93-.35-2.21,0-3.83,1.66,1.71,1.02,1.82,3.51,1.9l-.96-3.81c1.09.03.86,1.67,1.9,2.27.53.31,1.16-.59,1.93-.37l-1.6-3.81,3.19,4.45c.4-.52,1.44-1.11,1.56-1.67.19-.92-1.45-1.42-.92-2.15,1.04.93,2.83,3.15,4.15,2.23-3.36-3.75.44-.87,2.91-1.06l.58-1.18,3.22,1.91-2.23-4.14c.62-.56,1.32.93,1.9.96-.03.06.52.47.64.64ZM188.76,304.71c-1.22-.09-2.8-.18-3.19,1.27h3.19s0-1.27,0-1.27ZM626.67,304.71c-1.22-.09-2.8-.18-3.19,1.27h3.19s0-1.27,0-1.27ZM138.33,307.26c-.65-1.92-1.98-1.14-1.91.64l1.91-.64ZM576.25,307.26c-.65-1.92-1.98-1.14-1.91.64l1.91-.64ZM183.65,306.63h-1.91v.63h1.91v-.63ZM621.57,306.63h-1.91v.63h1.91v-.63ZM177.27,308.53c-.34-1.27-1.36-1.43-2.55-1.27v1.91s2.55-.64,2.55-.64ZM615.19,308.53c-.34-1.27-1.36-1.43-2.55-1.27v1.91s2.55-.64,2.55-.64ZM604.34,350.66c4.76-3.77,5.73-.82,1.92,2.87,0,.55,5.13,3.13,6.2,3.36,5.67,1.22,12.99,1.32,18.92,2.14,21.03,2.92,42.21,5.28,63.2,8.3,15.45,2.22,39.75,10.36,53.4-.38,3.03-2.38,5.71-5.05,3.97-9.11-2.46-5.71-12.89-14.58-18.09-18.29-2.5-1.78-5.16-3.41-7.8-4.97-21-12.36-45.01-20.05-68.09-27.33.86,3.88-4.6,5.07-5.42,6.4-1.36,2.19-.32,5.78-3.84.63-1.2,1.58-3.3,1.96-4.73,2.92-.75.5-.8,1.73-1.76,2.07-1.11.38-2.81.2-4.4.71-2.12.68-3.63,2.33-5.88,3.05-4.16,1.34-9.09.49-12.27,4.33,1.7,1.61,4.55.37,6.39,1.27,1.67.82,1.57,3.77,2.55,4.48.8.58,4.96,1.14,6.56,1.74,2.81,1.05,5.26,2.93,7.99,4.14,5.09,2.26,13.41,2.77,11.49,11.22-.89,3.93-4.22,2.39-6.5,3.09-1.11.34-.7,2.42-1.98,1.83-2.27-1.06-.81-3.68-.97-3.82-.22-.2-5.4.14-5.95.22-.65.1-1.28,1.12-1.95,1-.59-.11-1.15-1.4-2.14-1.72-1.97-.65-17.86-4.4-19.02-4.36-.78.03-1.79.98-3.17,1.05-3.07.16-6.2-.17-9.27-.02l.64,3.19ZM171.21,308.54v.64c.41-.21.41-.43,0-.64ZM609.12,308.54v.64c.41-.21.41-.43,0-.64ZM132.59,311.73l1.9-1.6-.95-.95c-.99.68-1.11,1.37-.95,2.54ZM570.51,311.73l1.9-1.6-.95-.95c-.99.68-1.11,1.37-.95,2.54ZM167.38,309.82v.64c.41-.21.41-.43,0-.64ZM605.29,309.82v.64c.41-.21.41-.43,0-.64ZM162.59,311.74h-1.27v.63h1.27v-.63ZM600.5,311.74h-1.27v.63h1.27v-.63ZM130.67,314.28v-1.27s-1.27.96-1.27.96l1.27.31ZM568.58,314.28v-1.27s-1.27.96-1.27.96l1.27.31ZM157.81,313.66l-.95.95.3.3.95-.95-.3-.3ZM595.72,313.66l-.95.95.3.3.95-.95-.3-.3ZM208.55,314.29h-1.27v.63h1.27v-.63ZM646.46,314.29h-1.27v.63h1.27v-.63ZM204.72,314.93h-1.27s0,1.91,0,1.91h.63s.65-1.91.65-1.91ZM642.64,314.93h-1.27s0,1.91,0,1.91h.63s.65-1.91.65-1.91ZM197.07,316.2c.18,2.8,2.24,2.01,1.91-.64l-1.91.64ZM202.17,315.57h-1.27s0,1.27,0,1.27l1.27-1.27ZM634.98,316.2c.18,2.8,2.24,2.01,1.91-.64l-1.91.64ZM640.08,315.57h-1.27s0,1.27,0,1.27l1.27-1.27ZM153.66,317.47c-1.13-2.44-3.65-1.27-3.19,1.28l3.19-1.28ZM591.57,317.47c-1.13-2.44-3.65-1.27-3.19,1.28l3.19-1.28ZM127.17,316.85l-.95.95.3.3.95-.95-.3-.3ZM180.47,318.75l1.26-.96-.95-.95-.31,1.91ZM195.78,316.83c-.56-.51-5.36,1.64-3.83,3.19.33.33,3.7-.64,4.18-1.25.17-.22-.29-1.87-.36-1.94ZM565.08,316.85l-.95.95.3.3.95-.95-.3-.3ZM618.38,318.75l1.26-.96-.95-.95-.31,1.91ZM633.7,316.83c-.56-.51-5.36,1.64-3.83,3.19.33.33,3.7-.64,4.18-1.25.17-.22-.29-1.87-.36-1.94ZM146,321.94c4.7-1.54.81-3.76,0-1.59-.14.38.06,1.09,0,1.59ZM583.91,321.94c4.7-1.54.81-3.76,0-1.59-.14.38.06,1.09,0,1.59ZM124.29,320.67h-1.27s0,1.27,0,1.27l1.27-1.27ZM562.2,320.67h-1.27s0,1.27,0,1.27l1.27-1.27ZM144.08,322.58h-2.55s0,2.55,0,2.55c1.11-.56,2.82-1.01,2.54-2.55ZM581.99,322.58h-2.55s0,2.55,0,2.55c1.11-.56,2.82-1.01,2.54-2.55ZM136.74,323.22v.64c.41-.21.41-.43,0-.64ZM574.65,323.22v.64c.41-.21.41-.43,0-.64ZM122.38,323.86c-1.65-.18-2.13,1.09-1.91,2.54h.63s1.28-2.54,1.28-2.54ZM560.29,323.86c-1.65-.18-2.13,1.09-1.91,2.54h.63s1.28-2.54,1.28-2.54ZM167.06,327.05l-.31-1.91c-.68.58-1.16.97-.96,1.91h1.27ZM170.25,325.14h-1.27v1.91h1.27v-1.91ZM604.97,327.05l-.31-1.91c-.68.58-1.16.97-.96,1.91h1.27ZM608.16,325.14h-1.27v1.91h1.27v-1.91ZM175.36,325.78h-1.27v.63h1.27v-.63ZM613.27,325.78h-1.27v.63h1.27v-.63ZM137.38,326.42l-.95.95.3.3.95-.95-.3-.3ZM163.87,327.68c.31-.25-1.12-1.68-1.91-1.27v1.91s1.91-.64,1.91-.64ZM172.8,326.41c-.7-.7-1.97.57-1.27,1.27s1.97-.57,1.27-1.27ZM575.29,326.42l-.95.95.3.3.95-.95-.3-.3ZM601.78,327.68c.31-.25-1.12-1.68-1.91-1.27v1.91s1.91-.64,1.91-.64ZM610.72,326.41c-.7-.7-1.97.57-1.27,1.27s1.97-.57,1.27-1.27ZM159.4,327.69h-1.91s0,1.91,0,1.91c1.23-.67,2.32-.36,1.91-1.91ZM177.27,329.6c-.14-.84-2.02-2.44-2.55-1.91-.96.97,1.45,2.05,2.55,1.91ZM597.31,327.69h-1.91s0,1.91,0,1.91c1.23-.67,2.32-.36,1.91-1.91ZM615.19,329.6c-.14-.84-2.02-2.44-2.55-1.91-.96.97,1.45,2.05,2.55,1.91ZM182.38,332.79c-.09.15-1.67-1.03-2.36-1.15-2.56-.45-5.32-.07-8.01-.93-1.51-.48-2.33-1.76-3.96-1.79-4.26-.06-16.8,4.49-20.46,7.06-6.43,4.52-13.12,16.17-13.69,24.02-.27,3.66,1.58,2.92,2.67,4.86,1.91,3.39.53,7.27,6.87,4.94.27-.36-5.02-5.97-4.46-7.65,1.61.31,2.52,5.97,3.51,2.55l.33,1.92,1.26-1.27.65,3.82.64-2.55c1.25-.19.35,1.5.63,1.92.98,1.43,1.3-1.26,1.59-1.29l1.27,1.29.33-1.92.99,1.31,3.48-.68c-.65-6.13-7.42-7.77-12.77-7.02.39-2.07,4.04-.93,4.47-1.28l-3.18-4.79c.89-.36,4.37,6.19,5.09,3.19s-3.79-5.15-3.82-7.97c.87.21,4.96,7.96,5.74,4.14.18-.91-5.35-6.32-4.46-8.6l4.14,6.39c.38,1.13,2.28,1.42,2.23.31-.03-.58-6.17-7.69-4.45-10.53l2.41,6.19c1.08,1.5,3.36,5.06,4.6,2.11-2.8-.95-3.9-6.19-4.46-8.94l3.82,7.01c-.47-2.03-1.13-5.22-.65-7.21.05-.2,2.99-2.59,3.18-2.68,1.58-.73,3.89,2.16,5.12,2.87.56-1.05-2.45-3.34-.64-3.83.96,2.88,2.72,6.45,5.11,8.29l-3.18-9.57,4.47,8.93c2.71.55-.22-3.44-.67-4.76s-1.22-3.42-.93-4.82l2.55,6.39.97-.97,2.56,4.79c1.18.14.56-1.33.34-1.94-.74-2.03-2.31-4.09-2.59-6.35,2.34,2.36,2.5,7.69,6.71,7.64-2.38-2.66-4.2-5.18-4.96-8.76-.14-.65-.65-2.24.49-2.08.21,2.31,2.43,8.52,4.36,9.53.51.27,6.27,2.21,6.49,1.96.08-.09.34-1.71-.42-1.92-1.36-.39-6.15-1.76-6.59-2.87l1.28-.64c-1.3.37-2.27-4.81,0-4.14-1.27,1.33,1.3,5.29,2.34,5.64,1.81.61,4.66-.32,6.77.25,4.44,1.2,10.73,3.04,15.14,4.65,3.11,1.14,11.25,6.17,14.07,4.47,4.86-2.95-6.34-13.12-6.71-2.88-1.94-1.14-.73-3.65-1.05-4.66-.21-.65-3.2-2.36-3.42-2.34-.54.04-1.12,3.14-2.22,1.9-.68-.76,1.55-2.22,1.27-2.54-3.63-1.94-2.04,1.65-5.11,1.9l.96-3.81c-.87.05-2.52,4.23-3.51,3.18-.72-.77,2.05-2.89,2.55-3.51l-1.61-.77c-1.11-.1-3.17,4.71-4.13,3.64-.89-.99,3.46-3.5,2.55-4.46-1.06-1.11-3.32,4.41-4.46,3.19-.85-.91,2.44-2.54,1.91-3.82-2.48-.1-7.78-1.01-8.3-3.83-1.13-.25-.4.91-.64,1.27ZM620.29,332.79c-.09.15-1.67-1.03-2.36-1.15-2.56-.45-5.32-.07-8.01-.93-1.51-.48-2.33-1.76-3.96-1.79-2.33-.03-11.66,2.73-14.2,3.74-9.56,3.81-15.57,12.26-18.71,21.82h10.85s-2.55-5.1-2.55-5.1c1.62.56,3.02,5.47,4.77,5.1.7-.15,1.1-1.05.65-1.92-1.09-2.14-4.52-4.5-4.15-7.65l3.56,5.69,1.86,1.96c1.5-1.16.65-.94.06-1.96-1.74-3.02-4.03-5.68-3.56-9.52l2.65,6.6c1.23,1.49,3.17,4.54,4.36,1.71-2.8-.95-3.9-6.19-4.46-8.94l3.82,7.01c-.47-2.02-1.13-5.22-.65-7.21.05-.22,3.28-2.76,3.5-2.79,1.75-.21,3.43,2.21,4.8,2.98.56-1.05-2.45-3.34-.64-3.83.96,2.88,2.72,6.45,5.11,8.29l-3.18-9.57,4.47,8.93c2.71.55-.22-3.44-.67-4.76s-1.22-3.42-.93-4.82l2.55,6.39.97-.97,2.56,4.79c1.18.14.56-1.33.34-1.94-.74-2.03-2.31-4.09-2.59-6.35,2.34,2.36,2.5,7.69,6.71,7.64-2.76-3.01-5.1-6.54-5.1-10.84l2.71,6.53c1.55,3.77,5.33,3.75,8.77,4.95-.11-.65.46-1.67-.42-1.92-1.36-.39-6.15-1.76-6.59-2.87l1.28-.64c-1.3.37-2.27-4.81,0-4.14-1.27,1.33,1.3,5.29,2.34,5.64,1.81.61,4.66-.32,6.77.25,4.44,1.2,10.73,3.04,15.14,4.65,3.3,1.21,10.5,5.72,13.63,4.68,5.82-1.93-5.64-14.07-6.28-3.1-1.94-1.14-.73-3.65-1.05-4.66-.21-.65-3.2-2.36-3.42-2.34-.54.04-1.12,3.14-2.22,1.9-.68-.76,1.55-2.22,1.27-2.54-3.63-1.94-2.04,1.65-5.11,1.9l.96-3.81c-.87.05-2.52,4.23-3.51,3.18-.72-.77,2.05-2.89,2.55-3.51l-1.61-.77c-1.11-.1-3.17,4.71-4.13,3.64-.89-.99,3.46-3.5,2.55-4.46-1.06-1.11-3.32,4.41-4.46,3.19-.85-.91,2.44-2.54,1.91-3.82-2.48-.1-7.78-1.01-8.3-3.83-1.13-.25-.4.91-.64,1.27ZM134.5,329.61h-1.91s0,2.55,0,2.55c.84-.14,2.44-2.01,1.91-2.55ZM155.25,329.6v.64c.41-.21.41-.43,0-.64ZM181.42,329.61l-.3.3.95.95.3-.3-.95-.95ZM572.41,329.61h-1.91s0,2.55,0,2.55c.84-.14,2.44-2.01,1.91-2.55ZM593.16,329.6v.64c.41-.21.41-.43,0-.64ZM619.33,329.61l-.3.3.95.95.3-.3-.95-.95ZM187.49,330.24l-2.55.31,2.54,1.6v-1.91ZM625.4,330.24l-2.55.31,2.54,1.6v-1.91ZM151.42,330.88v.64c.41-.21.41-.43,0-.64ZM589.33,330.88v.64c.41-.21.41-.43,0-.64ZM116.63,331.52c-11.42,3.78-19.01,12.17-26.87,20.68-2.63,2.85-6.71,6.43-8.86,9.79-.81,1.26-6.84,12.96-6.4,13.56,4.66,2.12,9.78,2.04,14.67,3.21,3.58-11.43,14.1-20.4,24.14-26.3-.17-7.31.45-14.15,3.32-20.93ZM148.23,332.79v.64c.41-.21.41-.43,0-.64ZM586.14,332.79v.64c.41-.21.41-.43,0-.64ZM118.54,337.26v-3.19h-.63v3.19h.63ZM144.09,336.62l1.9-1.6-.95-.95c-.99.68-1.11,1.37-.95,2.54ZM556.45,337.26v-3.19h-.63v3.19h.63ZM582,336.62l1.9-1.6-.95-.95c-.99.68-1.11,1.37-.95,2.54ZM129.4,337.9c.36.44,2.43-2.56,1.9-3.19-1.34.52-2.14,1.75-1.9,3.19ZM567.32,337.9c.36.44,2.43-2.56,1.9-3.19-1.34.52-2.14,1.75-1.9,3.19ZM120.02,353.67c-.69-.97-3.34-12.36-2.23-14.17l-1.15-4.15c-2.67,8-3.03,16.01-1.28,24.25l3.82-1.6c-3.79,2.24-3.21,8.61-4.77,11.18-1.27,2.09-2.11-2.72-2.88-2.56-.33,2,1.73,4.25-.33,5.73l-3.51-4.45c-.48,1.93,1.48,3.64,1.79,4.97.24,1.03-.42,2.05-.17,2.72.76,2.02,3.85,2.07,5.69,1.92l.35-1.95,1.58,1.28-.31-1.91,1.91,1.27-.63-6.38,1.9,4.46-.63-7.01c1.36.13-.03,4.45,1.59,4.45s.23-4.32,1.59-4.45l1.29,2.24c-1.55,2.58-1.64,4.48,1.84,5.08,2.43.42,6.36-2.31,9-2.22-.69-2.74-3.71-2.51-4.65-3.12-3.21-2.08-3.8-5.4-5.27-7.69-.54-.84-2.04-.91-2.57-2.54-1.03-3.19.31-2.12-1.99-5.34ZM557.92,353.68c-1.18-1.53-.45-4.74-.95-6.4-.63-2.13-3.34-3.73-1.28-7.78l-1.15-4.15c-1.39,2.41-3.97,20.01-1.54,20.46l6.64-.68c-.03-.93-1.33-.93-1.73-1.45ZM142.8,337.26h-1.91s0,2.55,0,2.55c.84-.14,2.44-2.01,1.91-2.55ZM580.71,337.26h-1.91s0,2.55,0,2.55c.84-.14,2.44-2.01,1.91-2.55ZM165.78,354.49c-.67-1.36-.61-2.87-1.14-4.28-.77-2.09-5.84-11.38-8.42-10.11-3.42,1.68-2.38,4.91-1.42,7.82,1.09,3.3,4.32,6.58,3.32,9.77,1.94-1.7,2.01-3.67,5.1-1.91v-1.92s2.56.64,2.56.64ZM603.7,354.49c-.67-1.36-.61-2.86-1.14-4.28-.77-2.09-5.84-11.38-8.42-10.11-3.23,1.59-2.47,4.55-1.6,7.36.26.83,2.74,6.62,3,6.89.73.78,4.16,1.05,5.18.78.63-.17-.07-2.09,2.97-.64ZM128.76,343v-2.55s-.63,0-.63,0l-.64,2.55h1.27ZM566.67,343v-2.55s-.63,0-.63,0l-.64,2.55h1.27ZM119.18,344.92l-.31-3.82c-1.57,1.11-.68,2.33-.31,3.82h.63ZM140.25,341.1c-1.99-.3-2.84.62-2.55,2.54,1.54.27,1.99-1.44,2.55-2.54ZM557.09,344.92l-.31-3.82c-1.57,1.11-.68,2.33-.31,3.82h.63ZM578.16,341.1c-1.99-.3-2.84.62-2.55,2.54,1.54.27,1.99-1.44,2.55-2.54ZM183.01,343.64v-1.27h-.63v1.27h.63ZM620.93,343.64v-1.27h-.63v1.27h.63ZM168.65,343.02l-.3.3.95.95.3-.3-.95-.95ZM186.84,346.84c.04-.99-.88-4.15-2.22-3.83l-1.6,2.55,3.83,1.28ZM606.56,343.02l-.3.3.95.95.3-.3-.95-.95ZM624.76,346.84c.04-.99-.88-4.15-2.22-3.83l-1.6,2.55,3.83,1.28ZM191.96,345.56c-.36-.21-2.36.14-3.19-.64v2.55s3.19,0,3.19,0c-.06-.44.08-1.86,0-1.91ZM629.87,345.56c-.36-.21-2.36.14-3.19-.64v2.55s3.19,0,3.19,0c-.06-.44.08-1.86,0-1.91ZM137.05,345.56h-1.27s0,3.19,0,3.19h.63s.64-3.19.64-3.19ZM195.15,346.2c-.06-.08-1.43-.21-1.91-.64v1.91s1.91,0,1.91,0c-.04-.39.1-1.15,0-1.27ZM574.97,345.56h-1.27s0,3.19,0,3.19h.63s.64-3.19.64-3.19ZM633.06,346.2c-.06-.08-1.43-.21-1.91-.64v1.91s1.91,0,1.91,0c-.04-.39.1-1.15,0-1.27ZM128.12,346.2c-1.09-1.04-2.76,2.28-.95,3.19l.95-3.19ZM566.03,346.2c-1.09-1.04-2.76,2.28-.95,3.19l.95-3.19ZM197.7,348.75v-1.27h-.63v1.27h.63ZM635.61,348.75v-1.27h-.63v1.27h.63ZM200.89,348.12h-1.27s0,1.27,0,1.27l1.27-1.27ZM638.81,348.12h-1.27s0,1.27,0,1.27l1.27-1.27ZM204.08,349.4h-1.27v.63h1.27v-.63ZM641.99,349.4h-1.27v.63h1.27v-.63ZM120.47,350.03c-.16,1.17-.04,1.86.96,2.54l-.33-2.54h-.63ZM558.38,350.03c-.16,1.17-.04,1.86.96,2.54l-.33-2.54h-.63ZM134.5,353.21l.64-2.55c-1.23.31-1.44,1.41-1.27,2.55h.63ZM572.41,353.21l.64-2.55c-1.23.31-1.44,1.41-1.27,2.55h.63ZM156.13,353.3c-1.33-.93-6.67,3.26-6.86,5.46-.08.85,3.74,3.43,4.69,4.7.54.72.93,2.4,1.03,2.48.46.34,9.56-2.34,11.44-1.24l-4.79-8.29c-.38-.2-4.17,7.63-5.75,5.11-1.33-2.11,1.39-4.08,1.5-5.54.02-.35-1.13-2.6-1.25-2.68ZM594.11,353.23c-1.56-1.2-4.53,2.44.65,1.9-.45-.49-.57-1.84-.65-1.9ZM128.11,355.13v-1.27h-.63v1.27h.63ZM565.71,353.86v.64c.41-.21.41-.43,0-.64ZM91.1,378.75h15.64c.12,0,2.29-.81,2.23-.95-.31-1.17-6.53-1.75-5.74-2.87l4.47-1.94c-2.44-3.64-.88-12.2,1.92-4.46,1.26-.1.49-2.59.6-3.54.45-3.98,2.92-1.24,2.59,1.63,3.16-2.67.47-7.81.63-11.49-8.95,6.01-19.19,12.68-22.34,23.62ZM124.93,358.96c-2.43-6.63-2.15-.61-1.27,0,.15.1.88-.04,1.27,0ZM747.96,370.45c-4.25,2.48-9.56,3.76-14.43,4.4-13.65,1.8-27.42-3.01-40.86-4.96-3.4-.49-7.55-.26-10.78-.71-59.26-8.37-120.48-21.19-178.59.15-26.88,9.87-46.25,27.76-66.57,47.06l-11.47,12.78c13.19-10.45,25.98-21.34,39.7-31.15s35.4-23.35,51.24-26.64c1.51-.31,2.97-.39,4.5-.28l-.32,2.55c-20.56,15.1-43.34,27.13-62.54,44.06-5.72,5.05-9.57,9.95-14.69,15.31-7.2,7.55-14.93,14.48-20.75,23.29l4.12-2.89c24.79-23.44,51.3-44.85,80.97-62.01,11.31-6.54,20.86-11.28,34.02-13.22,51.8-7.61,103.27,6.52,155.07,6.33,4.07-.01,8.01-.11,12.1-.03,13.11.26,27.61-2.58,37.65-11.5.78-.7,1.82-1.32,1.6-2.54ZM129.39,362.79c.13-.16-.29-3.95-1.26-3.83-.77,1.85-.71,2.96,1.26,3.83ZM126.21,362.16c-.21.94.27,1.33.96,1.9l-.33-1.9h-.63ZM132.59,362.16c-3.93-.83-1.05,3.6,0,2.55v-2.55ZM252.6,381.94c32.06-.95,61.46,15.32,82.67,38.28l-5.45-7.95c-35.44-44-103.45-55.17-156.6-46.83-31.61,4.96-58.89,20.38-91.2,14.4-3.03-.56-5.87-1.5-8.8-2.37-4.33,17.5,8.57,28.12,25.24,27.47,40.8-1.59,84.32-28.92,124.91-23.47,31.98,4.3,62.99,17.29,87.32,38.43l14.36,16.91-4.53-8.23c-14.41-21.2-35.79-32.08-59-41.21-2.89-1.14-8.95-1.35-8.92-5.43ZM130.67,366.62v-1.27h-.63v1.27h.63ZM133.86,367.26v-1.91h-.63v1.91h.63ZM135.78,367.26v-1.91h-.63v1.91h.63ZM135.14,370.45v-1.27h-.63v1.27h.63ZM123.01,375.55c.31-.25-1.11-1.68-1.91-1.27v1.27s1.91,0,1.91,0ZM514.65,374.28v.64c.41-.21.41-.43,0-.64ZM635.38,393.85c.89-1.72,1.76-3.38.79-5.1-1.61-2.89-5.61-5.78-8.83-6.52-11.75-2.69-26.77,2.04-38.24-.7-2.15-.51-4.16-1.81-6.21-2.09-4.05-.55-8.89.29-13.03-.05,10.19,9.37,24.53,11.38,37.83,8.77,4.89-.96,9.61-3.53,14.84-3.04,7.7.72,10.68,9.27,8.62,15.96l3.21-2.97c-1.49-2.98.48-3.21,1.02-4.27ZM636.89,386.41c.94-.98-1.55-3.96-3.19-3.18-.24.2,2.26,4.15,3.19,3.18ZM637.67,386.91c.2.33,1.2.37,1.46.76.67,1-.87,7.76-.47,9.77l-4.65,7.47c6.46-4.54,10.61-16.04,3.19-21.68.18.96.13,3.12.47,3.68ZM198.98,384.5c-3.91-.69-.85,2.76,0,1.91v-1.91ZM199.76,386.92c.22.31,1.2.35,1.46.75.67,1.01-.87,7.75-.47,9.77l-4.65,7.47c5.28-3.43,9.22-12.83,5.99-18.74-1.8-3.29-3.61-1-2.33.75ZM197.47,393.85c1.8-3.48,1.61-5.8-1.97-8.11-2.25-1.46-4.26.38-6.74.04,4.13,4.23,6.39,9.39,4.47,15.31l3.21-2.97c-1.48-2.98.48-3.21,1.02-4.27ZM200.89,389.6c.21-1.16-.7-2.12-1.91-1.91l1.91,1.91ZM638.8,389.6c.21-1.16-.7-2.12-1.91-1.91l1.91,1.91ZM198.98,395.99c-1.87-.33-1.65.85-.31,1.91l.31-1.91ZM636.89,395.99c-1.87-.33-1.65.85-.31,1.91l.31-1.91ZM194.83,402.38l-.95.95.3.3.95-.95-.3-.3ZM632.75,402.38l-.95.95.3.3.95-.95-.3-.3ZM194.83,404.93l-.95.95.3.3.95-.95-.3-.3ZM632.75,404.93l-.95.95.3.3.95-.95-.3-.3ZM187.81,406.85l-1.59,1.59.3.3,1.59-1.59-.3-.3ZM625.73,406.85l-1.59,1.59.3.3,1.59-1.59-.3-.3ZM326.33,438.11v.64c.41-.21.41-.43,0-.64Z"/>
  <path d="M488.79,189.18c.15-.18-.15-1.1,0-1.28.09-.11.54.11.64,0-.13.16-.25.77-.64,1.28Z"/>
  <path d="M532.84,231.31h.64s.09.6-.32.63c-.15.01-.19-.57-.32-.63Z"/>
  <path d="M533.48,231.31v-.64c.07.07.52-.05.63.32-.01.4-.6.29-.63.32Z"/>
  <path d="M532.84,230.67c.05.2-.03.43,0,.64-.54-.24-.67-.23-1.28-.64.41.04.89-.07,1.28,0Z"/>
  <path d="M511.13,194.29c-.18.08-.49-.09-.64,0,.02-.21-.02-.43,0-.64.27.22.42.25.64.64Z"/>
  <path d="M533.48,230.67c-.21-.03-.43.04-.64,0-.05-.22.07-.48,0-.64.12.18.44.43.64.64Z"/>
  <path d="M532.84,230.03c-.4-.6-.4-.74-.64-1.28.43.64.38.69.64,1.28Z"/>
  <path d="M536.03,226.2c-2.07-.19-1.93-1.53-2.55-1.91.4.21,1.01.11,1.63.61.5.4.64,1.03.92,1.31Z"/>
  <path d="M488.15,189.82c.2-.25.46-.43.64-.64-.19.24-.48.42-.64.64Z"/>
  <path d="M533.48,162.37c.58-1.08.17-.82,1.28-1.91-.62,1.42-.52,1-1.28,1.91Z"/>
  <path d="M487.52,190.46c.1-.13-.1-.51,0-.64.08-.1.56.1.64,0-.17.21-.42.47-.64.64Z"/>
  <path d="M484.96,194.29c.08-.24.58-.46.64-.64-.17.25-.49.42-.64.64Z"/>
  <path d="M507.94,190.46s-.03-.63,0-.64c.74-.32.74.96,0,.64Z"/>
  <path d="M533.48,224.29c-.09-.05-1.72-.59-1.92-.64.88.22,1,.16,1.92.64Z"/>
  <path d="M532.2,228.75c-1.03-1.54-3.26-2.59-1.28-5.11-.39.84.8,4.06,1.28,5.11Z"/>
  <path d="M534.75,160.46c.21-.21.44-.42.64-.64-.03.2-.55.44-.64.64Z"/>
  <path d="M486.88,191.1c.09-.16-.1-.49,0-.64.06-.1.56.1.64,0-.23.17-.39.48-.64.64Z"/>
  <path d="M515.6,215.99c-1.13.71-2.03,1.25-3.19,1.91.07-.05-.04-.43,0-.64.88-.04,1.34-1.11,1.28-1.91.11.27,1.4.68,1.92.64Z"/>
  <path d="M531.56,223.65c-.2-.05-.43.04-.64,0,.72-.91.24-.1.64,0Z"/>
  <path d="M485.6,192.37c-.39.6-.78,1.11-1.28,1.91-.3.48-.42.88-.64,1.28-1.17,2.14-2.69,4.34-3.07,6.87-.21,1.37.69,3.88.52,3.98-.04.02-1.6-1.01-.95-.01.78,1.74-.19,3.36-.33,5.11-1.12.15-.6-1.45-.63-2.22-.35-8.18,2.1-11.97,6.38-18.2-.11.18.07.88,0,1.28Z"/>
  <path d="M515.6,215.99c.22-.14.4-.49.64-.64-.14.12-.21.61-.64.64Z"/>
  <path d="M486.24,192.37c.15-.24-.15-1.06,0-1.28.17-.09.49.09.64,0-.21.36-.31.79-.64,1.28Z"/>
  <path d="M518.79,221.1c-.03.07-.62-.06-.64,0,.2-.4.53-1.04.64-1.28-.06.4.11,1.03,0,1.28Z"/>
  <path d="M485.6,193.65c.1-.32-.07-.88,0-1.28.06-.1.58.1.64,0-.16.25-.27.73-.64,1.28Z"/>
  <path d="M537.31,127.27c1.24.23,1.94-.97,3.01-1.18,2.08-.41,7.84,2.26,7.19,4.68s-8.86-.2-10.84.34c-.19,1.25,1.44.34,1.92.64.41.26-1.63,4.46,1.03,5.07,2.11.48,2.01-4.26,4.07-3.79.37,2.5-.65,6.27-2.97,7.61-1.22.7-2.52.04-3.08.65-.73.8-1.37,2.75-1.62,3.87-2.04-.68-2.88-1.57-2.55-3.83-1.79.86-2.09,3.24-4.16,3.71-1.72-1.28-3.39-4.45-2.83-6.54.72-2.67,2.6,2.04,3.79,2.19-.22-.91.71-2.19.58-2.82-.23-1.13-3.52-.98-3.12-2.59.25-1,3.57-1.66,3.83-2.87-4.63-2.24-5.91,4.18-8.63,4.48-4.25.47-.74-5.18,1.01-6.69s5.45-2.1,5.65-2.33c.36-.42-.17-5.58.19-7.15.18-.8,2.18-4.04,2.82-4.24,3.34-1.03,5.54,8.35,4.71,10.81Z"/>
  <path d="M297.29,338.54c-1.52,2.72-5.87,3.03-8.48,1.77-.76-.37-1.78-1.66-2.05-1.67-.78-.01-7.34,6.56-7.02-.09-2.07,1.8-2.36,4.28-5.74,3.85-2.95-.37-1.7-3.88-1.93-5.77l-4.48,6.38c-1.1.27-1.51-1.16-1.6-1.91-.43-.3-2.71,2.33-4.1,1.91-.89-.27-.83-2.09-1.31-1.91-1.04.4-2.76,3.59-4.58,3.74-.74.06-1.9-.91-1.96-1.49-.09-1.01,2.14-2.98,2.07-4.15-1.38,1.86-8.61,3.49-9.9,1.89-1.47-1.82,4.42-1.23,5.28-1.41,1.55-.32,11.87-6.23,12.59-2.72l-1.6,4.13c2.71-.72,3.85-5.47,6.38-5.13l.33,1.3h.62c3.12-5.4,5.49-1.75,3.84,3.19,1.3,1.3,5.74-4.48,7.06-5.38,1.77-1.21,4.33-1.35,4.93-1.77.63-.44,2.47-6.92,5.3-3.42,2.15,2.66-3.32,6.65-2.33,8.03,1.75,2.44,6.24.44,8.66.62ZM287.72,334.07c1.19-.46,1.97-2.06,1.9-3.19-1.19.46-1.97,2.06-1.9,3.19ZM285.15,335.99c-1.23-1.21-3.88,2.45-3.19,3.19s3.9-2.49,3.19-3.19ZM259.95,338.55c-1.36.89-3.01,2.03-3.2,3.81l3.2-3.81Z"/>
  <path d="M389.53,344.92c.47-.14,2.29-3.91,5.78-3.82,2.25.06,1.51,5.24,5.01,2.61.54-.41.48-3.75,2.95-4.84,5.6-2.47,2.87,3.92-.01,6.04,1.57-.22,3.59-.97,4.92-1.77,2.02-1.22,3.05-3.57,5.29-3.96.58,3.54-2.62,6.08-2.55,9.57,2.13,1.26,9.64-5.06,10.21-4.46,2.58,2.73-16.68,14.25-12.13,1.28-1.59.08-2.4,1.21-4.15,1.32s-6.41-1.85-7.91-.61c-.15.12-.25,1.63-.57,2.28-3.6,7.31-10.5,7.31-8.44-1.71-1.64-.33-3.19.59-4.73.58-1.81-.01-3.6-.56-2.93-2.5,2.44-.46,7.21.63,9.26,0ZM394.95,345.56c-1.3-1.29-6.93,2.86-5.1,5.74,2.11.95,6.14-4.71,5.1-5.74Z"/>
  <path d="M506.02,163.02l-5.34,1.99c-4.47,2.05-8.05,6.28-8.06,11.41,5.95-1.28,14.25-3.19,17.23,3.83-1.92.39-1.02-1.4-2.19-2.58-2.69-2.7-11.71-1.04-15.05.68l.65,1.9-8.94,1.91c.63-2.66,6.61-2.33,6.96-2.61.76-.62.26-5.42.88-7.07,1.89-5.04,8.42-9.45,13.86-9.45Z"/>
  <path d="M530.93,115.14c-.67-2.81,3.22-6.48,3.24-2.22,0,2.29-1.17,2.4-3.24,2.22Z"/>
  <rect x="483.05" y="197.48" width=".63" height="1.27"/>
  <rect x="482.41" y="199.4" width=".63" height="1.27"/>
  <path d="M481.76,203.86h-.63c-.15-.77.94-3.27,1.27-2.55l-.64,2.55Z"/>
  <path d="M508.26,162.37c.41.21.41.43,0,.64v-.64Z"/>
  <path d="M437.08,197.48c.2.18,4.69.59,5.36.58,1.22-.02,4.51-.84,5.5-1.54,1.26-.9.76-2.6,2.55-2.23-.27,3.4-3.68,4.79-6.69,5.11-2.83.3-5.59-.74-7.63-.62-1.55.09-2.97,1.69-5.13,1.92-5.26.54-7.2-2.95-8.3-3.03-.44-.03-3.29,1.5-4.66,1.61-1.62.13-2.76-.61-4.21-.5-3.82.27-6.93,3.2-11.61,1.31-.97-.39-2.31-1.85-2.5-1.86-.25,0-2.73,2.16-3.99,2.37-1.46.24-2.11-1.27-2.93-1.11-.89.17-2.74,2.13-4.74,2.35-2.14.24-3.02-1.79-4.2-1.69s-3.73,2.17-5.92,2.41c-1.83.19-4.18-.76-4.96-.56-1.57.4-.94,6.93-2.63,6.97-2.13.04-.09-6.73-.32-7.01-2.3,1.8-5.61,2.87-8.55,2.52-1.29-.15-2.7-1.2-3.8-1.09-1.56.16-3.81,2.66-6.16,1.76-.07-2.17,2.81-2.14,4.28-3.05,2.54-1.58,10.05-9.53,10.76-9.68,1.58-.35,2.25,2.68,2.08,3.95-.41,3.12-2.33,4.28-4.35,6.23,2.89-.39,5.3-1.97,6.64-4.52,1.41-2.7.66-4.55,4.38-5.82,2.77-.95,5.71-.5,6.59,2.67.61,2.21-1.86,3.31-1.34,5.12,4.55-2.05,4.88-10.07,11.34-8.83,5.24,1,.72,7.03,3.36,7.56,3.73.75,5.08-9,11.31-8.18,3.24.42,5.22,3.67,1.34,2.56-1.26-.36-1.63-1.26-3.39-.45-.71.33-3.34,3.84-3.21,4.46.54,2.44,10.05,1.31,11.51.03.84-.74.68-3.9,1.99-5.67,4.72-6.32,9.81,1.83,3.1,4.7.18,1.51,3.6.09,4.41-.38,4.22-2.44,4.89-10.1,11.99-6.14,4.25,2.37,2.27,7.37,2.74,7.79ZM426.24,195.56c2.62-.94,10.08,2.68,9.6-1.57-.6-5.27-9.84-4.34-9.6,1.57ZM419.21,191.1c-1.84-.4-4.6,4.18-3.82,5.1,2.23-.98,4.3-2.33,3.82-5.1ZM372.61,200.03c2.9.41,6.87-.25,7.56-3.65.72-3.56-3.28-3.91-5.45-1.89-1.48,1.38-1.32,3.79-2.11,5.54ZM389.61,193.06c-3.42.75-6.03,10.13.82,5.96,3.89-2.37.74-6.3-.82-5.96ZM360.48,201.3c3.65-.08,6.29-2.68,6.38-6.38l-6.38,6.38ZM432.62,197.48l-7.66-.63c.53,1.47,2.17,1.74,3.49,1.92,1.08.15,4.88.64,4.17-1.29Z"/>
  <path d="M383.46,170.67l-.64,2.54,4.47.32c-1.26,1.51-3.91,1.07-5.14,2.52-1.47,1.72-2.15,5.78-1.88,8.01,4.56.23,6.44-8.76,7.98-9.57,1.12-.59,1.06.78.92,1.56-.42,2.34-2.52,4.61-1.88,7.37,3.63,1.21,7.15-8.87,7.98-8.92,1.13-.07.71,1.68.51,2.41-.59,2.25-2.96,4.92-.52,7.14,4.05-.99,6.34-10.4,9.01-11.4,3.25-1.22-.04,4.11.89,5.03,3.63.19,6.03-3.01,9.33-4.38,7.76-3.23,5.27,2.31,6.33,2.5,2.7.5,6.2-1.09,8.54-2.32.98-.52.77-1.5,1.95.05-1.81,4.66-10.21,3.69-12.01,4.9-.18.12-1.13,2.6-2.32,3.74-4.24,4.09-9.62,3.76-8.65-3.22-1.17.53-2.8.97-4.05.67-1.02-.25-.41-2.65-1.68-2.58-.61,4.32-8.3,13.84-10.23,5.74-1.05.53-1.08,1.69-2.57,2.18-2.74.91-4.18.78-4.76-2.18-2.16,2.55-6.03,5.49-7.02.64-2.83,2.51-8.38,6.78-11.81,3.19,6.45.53,12.34-4.59,13.4-10.85-1.69.36-2.57.94-4.3.16-3.44-1.53,3.3-1.65,4.49-2.22,2.08-1.01.77-3.77,3.65-3.05ZM415.96,175.18c-9.87,2.61-5.46,13.36,1.69,3.13l-1.69-3.13Z"/>
  <path d="M617.1,367.26c-4.14.18-6.76-1.48-7.66,3.5,4.24,3.46,9.46-4.29,13.14-4.76,2.73-.36,7.08,1.92,10.17,1.92,2.31,0,4.54-2.43,6.69-.32,3.67,3.58-3.42,1.32-4.65,1.68-3.14.93-2.41,4.85,1.2,5.02,2.55.12,5.77-4.66,9.03-4.98,4.16-.41,10.07,3.58,13.8,2.32,1.37-.46,2.42-4.67,5.17-4.4,5.33.51-1.53,8.49-2.84,10.24,1.85.7,3.88.71,5.48-.62.79-.66.25-6.71,3.76-5.75,2.07.57.18,3.69.33,3.82,1.51,1.28,6.31-3.28,7.02-2.54.44,1.92-1.93,3.18-1.91,4.81.04,2.3,3.74.85,4.32.15.53-.64.47-3.98,2.37-3.68s-1.17,3.22-.02,5.11c.73,1.2,3.49,1.39,4.81,1.26-2.71-7.42,9.39-9.09,3.83-.64,2.3-.49,4.6.7,6.7.7,1.77,0,3.74-1.27,5.42-.38-3.7,2.6-9.32,1.52-13.75,1.57-2.77.03-3.66,1.33-6.85-.11-.85-.39-1.48-1.5-2.18-1.68-2.09-.54-6.93,2.89-6.58-3.29-1.46.98-3.22.35-4.65.77s-2.44,2.52-5.53,2.78c-2.3.2-3.49-1.41-4.17-1.41-.39,0-1.56,1.03-2.37,1.29-4.67,1.45-7.68-3.32-3.7-6.61l-3.82-1.28c-.3,3.27-2.83,7.12-6.47,6.7-3.36-.38-2.41-2.38-3.12-3.51-.21-.34-3,1.29-4.13,1.31-4.04.04-7.01-3.56-4.16-7.04l-4.78-.65c.56,6.27-9.19,9.63-8.63,1.92-3.65,3.14-11.88,5.58-10.21-1.91-1.04-1.05-5.36,5.53-6.38,4.46.68-4.84,9.73-9.5,13.77-7.7.96.43,1.78.68,1.54,1.96ZM623.97,372.21c.94-.94,1.27-3.5-.18-4.31-5.45.84-3.3,7.8.18,4.31ZM664.34,369.18c-1.08-1.12-4.42,3.98-2.23,3.82.52-.04,2.76-3.26,2.23-3.82ZM642,376.19c3.94,1.63,8.23-5,3.53-4.48-1.57.17-3.54,2.83-3.53,4.48ZM669.77,373.02l-.95.95.3.3.95-.95-.3-.3ZM658.59,373.65c-1.2-.08-2.41.02-3.44.7-4.88,3.23,4.58,6.47,3.44-.7ZM661.79,373.65h-1.27s0,1.27,0,1.27l1.27-1.27ZM691.15,375.56c-.88-.9-3.12,2.6-2.55,3.19.88.9,3.12-2.6,2.55-3.19Z"/>
  <path d="M562.2,360.24c.17.33-.23,1.6.03,1.85.69.65,4.65-1.05,4.43,1.01-1.39,2.04-4.71,0-6.07,1.6-2.07,2.44-1.83,7.41,3.33,4.6,3.29-1.8,5.1-8.98,6.26-9.05,1.64-.09-.52,5-.94,5.42,1.26-.12,3.83-3.18,5.1-2.59,2.7,1.23.02,6.18.63,6.73,4.42.42,2.54-.18,3.5-2.55.47-1.16,1.52-3.21,2.53-3.87,4.59-3.01,2.96,3.83,1.64,5.99-.4.65-1.51.09-1.28,1.07,4.86,2.58,8.2-1.51,11.82-2.53,1.24-.35,1.21.91.92,1.57-.34.79-5.63,3.31-6.72,3.49-4.1.66-5.85-1.09-8.29-1.23-1.84-.1-3.01,1.47-5.11-.62s.29-4.02-.61-6.41l-6.39,7.65c-1.99.15-.84-1.84-.95-1.91-.77-.46-8.55,4.51-8.62-1.28-.88,1.37-7.42,5.64-8.62,4.46-.21-.21-.11-1.83.62-2.23.4-.21,1.23.25,1.87-.03,2.72-1.17,5.4-3.96,7.07-6.36.2-.58-4.78-.83-3.19-2.23.17-.15,2.44.17,3.39-.12.76-.23,2.81-4.05,3.63-2.44ZM581.35,367.9l.33-1.9c-.69.57-1.17.96-.96,1.9h.63Z"/>
  <path d="M684.76,372.36c-1.53.24-2.71-.3-2.55-1.91,1.53-.24,2.71.3,2.55,1.91Z"/>
  <path d="M209.83,371.09c1.68,1.81-5.26,5.9-6.84,6.24-1.43.3-2.88.16-4.33.14-2.04-.03-8.72-.77-10.14-.49-1.21.23-2.1,2.81-5.17,2.44-2.62-.31-1.4-3.46-1.29-5.13-1.04,1.87-3.37,2.35-4.61,3.37-.87.72-1.07,2.39-2.91,3.16-2.07.87-3.87.14-5.75.63s-3.95,3.34-7.08,1.19c-1.28-.88.18-4.33-3.6-3.25-.22,2.78,1.2,6.12-2.38,6.89-3.16.68-3.66-1.12-4.95-1.16-.35-.01-.6,1.75-2.21,2.29-4.21,1.42-7.02-.41-6.75-4.84l-2.87.65c2.23,3.87-.66,9.19-5.35,7.58-1.17-.4-.66-2.41-1.98-1.84-.38.17-1.39,1.97-2.39,2.72-7.87,5.91-11.44-4.67-4-7.2,1-.34,2.18-1.14,2.87.34.61,1.31-1.87.87-2.91,1.54-3.11,1.99-2.86,7.39,2.25,4.16,2.88-1.82,4.8-6.76,6.8-7.88,1.8-1.01,6.37-1.26,8.84-2.01,1.69-.52,2.44-1.83,4.49-1.91,1.04-.04,1.58.56.97,1.29-.13.15-3,.76-3.66,1.45-1.17,1.22-1.36,4.1.81,4.34,5.22.59,3.5-5.03,6.7-7.36,2.76-2.01,6.34-.26,9.12-1.1,1.18-.35,1.64-1.97,2.8-2.31,1-.29,2.98.11,3.33-.18.29-.24,1.36-6.59,4.53-4.72.22,3.21-.31,6.46-1.92,9.25,1.41.12,3.95-.05,4.83-1.25.71-.97-1.28-2.17-1.02-4.13.3-2.28,2.56-2.49,4.49-2.28l.32,3.19,4.47-4.45c2.4,1.88-.32,4.75.64,7.01,4.38.03,4.13-6.79,5.75-7.66,1.89-1.02.13,3.97.36,4.69.46,1.46,4.05,1.48,4.78.42.29-.41-1.71-5.43,2.66-6.29,5.55-1.1.99,4.27.49,5.65-.62,1.73,3.82,1.47,4.82.96,1.43.1,6.48-4.72,7-4.16ZM198.34,370.46c-1.08-.89-2,1.42-1.91,2.55.39.46,2.07-2.42,1.91-2.55ZM169.61,376.83l.64-3.82c-.44-.92-1.4,2.99-1.27,3.82h.63ZM176.63,375.56v-2.55h-.63v2.55h.63ZM163.41,378.28c-3.5,3.49,4.75,4.32,4.34.16-.24-2.4-3.22-1.27-4.34-.16ZM154.72,379.48c-1.82.5-3.6,4.17-1.29,4.93,4.72,1.57,4.44-5.79,1.29-4.93ZM136.19,383.91c-1.79.39-3.5,4.5-1.35,5.05,3.23.83,4.52-5.74,1.35-5.05Z"/>
  <path d="M88.62,386.96c.35.31,4.62-.42,3.11,1.36-.22.26-3.92.83-4.34,1.42s-1.2,4.6.2,4.98c4.16.8,6.35-9.42,7.02-9.57,2.92-.64-.29,5.02.32,5.74,5.86-4.28,3.67,2.63,5.06,3.55.81.54,2.26.22,3.23.28-1.53-11.03,9.91-9.43,3.19,0l8.93-.32-1.41,1.81c-4.9.6-10.93.77-15.67-.37l-1.1-4.31-4.48,5.74-.95-1.91c-1.28-.18-1.66,1.07-2.9,1.28-3.32.58-4.55-1.38-4.13-4.47-.9.83-7.66,3.78-6.37.32.26-.71,5.47-.87,5.74-3.5l-1.9-.97c.87-1.87,3.05.19,3.78-.34.21-.15.55-2.77,1.63-3.16,1.03.43.73,2.18,1.04,2.45ZM107.05,388.97c-1.28-1.44-2.31,3.3-1.91,3.82.93,0,2.07-3.64,1.91-3.82Z"/>
  <path d="M189.41,367.9v-1.91c2.34.01,2.34,1.9,0,1.91Z"/>
  <path d="M352.18,276.62c3.15,0,6.05-1.51,8.93-2.54-1.4,4.63-7.35,4.07-11.03,4.6-1.51.22-2.84,2.25-4.92.17-1.18-1.18-.78-4.33-3.19-4.14-.58.43-1.02,5.95-1.29,6.38-.05.08-1.84.07-1.91,0-.72-.76,1.15-4.07.32-5.1l-3.2,6.38-2.22-1.91c-.35,1.72-3,4.7-4.76,4.5-1-.11-1.83-1.29-1.95-1.29-.64-.02-5.77,9.78-7.65-1.29-2.58,1.34-.8,4.55-2.24,6.05-3.39,3.53-5.1,2.07-8.49,2.86-.58.14-.81,2.04-2.82,2.46-3.48.73-3.04-2.7-3.05-5-.46,1.74-4.61,2.97-4.79,3.2-.19.25,1.96,3.73-.9,5.78-1.87,1.33-3.39-.11-4.24.27-.93.41-1.53,2.91-3.33,3.69-1.47.64-4.27-.47-5.51,1.19-.34.46,2.47,5.41-1.69,6.28-2.35.49-3.16-1.44-3.44-3.54-.13-.97-.48-12.48,1.88-9.85.21,2.49-1.18,5.79,2.26,5.71,4.68-.1.25-9.54,3.9-10.73,2.87-.93,2.44,1.5,2.09,4.01-.09.62-2.5,6.36-.28,5.47,2.88-1.16,4.9-9.05,5.53-9.47.44-.29,3.24-.12,4.74-.7,1.9-.73,3.27-3.71,5.05-3.24s-.08,4.02,1.28,5.1c4.25-2.33-.07-8.95,6.07-7.66.25,1.96-.26,3.48-1.28,5.1,6.4,1.26,4.75-7.22,8.12-8.2,4.06-1.18,3.09,4.04,3.38,4.38,1.44,1.72,4.44-3.73,4.47-5.1-.12-.11-3.32,1.19-3.18-.32.08-.83,2.53-1.24,3.03-1.74.61-.61.67-2.3.8-2.4,1.6-1.27,1.14,1.7,1.27,1.92.26.44,3.01-.76,3.76-.93.56-.13,1.29.35,1.59.28.68-.16.09-1.12.72-1.27,1.94-.47-.2,2.41,2.22,1.91.36-2.87,6.44-6.18,8.33-4.17,1.37,1.45,1.28,4.84,3.39,4.08,2.25-.81.93-2.33,1.18-3.88,1-6.37,7.79-3.32,3.07,2.68ZM352.18,273.43v-1.27h-.63v1.27h.63ZM351.23,274.07v.64c.41-.21.41-.43,0-.64ZM328.57,283.01c.8.93,5.29-4.19,4.46-5.1-2.8,1.45-5.24,1.06-4.46,5.1ZM295.38,292.58c.11,1.12-2.15,3.41-.32,3.83s2.33-3.47.32-3.83ZM282.6,307.26c.84-4.48-3.47-5.48-1.43-.79.39.9.14.97,1.43.79Z"/>
  <path d="M267.92,311.09c2.62.19,4.12-2.32,4.78-4.46,2.81,1.87-1.37,6.07-3.2,6.37-.73.12-5.67.49-6.08.38-2.08-.55-2.15-2.58-2.84-4.2-1.71.91-1.76,7.17-2.29,7.6-.4.32-1.98-.15-2.78.08-2.24.64-4.13,2.8-5.78-.66-.55.77-2.86,4.44-4.15,3.19-.53-.52,1.79-2.85,1.92-4.15.18-1.84-2.75-.27-1.92-1.91.35-.68,1.74-.89,2.2-1.63.53-.84.25-2.67,1.31-3.16,1.4-.63.86,2.11,2.43,1.83,2.01-.35,3.67-1.59,2.99-3.76h1.91c.41.49-.91,4.68,1.27,5.11-.16-1.68,1.39-5.02,3.44-4.43,1.5.43,1.58,5.33,2.95,3.79.24-.28-1.25-5.21.9-7.07,3.2-2.76,4.52,4.9,2.93,7.07ZM266.64,309.81v-3.82h-.63v3.82h.63ZM250.69,312.4c1.12,6.83,4.7,3.11,3.82-1.94l-3.82,1.94Z"/>
  <path d="M334.31,272.8c.37-.37,1.9.55,1.9.95,0,1.77-2.87.01-1.9-.95Z"/>
  <path d="M541.78,291.3c1.54,0,3.1.14,4.64-.15,1.32-.24,5.34-2.63,5.57-2.4,1.17,1.17-1.79,3.07-2.62,3.44-3.92,1.75-6.3.11-8.48.53-1.58.3-5.38,5.73-7.73,1.14-.89.45-.83,2.33-2.57,2.59-3.74.55-3.18-2.91-3.53-3.21-2.26-1.89-2.79,4.19-3.17,4.45-.31.21-1.48-.64-2.14-.52-.84.16-1.31,1.72-2.65,1.81-.76.05-1.96-.71-2.14-.59-.49.33-.42,2.28-3,2.48-2.4.19-2.01-2.1-2.5-1.92-.94.36-5.72,6.73-6.7,5.74-.74-.75,3.36-5.05,4.13-5.75,1.01-.91,8.35-6.57,9.27-5.1.26.42-.41,2.55.96,3.18,1.63-.59,2.42-3.79,3.03-4.3.3-.25,4.12-1.52,4.62-1.47,2.44.21,1.46,4.27,3.83,3.22,1.26-.56,1.18-4.79,4.08-5.41.86-.18,3.6.72,3.9.31.53-.73-.61-4.56,2.91-4.46,2.77.08,1.44,5.02.29,6.37ZM541.13,289.39v-1.91h-.63v1.91h.63ZM535.8,291.36c-1.34.36-1.34,1.8-.08,2.5l3.49-2.24c-1.08.08-2.5-.5-3.41-.26ZM515.6,297.06c-1.07-.49-2.47,1.39-1.91,1.91.99.93,1.58-1.02,1.91-1.91Z"/>
  <path d="M498.36,245.99l-.62,4.16,4.43-.94.68,3.16,2.18-3.87c2.98-2.24,4.15,2.41,2.28,4.5,3.92-.63,1.76-6.42,7.02-5.1v4.47c2.49.17,3.58-4.87,5.97-4.37.17.04,2.75,1.81,2.83,1.96.77,1.34-.83,3.25,3.33,3.04-2.96-4.02,3.74-9.39,4.49-4.11.31,2.15-1.53,3.04-.97,4.76,2.8-.39,4.49-4.66,7.5-3.73.88.27,1.28,1.51,2.38,1.17-.29-4.23,5.82-4.24,4.19.03-.54,1.42-3.39,3.92.09,4.95,1.78.53,5.74-.97,5.3,1.4-1.85-.1-3.5.86-5.37.63-2.1-.25-3.04-2.23-3.96-2.4-1.16-.22-2.97.92-5.42.22-1.3-.37-1.19-1.66-1.57-1.66-.67,0-1.6.71-2.53.7-4.48-.05-9.51-1.45-13.4-1.73-.72-.05-1.81,1.38-3.08,1.01-2-.59-1.14-3.58-1.06-5.05-1.84-.35-1.02.52-1.44,1.4-1.08,2.25-1.41,4.38-4.54,4.3s-6.41-.69-6.46-4.42c-2.14,1.4-6.04,8.57-6.07,3.18-.09-.17-3.98,2.21-3.81.32.07-.82,2.99-1.38,3.5-2.23,1.15-1.92-.04-6.86,4.14-5.75ZM496.77,247.9v.64c.41-.21.41-.43,0-.64ZM527.74,251.73c1.45-.39,1.33-1.97,1.27-3.19-1.45.39-1.33,1.97-1.27,3.19ZM505.39,251.73c.25.31,1.69-1.12,1.27-1.91-.25-.31-1.69,1.12-1.27,1.91ZM543.05,249.82h-1.27s0,1.91,0,1.91h.63s.65-1.91.65-1.91ZM519.76,250.46c-1.36.31-.73,2.22.62,1.91s.73-2.22-.62-1.91ZM537.86,251.79c-.74-.53-3.43.92-2.47,2.49h3.83c-.44-.47-1.25-2.41-1.36-2.49Z"/>
  <path d="M481.62,248.7c1.95,2.1-.69,4.77-.48,4.94l7.02-.63c-1.95,3.96-5.79,1.96-8.64,2.2-1.1.09-2.13,1.27-3.73,1.04-.56-.08-1.43-4.34-2.94-3.24-.21.15-.62,3.74-1.95,4.76-.42.32-3.63,1.59-4.16,1.62-.9.05-2.54-.83-2.81-.63-.09.07-.28,1.55-.72,2.16-.58.8-1.87,1.63-2.49,1.03-.43-.42,3.39-4.99,3.19-6.37l-3.19-.32c.75-1.02,2.05-1.12,3-1.8.33-.24.42-1.14.82-1.43.48-.35,2.12.22,3.23.09,2.3-.27,1.3-1.82,3.16-1.66v2.55c.27.31,1.93-1.97,3.25-1.64,1.88.48,1.84,3.09,3.77,2.91-.78-2.17,1.36-8.07,3.68-5.58ZM480.49,251.73v-1.27h-.63v1.27h.63ZM465.81,257.47c2.89.28,3.5-2,3.18-4.47-2.56,1.54-3.83.82-3.18,4.47Z"/>
  <path d="M210.47,349.39l-.65-3.5c2.82-1.69,3.82,3.62.65,3.5Z"/>
  <path d="M143.12,348.11c.41.21.41.43,0,.64v-.64Z"/>
  <path d="M274.1,242.35c2.17,2.53,3.13,9.11-.12,11.28l.32-4.45c-3.51.51-5.98-3.36-1.73-4.47,2.62-.68-2.87-3.8-2.74-4.78,1.04-.02,3.71,1.77,4.27,2.42Z"/>
  <path d="M284.52,255.57c-1.29,4.21-6.95,8.7-10.85,10.53-.81.38-6.76,2.5-7.02,2.23-.07-.07-.36-1.75.44-1.9,4.58-.86,7.76-2.15,11.36-5.13l6.07-5.73Z"/>
  <path d="M280.05,253.65c.53.56-3.25,4.99-4.16,5.72s-6.86,4.27-7.32,3.84c-1.22-1.14,5.72-4.3,6.34-4.82l5.15-4.74Z"/>
  <path d="M279.91,245.85c-1.72,1.72-4.79-1.12-4.24-3.24,1.07-4.13,6.33,1.14,4.24,3.24Z"/>
  <path d="M186.21,277.9l-2.55-.31,1.59-1.59c.68.57,1.16.96.95,1.9Z"/>
  <path d="M624.12,277.9l-2.55-.31,1.59-1.59c.68.57,1.16.96.95,1.9Z"/>
  <path d="M213.66,309.17c-.25-1.04.05-3.53,1.58-3.19,1.81.41,1.04,4.05-1.58,3.19Z"/>
  <path d="M171.85,319.39c.41.21.41.43,0,.64v-.64Z"/>
  <rect x="167.49" y="321.27" width=".43" height="1.35" transform="translate(-178.54 212.9) rotate(-45)"/>
  <path d="M160.36,321.94c.41.21.41.43,0,.64v-.64Z"/>
  <path d="M651.58,309.17c-.25-1.04.05-3.53,1.58-3.19,1.81.41,1.04,4.05-1.58,3.19Z"/>
  <path d="M609.76,319.39c.41.21.41.43,0,.64v-.64Z"/>
  <rect x="605.4" y="321.27" width=".43" height="1.35" transform="translate(-50.26 522.57) rotate(-45)"/>
  <path d="M598.27,321.94c.41.21.41.43,0,.64v-.64Z"/>
  <path d="M648.39,349.39l-.65-3.5c2.82-1.69,3.82,3.62.65,3.5Z"/>
  <path d="M581.03,348.11c.41.21.41.43,0,.64v-.64Z"/>
  <polygon points="500.28 242.16 499.01 242.15 499.65 238.33 500.28 238.33 500.28 242.16"/>
  <path d="M120.78,369.81c.41.21.41.43,0,.64v-.64Z"/>
  <polygon points="294.73 274.07 293.46 273.76 295.06 272.17 294.73 274.07"/>
  <path d="M291.29,187.31c3.12-1.02,5.56,4.66,2.35,5.61-3.74,1.1-4.44-4.93-2.35-5.61Z"/>
</svg>